<svg width="43" height="50" viewBox="0 0 43 50" fill="none" xmlns="http://www.w3.org/2000/svg"><g clip-path="url(#a)" fill="#000"><path d="M30.104 3.226c-4.935 0-8.95 3.98-8.95 8.87h1.627c0-4.001 3.285-7.257 7.323-7.257V3.226zm7.322 8.871c0 4.002-3.285 7.258-7.323 7.258v1.613c4.935 0 8.95-3.98 8.95-8.871h-1.627z"/><path d="M42.308 12.097C42.308 5.427 36.833 0 30.104 0a12.224 12.224 0 0 0-10.786 6.452H.814A.81.81 0 0 0 0 7.258v41.936c0 .446.363.806.814.806h35.798c.451 0 .814-.36.814-.806V21.752c2.957-2.21 4.882-5.71 4.882-9.655zm-21.945 7.258H4.882V11.29h13.06c-.02.269-.043.535-.043.807 0 2.725.925 5.234 2.464 7.258zm15.436 29.032H1.627V8.065h16.984a11.952 11.952 0 0 0-.466 1.612H4.068a.81.81 0 0 0-.814.807v9.677a.81.81 0 0 0 .814.807h17.766a12.204 12.204 0 0 0 8.27 3.226 12.19 12.19 0 0 0 5.695-1.407v25.6zm-5.695-25.806c-5.832 0-10.577-4.704-10.577-10.484S24.272 1.613 30.103 1.613c5.832 0 10.578 4.704 10.578 10.484S35.934 22.58 30.104 22.58z"/><path d="M30.917 16.129c1.346 0 2.441-1.086 2.441-2.42 0-1.333-1.095-2.419-2.44-2.419H29.29a.811.811 0 0 1-.814-.806c0-.445.365-.807.814-.807h4.068V8.065h-2.44V6.452H29.29v1.613c-1.346 0-2.44 1.085-2.44 2.419s1.094 2.42 2.44 2.42h1.627a.81.81 0 0 1 .814.806.811.811 0 0 1-.814.806H26.85v1.613h2.441v1.613h1.627v-1.613zM8.95 24.194H4.068a.81.81 0 0 0-.814.806v4.839c0 .446.363.806.814.806H8.95c.45 0 .813-.36.813-.806V25a.809.809 0 0 0-.813-.806zm-.814 4.838H4.882v-3.226h3.254v3.226zm8.95-4.838h-4.882a.81.81 0 0 0-.814.806v4.839a.81.81 0 0 0 .814.806h4.882c.45 0 .813-.36.813-.806V25a.809.809 0 0 0-.813-.806zm-.814 4.838h-3.254v-3.226h3.254v3.226zm8.95-4.838H20.34c-.45 0-.813.36-.813.806v4.839c0 .446.363.806.813.806h4.882c.45 0 .813-.36.813-.806V25a.809.809 0 0 0-.813-.806zm-.814 4.838h-3.254v-3.226h3.254v3.226zM8.95 32.258H4.068a.81.81 0 0 0-.814.806v4.84c0 .446.363.806.814.806H8.95c.45 0 .813-.36.813-.807v-4.838a.808.808 0 0 0-.813-.807zm-.814 4.839H4.882V33.87h3.254v3.226zm8.95-4.839h-4.882a.81.81 0 0 0-.814.806v4.84a.81.81 0 0 0 .814.806h4.882c.45 0 .813-.36.813-.807v-4.838a.808.808 0 0 0-.813-.807zm-.814 4.839h-3.254V33.87h3.254v3.226zm8.95-4.839H20.34c-.45 0-.813.36-.813.806v4.84c0 .446.363.806.813.806h4.882c.45 0 .813-.36.813-.807v-4.838a.808.808 0 0 0-.813-.807zm-.814 4.839h-3.254V33.87h3.254v3.226zm3.255-4.032v12.903c0 .446.363.806.813.806h4.882a.81.81 0 0 0 .814-.806V33.064a.808.808 0 0 0-.814-.806h-4.882c-.45 0-.813.36-.813.806zm1.627.806h3.254v11.29H29.29v-11.29zM8.95 40.323H4.068a.81.81 0 0 0-.814.806v4.839c0 .446.363.806.814.806H8.95c.45 0 .813-.36.813-.806v-4.839a.808.808 0 0 0-.813-.806zm-.814 4.838H4.882v-3.226h3.254v3.226zm8.95-4.838h-4.882a.81.81 0 0 0-.814.806v4.839a.81.81 0 0 0 .814.806h4.882c.45 0 .813-.36.813-.806v-4.839a.808.808 0 0 0-.813-.806zm-.814 4.838h-3.254v-3.226h3.254v3.226zm8.95-4.838H20.34c-.45 0-.813.36-.813.806v4.839c0 .446.363.806.813.806h4.882c.45 0 .813-.36.813-.806v-4.839a.808.808 0 0 0-.813-.806zm-.814 4.838h-3.254v-3.226h3.254v3.226z"/></g><defs><clipPath id="a"><path fill="#fff" d="M0 0h42.308v50H0z"/></clipPath></defs></svg>