<svg viewBox="0 0 15 16" fill="none" xmlns="http://www.w3.org/2000/svg"><g clip-path="url(#a)" fill="#000"><path d="M14.313 1.625H11.25C11.25 1.25 11 1 10.625 1S10 1.25 10 1.625H5C5 1.25 4.75 1 4.375 1s-.625.25-.625.625H.687A.694.694 0 0 0 0 2.313v13c0 .374.313.687.688.687h13.624a.694.694 0 0 0 .688-.688v-13a.694.694 0 0 0-.688-.687zM13.75 14.75H1.25V6h12.5v8.75zm0-9.375H1.25v-2.5h2.5V3.5c0 .375.25.625.625.625S5 3.875 5 3.5v-.625h5V3.5c0 .375.25.625.625.625s.625-.25.625-.625v-.625h2.5v2.5z"/><path d="M6.438 12.063c.25.25.625.25.875 0L9.874 9.5a.604.604 0 0 0 0-.875.604.604 0 0 0-.875 0l-2.125 2.188L6 9.937a.604.604 0 0 0-.875 0 .604.604 0 0 0 0 .876l1.313 1.25z"/></g><defs><clipPath id="a"><path fill="#000" d="M0 .186h15v15.01H0z"/></clipPath></defs></svg>