<svg width="15" height="15" viewBox="0 0 15 15" fill="none" xmlns="http://www.w3.org/2000/svg"><path d="M11.309 6.738a.586.586 0 1 0 0-1.172.586.586 0 0 0 0 1.172z" fill="#333"/><path d="M12.656 1.172h-.761V.586a.586.586 0 1 0-1.172 0v.586H8.057V.586a.586.586 0 1 0-1.172 0v.586H4.248V.586a.586.586 0 1 0-1.172 0v.586h-.732A2.346 2.346 0 0 0 0 3.516v9.14A2.346 2.346 0 0 0 2.344 15h4.482a.586.586 0 1 0 0-1.172H2.344a1.173 1.173 0 0 1-1.172-1.172v-9.14c0-.647.526-1.172 1.172-1.172h.732v.586a.586.586 0 1 0 1.172 0v-.586h2.637v.586a.586.586 0 1 0 1.172 0v-.586h2.666v.586a.586.586 0 1 0 1.171 0v-.586h.762c.646 0 1.172.525 1.172 1.172v3.34a.586.586 0 1 0 1.172 0v-3.34a2.346 2.346 0 0 0-2.344-2.344z" fill="#333"/><path d="M11.455 7.91a3.549 3.549 0 0 0-3.545 3.545A3.549 3.549 0 0 0 11.455 15 3.549 3.549 0 0 0 15 11.455a3.549 3.549 0 0 0-3.545-3.545zm0 5.918a2.376 2.376 0 0 1-2.373-2.373 2.376 2.376 0 0 1 2.373-2.373 2.376 2.376 0 0 1 2.373 2.373 2.376 2.376 0 0 1-2.373 2.373z" fill="#333"/><path d="M12.305 10.87h-.264v-.616a.586.586 0 1 0-1.172 0v1.201c0 .324.263.586.586.586h.85a.586.586 0 1 0 0-1.172zM8.76 6.738a.586.586 0 1 0 0-1.172.586.586 0 0 0 0 1.172zM6.21 9.287a.586.586 0 1 0 0-1.172.586.586 0 0 0 0 1.172zM3.662 6.738a.586.586 0 1 0 0-1.172.586.586 0 0 0 0 1.172zm0 2.549a.586.586 0 1 0 0-1.172.586.586 0 0 0 0 1.172zm0 2.549a.586.586 0 1 0 0-1.172.586.586 0 0 0 0 1.172zm2.548 0a.586.586 0 1 0 .001-1.172.586.586 0 0 0 0 1.172zm0-5.098a.586.586 0 1 0 0-1.172.586.586 0 0 0 0 1.172z" fill="#333"/></svg>