<svg width="48" height="53" viewBox="0 0 48 53" fill="none" xmlns="http://www.w3.org/2000/svg"><g clip-path="url(#a)" fill="#000"><path d="M4.528 29.642c-.5 0-.905.402-.905.899v3.592c0 .497.405.899.905.899s.906-.402.906-.898V30.54a.902.902 0 0 0-.906-.899zm3.622 1.797c-.5 0-.905.402-.905.898v3.593c0 .496.405.898.906.898.5 0 .905-.402.905-.898v-3.593a.902.902 0 0 0-.905-.898zm33.032 4.821a.91.91 0 0 0-1.25.276.895.895 0 0 0 .236 1.212 5.363 5.363 0 0 1 1.472 7.48c-1.676 2.469-5.053 3.122-7.541 1.46a5.363 5.363 0 0 1-1.473-7.48 5.447 5.447 0 0 1 4.504-2.379c.5 0 .906-.402.906-.898a.902.902 0 0 0-.906-.898c-4.001 0-7.244 3.219-7.244 7.187 0 3.968 3.246 7.185 7.247 7.185 4 0 7.243-3.22 7.243-7.187a7.168 7.168 0 0 0-3.194-5.958z"/><path d="M47.571 39.234a10.8 10.8 0 0 0-5.913-6.807V12.575a.896.896 0 0 0-.444-.773L21.29.125a.909.909 0 0 0-.921 0L.445 11.802c-.02.011-.033.027-.051.04-.018.011-.035.026-.053.04a.924.924 0 0 0-.2.22c0 .006-.012.01-.015.015v.007a.875.875 0 0 0-.102.294c0 .027-.008.052-.012.079-.003.027-.012.052-.012.079V35.93c0 .318.169.612.445.773l19.924 11.678a.83.83 0 0 0 .073.03c.025.012.05.023.076.033.2.083.423.083.622 0a.648.648 0 0 0 .078-.033c.023-.011.048-.017.072-.03l5.408-3.17c1.664 5.717 7.685 9.014 13.45 7.363 5.763-1.65 9.087-7.622 7.423-13.34zM20.829 1.941l4.71 2.76-6.983 4.093a.894.894 0 0 0-.32 1.23.91.91 0 0 0 1.242.317l7.841-4.592 4.71 2.76-18.144 10.63-4.709-2.76 7.587-4.446a.894.894 0 0 0 .32-1.23.91.91 0 0 0-1.241-.317l-8.445 4.95-4.71-2.76L20.828 1.94zm-7.85 18.756v5.998l-4.678-2.742v-5.998l4.679 2.742zM26.622 39.44c-.241.906-.361 1.84-.358 2.777 0 .376.02.75.06 1.125l-4.588 2.691v-2.918a.902.902 0 0 0-.906-.898c-.5 0-.905.402-.905.898v2.917L1.81 35.418V14.15l4.68 2.742v7.57c0 .319.169.614.445.775l6.49 3.805a.91.91 0 0 0 1.366-.774v-6.511l5.132 3.008v14.757c0 .496.405.898.905.898s.906-.402.906-.898V24.766l16.413-9.62a.895.895 0 0 0 .32-1.231.91.91 0 0 0-1.241-.317L20.829 23.21l-5.162-3.026L33.81 9.549l6.037 3.539v18.71c-5.78-1.512-11.702 1.91-13.226 7.643zM37.13 51.2c-5.002 0-9.057-4.023-9.057-8.983 0-4.961 4.055-8.983 9.056-8.983 5.002 0 9.056 4.022 9.056 8.983-.005 4.958-4.057 8.976-9.056 8.982z"/><path d="M40.465 39.787a.913.913 0 0 0-1.259 0l-3.434 3.406-.718-.712a.91.91 0 0 0-1.28.023.894.894 0 0 0 0 1.248l1.358 1.348c.354.35.927.35 1.28 0l4.076-4.042a.894.894 0 0 0-.023-1.271z"/></g><defs><clipPath id="a"><path fill="#fff" d="M0 0h48v53H0z"/></clipPath></defs></svg>