<svg viewBox="0 0 20 20" fill="none" xmlns="http://www.w3.org/2000/svg"><g clip-path="url(#a)" fill="#ACACAC"><path d="M18.895 1.977c-.722-.73-1.59-1.114-2.514-1.114h-.044c-.88.012-1.744.386-2.432 1.054l-.007.006-8.934 9.083c-.893.903-.894 2.215 0 3.118.433.439.986.68 1.557.68.577 0 1.134-.242 1.57-.682l6.174-6.308a.781.781 0 0 0-1.116-1.093l-6.172 6.305a.656.656 0 0 1-.456.216c-.155 0-.305-.073-.447-.216-.41-.416-.136-.783.002-.923L15 3.032c.852-.823 1.945-.806 2.785.044.996 1.007.725 2.182.015 2.9a.781.781 0 0 0 1.11 1.099c.685-.693 1.073-1.574 1.09-2.48.02-.948-.373-1.878-1.104-2.618z"/><path d="M16.441 8.503a.781.781 0 0 0-1.104.017l-7.709 7.962c-.697.704-1.58 1.093-2.486 1.093-.906 0-1.765-.385-2.485-1.112-1.684-1.704-1.214-3.704 0-4.931l7.697-7.695a.781.781 0 0 0-1.105-1.105l-7.698 7.697-.003.003c-.965.975-1.515 2.205-1.546 3.463-.034 1.342.5 2.61 1.545 3.666 1.005 1.016 2.281 1.576 3.594 1.576h.001c1.328 0 2.606-.554 3.6-1.56l7.717-7.97a.781.781 0 0 0-.018-1.104z"/></g><defs><clipPath id="a"><path fill="#fff" d="M0 0h20v20H0z"/></clipPath></defs></svg>