<svg viewBox="0 0 15 16" fill="none" xmlns="http://www.w3.org/2000/svg"><path d="M12.49 4.387a1.602 1.602 0 0 0-1.538-1.16 1.6 1.6 0 0 0-1.538 1.16H0v.879h9.414c.191.669.808 1.16 1.538 1.16s1.347-.491 1.538-1.16H15v-.879h-2.51zm-1.538 1.16a.722.722 0 1 1 .002-1.443.722.722 0 0 1-.002 1.443zM2.817 6.903c-.73 0-1.347.491-1.538 1.16H0v.88h1.279c.191.668.808 1.16 1.538 1.16s1.347-.492 1.538-1.16H15v-.88H4.355a1.603 1.603 0 0 0-1.538-1.16zm0 2.32a.722.722 0 1 1 .002-1.443.722.722 0 0 1-.002 1.444zm4.929 1.357c-.73 0-1.346.49-1.538 1.16H0v.878h6.208a1.6 1.6 0 0 0 3.076 0H15v-.879H9.284a1.602 1.602 0 0 0-1.538-1.16zm0 2.32a.722.722 0 1 1 .002-1.444.722.722 0 0 1-.002 1.444z" fill="#000"/></svg>