<svg width="21" height="25" viewBox="0 0 21 25" fill="none" xmlns="http://www.w3.org/2000/svg"><path d="M9.072 4.545a.907.907 0 0 0-.127.012H.91a.908.908 0 0 0-.91.909v18.626c0 .502.407.908.909.908h14.083a.908.908 0 0 0 .908-.908V11.519a.908.908 0 0 0-.342-.867L9.801 4.895a.908.908 0 0 0-.73-.35zm-7.255 1.83h6.36v4.85a.91.91 0 0 0 .261.797l.008.007.012.011a.908.908 0 0 0 .777.24h4.848v10.903H1.817V6.374zm8.177 1.284l2.804 2.804H9.994V7.659z" fill="#222"/><path d="M13.615 0a.897.897 0 0 0-.126.014H5.452A.92.92 0 0 0 4.81.28a.92.92 0 0 0-.267.643V3.42h1.818V1.83h6.36v3.71l2.195 2.196h3.71V18.64h-1.59v1.817h2.499a.92.92 0 0 0 .642-.266.92.92 0 0 0 .267-.642V6.976a.927.927 0 0 0-.343-.868L14.344.351a.924.924 0 0 0-.73-.35zm.922 3.116l2.804 2.804h-2.804V3.116z" fill="#BFBFBF"/></svg>