<svg width="12" height="14" viewBox="0 0 12 14" fill="none" xmlns="http://www.w3.org/2000/svg"><path d="M6 4.998c-.347 0-.593.146-.593.363v2.944c0 .185.246.37.593.37.331 0 .601-.185.601-.37V5.36c0-.217-.27-.363-.6-.363zm0-1.816c-.354 0-.632.255-.632.548 0 .294.278.557.632.557.347 0 .624-.263.624-.557 0-.293-.277-.548-.624-.548z" fill="#000"/><path d="M6 0C2.684 0 0 2.69 0 6.012a6.012 6.012 0 0 0 4.184 5.732L5.55 13.76a.545.545 0 0 0 .902 0l1.365-2.016A6.012 6.012 0 0 0 12 6.012 6.003 6.003 0 0 0 6 0zm1.327 10.749a.547.547 0 0 0-.305.22L6 12.478l-1.022-1.51a.546.546 0 0 0-.305-.22A4.92 4.92 0 0 1 6 1.094a4.92 4.92 0 0 1 1.327 9.655z" fill="#000"/></svg>