<svg width="24" height="25" viewBox="0 0 24 25" fill="none" xmlns="http://www.w3.org/2000/svg"><path d="M23.348 5.516L11.938.036a.37.37 0 0 0-.32 0L.208 5.516a.366.366 0 0 0-.208.33v13.308c0 .14.08.269.208.33l11.41 5.48a.37.37 0 0 0 .32 0l11.41-5.48a.366.366 0 0 0 .208-.33V5.846a.367.367 0 0 0-.208-.33zM11.778.773L22.34 5.846l-3.062 1.47a.366.366 0 0 0-.062-.038L8.725 2.238 11.778.774zm-3.884 1.88l10.548 5.066-2.16 1.037L5.737 3.693l2.156-1.04zm10.795 5.76v3.836l-2.018.969V9.383l2.018-.97zm4.13 10.511L12.147 24.05V11.556l2.546-1.223a.365.365 0 0 0 .171-.49.369.369 0 0 0-.491-.17l-2.594 1.246-1.02-.49a.369.369 0 0 0-.492.17.365.365 0 0 0 .171.49l.973.467V24.05L.736 18.924V6.43l8.128 3.904a.368.368 0 0 0 .492-.17.365.365 0 0 0-.172-.49l-7.97-3.827L4.873 4.09 15.929 9.4l.005.007V13.8a.366.366 0 0 0 .368.367c.055 0 .11-.012.16-.037l2.755-1.323a.366.366 0 0 0 .208-.33V8.06l3.395-1.63v12.494z" fill="#ACACAC"/></svg>