<svg width="20" height="18" viewBox="0 0 20 18" fill="none" xmlns="http://www.w3.org/2000/svg"><path d="M19.8 7.405L10.965.125a.554.554 0 0 0-.586-.073.553.553 0 0 0-.315.5v3.836c-4.288.156-7.235 1.669-8.767 4.5C-.022 11.333-.01 14.226.002 16.14v.442a.556.556 0 0 0 .554.553.546.546 0 0 0 .48-.278c2.991-5.275 5.455-5.53 9.025-5.542v3.824c0 .213.123.41.32.5.196.09.421.062.59-.073l8.828-7.304a.557.557 0 0 0 0-.857zm-8.629 6.558v-3.201a.56.56 0 0 0-.553-.553c-2.23 0-3.939.061-5.599.836-1.434.668-2.676 1.803-3.902 3.586.05-1.627.263-3.57 1.152-5.213 1.41-2.607 4.14-3.898 8.349-3.935a.555.555 0 0 0 .55-.554V1.724l7.406 6.111-7.403 6.128z" fill="#000"/></svg>