<svg viewBox="0 0 24 25" fill="none" xmlns="http://www.w3.org/2000/svg"><g clip-path="url(#a)" fill="#000"><path d="M15.392 13.427c.263-.076.879-.255 1.165-1.096l.59-1.735.237.08a.21.21 0 0 0 .264-.13l.317-.93a.209.209 0 0 0-.13-.264l-7.645-2.6a.21.21 0 0 0-.265.13l-.316.93a.21.21 0 0 0 .13.265l.237.081-.6 1.766c-.284.834-.096 1.115.26 1.541l1.547 1.853-.173.507c-.592.128-2.139.465-2.347.525-.263.076-.879.255-1.165 1.097L6.99 16.94l-.237-.081a.21.21 0 0 0-.265.13l-.316.93a.21.21 0 0 0 .13.265l7.646 2.6a.21.21 0 0 0 .264-.13l.316-.93a.21.21 0 0 0-.13-.265l-.237-.081.518-1.525c.284-.833.096-1.115-.26-1.54l-1.546-1.853.172-.508c.592-.128 2.139-.465 2.347-.525zm-3.23 1.352l1.681 2.014c.13.155.198.24.216.316.023.093-.007.257-.09.502l-.519 1.525-5.749-1.955.508-1.493c.16-.471.45-.555.663-.617.165-.047 1.588-.36 2.505-.558a.375.375 0 0 0 .275-.246l.31-.907a.376.376 0 0 0-.068-.362l-1.677-2.008-.005-.006c-.13-.155-.198-.24-.216-.316-.023-.093.007-.257.09-.502l.6-1.766 5.75 1.955-.59 1.734c-.16.471-.45.555-.662.617-.166.048-1.59.36-2.505.558a.376.376 0 0 0-.276.246l-.309.908a.376.376 0 0 0 .067.36z"/><path d="M16.703 21.936c-.168.096-.34.187-.514.271a.952.952 0 0 0-.081.045.893.893 0 0 0-.083.034 9.422 9.422 0 0 1-2.342.74l-.032.004c-.19.033-.384.061-.575.083l-.007.001a9.73 9.73 0 0 1-1.067.059c-4.145 0-7.68-2.66-8.99-6.362l-.058-.17a9.495 9.495 0 0 1-.484-3c0-1.05.171-2.062.486-3.008l.02-.062a9.13 9.13 0 0 1 .087-.241 9.572 9.572 0 0 1 6.65-5.943l.006-.002.137-.032.015-.005a9.53 9.53 0 0 1 2.082-.24l.008.98c.003.305.195.393.427.196l2.07-1.755a.445.445 0 0 0-.006-.708l-2.1-1.72c-.235-.193-.425-.102-.422.203l.008.978A11.284 11.284 0 0 0 3.97 5.608c-.21.21-.41.427-.601.65l-.004.003-.02.025a11.265 11.265 0 0 0-2.697 7.022 11.296 11.296 0 0 0 0 .754l.005.05a11.26 11.26 0 0 0 2.354 6.468l.014.02c.14.18.289.36.44.533l.031.031a11.276 11.276 0 0 0 6.593 3.675l.021.004.016.002c.616.102 1.244.155 1.88.155 1.675 0 3.288-.356 4.795-1.059a.922.922 0 0 0 .093-.05.885.885 0 0 0 .1-.042c.206-.1.413-.21.613-.323a.914.914 0 0 0-.9-1.59zm3.215-13.612a.912.912 0 1 0 1.516-1.02c-.128-.19-.264-.38-.404-.562a.913.913 0 1 0-1.45 1.11c.117.153.23.312.338.472zm1.16 2.399c.059.183.113.371.16.559a.914.914 0 0 0 1.77-.451 11.394 11.394 0 0 0-.19-.665.913.913 0 1 0-1.74.557zm-.582 9.067a.913.913 0 0 0-1.288.093c-.127.146-.259.29-.394.428a.913.913 0 1 0 1.307 1.277c.16-.165.318-.336.469-.51a.914.914 0 0 0-.094-1.289zm1.977-6.743a.913.913 0 0 0-.94.886 9.286 9.286 0 0 1-.035.58.913.913 0 1 0 1.819.168 11.5 11.5 0 0 0 .042-.693.914.914 0 0 0-.886-.94zm-.406 3.543a.913.913 0 0 0-1.184.517c-.07.18-.147.36-.228.535a.913.913 0 1 0 1.657.768c.097-.209.189-.423.272-.637a.913.913 0 0 0-.517-1.184zM18.956 5.791a.913.913 0 0 0-.19-1.277c-.185-.137-.376-.27-.57-.395a.913.913 0 0 0-.995 1.531c.162.105.322.217.478.332a.91.91 0 0 0 1.277-.19z"/></g><defs><clipPath id="a"><path fill="#000" d="M0 .616h24v24.015H0z"/></clipPath></defs></svg>