<svg viewBox="0 0 50 50" fill="none" xmlns="http://www.w3.org/2000/svg"><path d="M47.498 20.928a.916.916 0 0 0-.916.915v3.263a3.4 3.4 0 0 1-3.396 3.396h-5.218a.916.916 0 0 0-.648.268l-6.326 6.326v-5.679a.915.915 0 0 0-.916-.915H16.97a3.4 3.4 0 0 1-3.396-3.396v-13.85a3.4 3.4 0 0 1 3.396-3.395h26.216a3.4 3.4 0 0 1 3.396 3.396v3.262a.915.915 0 1 0 1.831 0v-3.262a5.232 5.232 0 0 0-5.227-5.227H16.97a5.232 5.232 0 0 0-5.227 5.227v11.762H5.08a3.546 3.546 0 0 0-3.542 3.541v8.437a3.546 3.546 0 0 0 3.542 3.542h2.8l4.537 4.538a.916.916 0 0 0 1.564-.648v-3.89h7.07a3.545 3.545 0 0 0 3.54-3.542v-4.664h4.572v6.974a.915.915 0 0 0 1.563.647l7.62-7.621h4.84a5.233 5.233 0 0 0 5.227-5.227v-3.263a.916.916 0 0 0-.915-.915zM22.76 34.997c0 .944-.767 1.71-1.71 1.71h-7.986a.916.916 0 0 0-.915.916v2.596l-3.244-3.243a.916.916 0 0 0-.647-.268h-3.18c-.943 0-1.71-.767-1.71-1.711V26.56c0-.943.767-1.71 1.71-1.71h6.664v.256a5.233 5.233 0 0 0 5.227 5.227h5.791v4.664z" fill="#000"/><path d="M39.005 12.03H21.152a.916.916 0 0 0 0 1.83h17.853a.915.915 0 1 0 0-1.83zm.915 5.86a.916.916 0 0 0-.915-.916H21.152a.916.916 0 0 0 0 1.831h17.853c.505 0 .915-.41.915-.915zm-18.768 4.028a.916.916 0 0 0 0 1.83h10.3a.915.915 0 1 0 0-1.83h-10.3zm26.346-4.652a.917.917 0 0 0-.916.915c0 .505.411.916.916.916a.917.917 0 0 0 .915-.916.917.917 0 0 0-.915-.915z" fill="#000"/></svg>