<svg width="25" height="26" viewBox="0 0 25 26" fill="none" xmlns="http://www.w3.org/2000/svg"><g clip-path="url(#a)" fill="#000"><path d="M6.136 9.97a3.842 3.842 0 0 0 3.834 3.835 3.842 3.842 0 0 0 3.835-3.835A3.842 3.842 0 0 0 9.97 6.136 3.842 3.842 0 0 0 6.136 9.97zm6.649 0a2.816 2.816 0 0 1-2.815 2.814A2.816 2.816 0 0 1 7.156 9.97 2.816 2.816 0 0 1 9.97 7.156a2.816 2.816 0 0 1 2.815 2.814z"/><path d="M4.572 18.116c-2.358-2.979-3.552-5.624-3.552-7.859v-.292c0-4.936 4.014-8.95 8.95-8.95a8.911 8.911 0 0 1 8.884 7.869l1.087.989C19.889 4.423 15.44 0 9.97 0 4.474 0 0 4.475 0 9.97v.292c0 2.794 1.635 6.09 4.854 9.791a43.771 43.771 0 0 0 4.604 4.532v-1.348c-1.133-1.01-3.117-2.886-4.886-5.121zm14.246.856h-2.045v2.045h2.045v-2.045z"/><path d="M17.767 12.051l-7.238 6.608.687.753.195-.18.856-.783v4.449a2.264 2.264 0 0 0 2.26 2.26h6.475a2.264 2.264 0 0 0 2.26-2.26V18.45l.856.784.195.18.687-.754-7.233-6.608zm4.48 5.695v5.152c0 .682-.558 1.24-1.24 1.24h-6.475c-.681 0-1.24-.558-1.24-1.24v-5.377l.17-.154 3.967-3.619.343-.313.344.313 3.967 3.619.17.154v.225h-.006z"/></g><defs><clipPath id="a"><path fill="#fff" d="M0 0h25v25.159H0z"/></clipPath></defs></svg>