<svg width="60" height="56" viewBox="0 0 60 56" fill="none" xmlns="http://www.w3.org/2000/svg"><path d="M53 14H8c-1.1 0-2 .9-2 2v31h49V16c0-1.1-.9-2-2-2z" fill="#fff" stroke="#333" stroke-miterlimit="10"/><path d="M6 46V16c0-1.1.9-2 2-2h45c1.1 0 2 .9 2 2v30" stroke="#333" stroke-width="2" stroke-miterlimit="10"/><path d="M59 4v24.05c0 1.63-1.32 2.95-2.95 2.95H37.87l-8.09 7.73c-.58.75-1.78.33-1.78-.62V31h-4.98A3.03 3.03 0 0 1 20 27.98V4c0-1.66 1.34-3 3-3h33c1.66 0 3 1.34 3 3z" fill="#fff" stroke="#333" stroke-width="2" stroke-miterlimit="10"/><path d="M35 16l4 4 9-11" stroke="#333" stroke-width="2" stroke-miterlimit="10" stroke-linecap="round" stroke-linejoin="round"/><path d="M47 16v8H30.91V8H44" stroke="#333" stroke-width="2" stroke-miterlimit="10" stroke-linecap="round" stroke-linejoin="round"/><path d="M2 17v-1c0-3.31 2.69-6 6-6h9" stroke="#333" stroke-width="2" stroke-miterlimit="10"/><path d="M59 46H37l-1 1H24l-1-1H1v2c0 1.65 1.35 3 3 3h52c1.66 0 3-1.34 3-3v-2z" fill="#fff" stroke="#333" stroke-width="2" stroke-miterlimit="10"/><path d="M11 55h16" stroke="#333" stroke-width="2" stroke-miterlimit="10"/></svg>