<svg viewBox="0 0 24 24" fill="none" xmlns="http://www.w3.org/2000/svg"><path d="M23.047 0H.39A.39.39 0 0 0 0 .39v22.657a.39.39 0 0 0 .39.39h22.657a.39.39 0 0 0 .39-.39V.39a.39.39 0 0 0-.39-.391zM3.907 6.533L6.64 9.268V19.53H3.906V6.533zm3.515 3.516l2.344 2.344v7.138H7.422V10.05zm3.125 3.125l2.344 2.344v4.013h-2.344v-6.357zm3.125 3.125L16.9 19.53h-3.23V16.3zm4.334 3.232L3.906 5.43V3.906h1.792L19.53 17.74v1.791h-1.525zm1.525-2.896l-2.734-2.734V3.906h2.734v12.73zm-3.515-3.516l-2.344-2.343v-6.87h2.344v9.213zM12.89 9.995L10.547 7.65V3.906h2.344v6.089zM9.766 6.87L6.802 3.906h2.964V6.87zm9.994-3.745H3.677L1.334.781h20.77L19.76 3.125zm-16.635.552V19.76L.781 22.104V1.334l2.344 2.343zm.552 16.636H19.76l2.344 2.343H1.334l2.343-2.343zm16.636-.553V3.677l2.343-2.343v20.77l-2.343-2.344z" fill="#ACACAC"/><path d="M4.297 1.563h-.781v.78h.78v-.78zm15.234 0h-.781v.78h.781v-.78zM4.297 21.094h-.781v.781h.78v-.781zm15.625 0h-.781v.781h.78v-.781zM2.344 3.516h-.781v.78h.78v-.78zm0 15.624h-.781v.782h.78v-.781zM21.875 3.516h-.781v.78h.781v-.78zm0 15.624h-.781v.782h.781v-.781z" fill="#000"/></svg>