<svg id="palet_svg" width="25" height="25" viewBox="0 0 25 25" fill="none" xmlns="http://www.w3.org/2000/svg"><path d="M25 20v-.833a.834.834 0 0 0-.833-.834h-2.16a1.23 1.23 0 0 0 .076-.416v-7.5a1.24 1.24 0 0 0-.325-.834 1.24 1.24 0 0 0 .325-.833v-7.5c0-.69-.56-1.25-1.25-1.25h-7.5a1.24 1.24 0 0 0-.833.325A1.24 1.24 0 0 0 11.667 0h-7.5c-.69 0-1.25.56-1.25 1.25v7.5c0 .309.117.606.325.833a1.24 1.24 0 0 0-.325.834v7.5c.001.142.027.283.076.416H.833a.834.834 0 0 0-.833.834V20c0 .46.373.833.833.833V22.5a.834.834 0 0 0-.833.833v.834c0 .46.373.833.833.833h23.334c.46 0 .833-.373.833-.833v-.834a.834.834 0 0 0-.833-.833v-1.667c.46 0 .833-.373.833-.833zM12.917 1.25c0-.23.186-.416.416-.417h7.5c.23 0 .417.187.417.417v.417h-8.333V1.25zm0 1.25h5.602l-5.602 3.424V2.5zm0 4.4l7.2-4.4h1.133v.6l-7.2 4.4h-1.133v-.6zm8.333-2.824V7.5h-5.602l5.602-3.424zm-8.333 4.257h8.333v.417c0 .23-.187.416-.417.417h-7.5a.417.417 0 0 1-.416-.417v-.417zm0 2.084c0-.23.186-.417.416-.417h7.5c.23 0 .417.187.417.417v.416h-8.333v-.416zm0 1.25h5.602l-5.602 3.423v-3.423zm0 4.4l7.2-4.4h1.133v.6l-7.2 4.4h-1.133v-.6zm8.333-2.824v3.424h-5.602l5.602-3.424zM12.917 17.5h8.333v.417c0 .23-.187.416-.417.416h-7.5a.417.417 0 0 1-.416-.416V17.5zM3.75 1.25c0-.23.187-.416.417-.417h7.5c.23 0 .416.187.416.417v.417H3.75V1.25zm0 1.25h5.602L3.75 5.924V2.5zm0 4.4l7.2-4.4h1.133v.6l-7.2 4.4H3.75v-.6zm8.333-2.824V7.5H6.481l5.602-3.424zM3.75 8.333h8.333v.417c0 .23-.186.416-.416.417h-7.5a.417.417 0 0 1-.417-.417v-.417zm0 2.084c0-.23.187-.417.417-.417h7.5c.23 0 .416.187.416.417v.416H3.75v-.416zm0 1.25h5.602L3.75 15.09v-3.423zm0 4.4l7.2-4.4h1.133v.6l-7.2 4.4H3.75v-.6zm8.333-2.824v3.424H6.481l5.602-3.424zM3.75 17.5h8.333v.417c0 .23-.186.416-.416.416h-7.5a.417.417 0 0 1-.417-.416V17.5zm20.417 6.667H.833v-.834h23.334v.834zM1.667 22.5v-1.667h2.5V22.5h-2.5zM5 22.5v-1.667h5.417V22.5H5zm6.25 0v-1.667h2.5V22.5h-2.5zm3.333 0v-1.667H20V22.5h-5.417zm6.25 0v-1.667h2.5V22.5h-2.5zM23.75 20H.833v-.833h23.334V20h-.417z" fill="#000"/></svg>