<svg width="40" height="40" viewBox="0 0 40 40" fill="none" xmlns="http://www.w3.org/2000/svg"><path d="M39.5 33.738a5.762 5.762 0 0 1-5.762 5.762H6.262A5.762 5.762 0 0 1 .5 33.738V8.348L8.348.5h25.39A5.762 5.762 0 0 1 39.5 6.262v27.476z" fill="#fff" stroke="#ACACAC"/><path opacity=".2" d="M0 12.503V8.141h4.342L0 12.503z" fill="#333"/><path d="M0 8.14h5.427c1.493 0 2.714-1.2 2.714-2.692V0L0 8.14z" fill="#ACACAC"/><path d="M6.703 26.905V13.808h6.483c.615 0 1.162.1 1.64.301.477.201.873.48 1.187.839.314.358.552.785.716 1.281a5.26 5.26 0 0 1 .245 1.65 5.92 5.92 0 0 1-.236 1.695c-.157.528-.39.984-.697 1.367a3.19 3.19 0 0 1-1.178.904c-.477.22-1.036.33-1.677.33H8.833v4.73h-2.13zm2.13-11.137v4.41h3.618c.83 0 1.435-.186 1.819-.556.383-.37.574-.952.574-1.744 0-.753-.204-1.294-.612-1.62-.409-.327-1.002-.49-1.78-.49h-3.62zm15.812-1.622l2.054-.565v11.157a4.86 4.86 0 0 0 .132 1.168c.05.15.107.31.17.48.063.17.144.343.245.519h-2.167a2.86 2.86 0 0 1-.227-.509 7.916 7.916 0 0 1-.113-.603 5.406 5.406 0 0 1-1.29.952 3.262 3.262 0 0 1-1.555.386c-.654 0-1.228-.107-1.725-.32a3.544 3.544 0 0 1-1.253-.886 3.697 3.697 0 0 1-.763-1.348 5.425 5.425 0 0 1-.255-1.686v-.905c0-1.595.421-2.795 1.263-3.6.842-.803 2.067-1.205 3.675-1.205.615 0 1.218.12 1.81.358v-3.393zm0 5.296a2.817 2.817 0 0 0-.951-.34 5.864 5.864 0 0 0-1.009-.093c-.502 0-.926.069-1.272.207a2.183 2.183 0 0 0-.848.584c-.22.252-.377.553-.471.905a4.436 4.436 0 0 0-.141 1.15v.697c0 .351.025.694.075 1.027.05.333.148.625.292.876s.342.455.594.612c.25.157.577.236.98.236.264 0 .524-.044.782-.132a3.81 3.81 0 0 0 .744-.349 5.137 5.137 0 0 0 1.225-1.027v-4.353zm4.675-3.091c0-.351.047-.694.141-1.027.094-.332.242-.628.443-.886.2-.257.465-.464.791-.621.327-.157.717-.236 1.169-.236.213 0 .455.022.726.066.27.044.505.098.706.16v1.621h-.754c-.39 0-.681.107-.876.32-.195.214-.292.51-.292.886v.773h1.828l-.546 1.696h-1.282v7.802H29.32v-7.802h-1.187v-1.696h1.187V16.35z" fill="#E5E5E5"/><path d="M6.703 26.436V13.338h6.483c.615 0 1.162.1 1.64.302.477.2.873.48 1.187.838.314.358.552.786.716 1.282a5.26 5.26 0 0 1 .245 1.649 5.92 5.92 0 0 1-.236 1.696c-.157.527-.39.983-.697 1.366a3.2 3.2 0 0 1-1.178.905c-.477.22-1.036.33-1.677.33H8.833v4.73h-2.13zm2.13-11.138v4.41h3.618c.83 0 1.435-.185 1.819-.556.383-.37.574-.952.574-1.744 0-.753-.204-1.293-.612-1.62-.409-.327-1.002-.49-1.78-.49h-3.62zm15.812-1.621l2.054-.566v11.157a4.86 4.86 0 0 0 .132 1.168c.05.151.107.311.17.48.063.17.144.343.245.52h-2.167a2.854 2.854 0 0 1-.227-.51 7.905 7.905 0 0 1-.113-.603 5.406 5.406 0 0 1-1.29.952 3.262 3.262 0 0 1-1.555.386c-.654 0-1.228-.107-1.725-.32a3.544 3.544 0 0 1-1.253-.886 3.697 3.697 0 0 1-.763-1.347 5.425 5.425 0 0 1-.255-1.687v-.904c0-1.596.421-2.796 1.263-3.6.842-.804 2.067-1.206 3.675-1.206.615 0 1.218.12 1.81.358v-3.392zm0 5.295a2.82 2.82 0 0 0-.951-.339 5.863 5.863 0 0 0-1.009-.094c-.502 0-.926.07-1.272.207a2.183 2.183 0 0 0-.848.584c-.22.252-.377.553-.471.905a4.435 4.435 0 0 0-.141 1.15v.697c0 .352.025.694.075 1.027.05.333.148.625.292.876.144.252.342.456.594.613.25.157.577.235.98.235.264 0 .524-.044.782-.132.257-.087.505-.204.744-.348a5.137 5.137 0 0 0 1.225-1.027v-4.354zm4.675-3.09c0-.352.047-.694.141-1.027.094-.333.242-.628.443-.886.2-.257.465-.465.791-.622.327-.157.717-.236 1.169-.236.213 0 .455.022.726.066.27.045.505.098.706.16v1.621h-.754c-.39 0-.681.107-.876.32-.195.214-.292.51-.292.886v.773h1.828l-.546 1.696h-1.282v7.802H29.32v-7.802h-1.187v-1.696h1.187v-1.055z" fill="#333"/></svg>