<svg viewBox="0 0 30 29" fill="none" xmlns="http://www.w3.org/2000/svg"><g clip-path="url(#a)" fill="#000"><path d="M12.661 10.608h5.187a.427.427 0 0 0 0-.852H12.66a.427.427 0 0 0 0 .852zm-1.499 9.342a1.235 1.235 0 1 0 .001 2.47 1.235 1.235 0 0 0 0-2.47zm8.298 2.453a1.235 1.235 0 1 0-.396-2.438 1.235 1.235 0 0 0 .396 2.438z"/><path d="M20.491 7.363H10.046a2.875 2.875 0 0 0-2.872 2.872v12.174a2.873 2.873 0 0 0 2.695 2.862l-1.905 3.732a.426.426 0 1 0 .76.387l.843-1.649h11.322c.08 0 .152-.022.215-.06l.765 1.69a.428.428 0 0 0 .78-.351l-1.707-3.778a2.874 2.874 0 0 0 2.428-2.835v-12.17a2.886 2.886 0 0 0-2.879-2.874zM10 26.89l.82-1.608h9.195l.726 1.608H10zm12.082-4.48c0 .88-.714 1.591-1.59 1.591H10.045a1.594 1.594 0 0 1-1.593-1.59V10.236c0-.879.714-1.593 1.593-1.593H20.49c.88 0 1.591.714 1.591 1.593V22.41z"/><path d="M19.046 11.74h-7.557c-.903 0-1.637.734-1.637 1.637v3.3c0 .904.734 1.638 1.637 1.638h7.557c.903 0 1.637-.734 1.637-1.637v-3.3a1.636 1.636 0 0 0-1.637-1.637zm.785 4.938a.784.784 0 0 1-.785.784h-7.557a.784.784 0 0 1-.784-.784v-3.3c0-.434.35-.785.784-.785h7.557c.433 0 .785.351.785.784v3.3z"/><path d="M15 1C6.729 1 0 7.729 0 16c0 4.111 1.63 7.947 4.59 10.802a.485.485 0 0 0 .674-.698A13.92 13.92 0 0 1 .969 16C.969 8.264 7.264 1.969 15 1.969c7.736 0 14.032 6.295 14.032 14.031 0 3.906-1.647 7.663-4.519 10.315a.485.485 0 0 0 .659.712A15.046 15.046 0 0 0 30.002 16C30 7.729 23.272 1 15 1z"/></g><defs><clipPath id="a"><path fill="#000" d="M0 .258h30v28.643H0z"/></clipPath></defs></svg>