<svg viewBox="0 0 15 15" fill="none" xmlns="http://www.w3.org/2000/svg"><path d="M13.682 3.999h-1.319V.894a.44.44 0 0 0-.44-.44H3.106a.44.44 0 0 0-.439.44v3.105H1.318A1.32 1.32 0 0 0 0 5.317v4.395a1.32 1.32 0 0 0 1.318 1.318h1.348v3.076c0 .243.197.44.44.44h8.818a.44.44 0 0 0 .44-.44V11.03h1.318A1.32 1.32 0 0 0 15 9.712V5.317A1.32 1.32 0 0 0 13.682 4zM3.545 1.333h7.94v2.666h-7.94V1.333zM1.318 4.878h12.364a.44.44 0 0 1 .44.44v.439H.878v-.44a.44.44 0 0 1 .44-.44zm10.166 8.789h-7.94V9.272h7.94v4.395zm2.198-3.516h-1.319V8.833a.44.44 0 0 0-.44-.44H3.106a.44.44 0 0 0-.439.44v1.318H1.318a.44.44 0 0 1-.44-.44V6.637h13.243v3.076a.44.44 0 0 1-.44.44z" fill="#000"/><path d="M9.287 10.151H5.742a.44.44 0 1 0 0 .88h3.545a.44.44 0 0 0 0-.88zm0 1.759H5.742a.44.44 0 1 0 0 .878h3.545a.44.44 0 0 0 0-.879z" fill="#000"/></svg>