<svg viewBox="0 0 25 29" fill="none" xmlns="http://www.w3.org/2000/svg"><g clip-path="url(#a)" fill="#000"><path d="M12.322 8.51c-2.524 0-3.684 1.497-3.684 2.506 0 .73.617 1.066 1.122 1.066 1.01 0 .598-1.44 2.506-1.44.935 0 1.683.412 1.683 1.272 0 1.01-1.047 1.59-1.664 2.113-.543.468-1.253 1.235-1.253 2.843 0 .973.262 1.253 1.029 1.253.916 0 1.103-.411 1.103-.766 0-.973.019-1.534 1.047-2.338.505-.393 2.095-1.665 2.095-3.423s-1.59-3.086-3.984-3.086zm-.242 10.904c-.786 0-1.422.654-1.422 1.44 0 .766.617 1.44 1.421 1.44.805 0 1.44-.674 1.44-1.44 0-.786-.654-1.44-1.44-1.44z"/><path d="M22.785 6.247L14.711 1.59a4.437 4.437 0 0 0-4.421 0L2.215 6.247A4.438 4.438 0 0 0 0 10.081v9.307c0 1.577.849 3.046 2.215 3.834l8.074 4.656a4.437 4.437 0 0 0 4.421 0l8.075-4.656A4.439 4.439 0 0 0 25 19.388V10.08a4.436 4.436 0 0 0-2.215-3.834zm.07 13.14c0 .812-.438 1.57-1.142 1.975l-8.075 4.657a2.286 2.286 0 0 1-2.277 0l-8.075-4.657a2.287 2.287 0 0 1-1.14-1.975v-9.306c0-.812.437-1.569 1.141-1.975l8.075-4.657a2.286 2.286 0 0 1 2.277 0l8.075 4.657a2.286 2.286 0 0 1 1.14 1.975v9.306z"/></g><defs><clipPath id="a"><path fill="#000" d="M0 .926h25v27.485H0z"/></clipPath></defs></svg>