<svg width="25" height="25" viewBox="0 0 25 25" fill="none" xmlns="http://www.w3.org/2000/svg"><g clip-path="url(#a)" fill="#000"><path d="M22.977 18.535a.499.499 0 0 0-.64-.294l-5.179 1.904a.495.495 0 1 0 .345.93l5.18-1.903a.495.495 0 0 0 .294-.637zm-6.603 2.427a.499.499 0 0 0-.64-.294l-.219.08a.496.496 0 1 0 .345.931l.219-.08a.496.496 0 0 0 .295-.637zm6.603-4.448a.498.498 0 0 0-.64-.294l-4.092 1.504a.495.495 0 1 0 .344.93l4.094-1.503a.495.495 0 0 0 .294-.637zm0-2a.498.498 0 0 0-.64-.293l-4.092 1.504a.495.495 0 1 0 .344.93l4.094-1.504a.495.495 0 0 0 .294-.637z"/><path d="M24.674 5.44L12.672 1.03a.5.5 0 0 0-.344 0L.326 5.44v.001A.494.494 0 0 0 0 5.906v14.188c0 .208.13.393.326.465l12.002 4.41a.504.504 0 0 0 .344 0l12.002-4.41a.496.496 0 0 0 .326-.465V5.906a.496.496 0 0 0-.326-.465zM12.002 23.793L.996 19.748V6.618l2.241.823v6.009c0 .207.13.393.326.465l5.378 1.976a.504.504 0 0 0 .457-.058.495.495 0 0 0 .214-.407V9.783l2.39.878v13.131zM8.616 9.417v5.297l-4.383-1.61V7.807l4.383 1.61zM5.174 7.091l3.94-1.447 3.94 1.447-3.94 1.448-3.94-1.448zM12.5 9.787l-1.953-.718 4.117-1.513a.496.496 0 0 0 0-.93L9.287 4.65a.5.5 0 0 0-.345 0L3.73 6.565l-1.792-.659L12.5 2.024l10.564 3.882L12.5 9.787zm11.504 9.961l-11.006 4.044v-13.13l11.006-4.045v13.131z"/></g><defs><clipPath id="a"><path fill="#000" d="M0 .844h25v24.015H0z"/></clipPath></defs></svg>