<svg width="20" height="20" viewBox="0 0 20 20" fill="none" xmlns="http://www.w3.org/2000/svg"><path d="M15.333 15.666H4.666a.333.333 0 0 1-.333-.333V4.666c0-.184.15-.333.333-.333h10.667c.184 0 .333.15.333.333v10.667a.333.333 0 0 1-.333.333zM5 15h10V5H5v10z" fill="#333"/><path d="M19.667 10.333H.333a.334.334 0 0 1 0-.667h19.334a.333.333 0 0 1 0 .667z" fill="#333"/><path fill-rule="evenodd" clip-rule="evenodd" d="M19.666 14.667a.333.333 0 0 0-.333.333v4.334h-4.334A.333.333 0 0 0 15 20h5v-5a.333.333 0 0 0-.333-.333zm-5-14.334c0 .184.15.333.333.333h4.334V5a.333.333 0 1 0 .666 0V0h-5a.333.333 0 0 0-.333.333zm-14.332 5c.184 0 .333-.15.333-.333V.666h4.334A.333.333 0 1 0 5 0H0v5c0 .184.149.333.333.333zm5 14.334a.333.333 0 0 0-.333-.333H.667V15a.333.333 0 0 0-.666 0v5h5a.333.333 0 0 0 .333-.333z" fill="#333"/></svg>