<svg width="20" height="20" viewBox="0 0 20 20" fill="none" xmlns="http://www.w3.org/2000/svg"><g clip-path="url(#a)"><path d="M19.154.033L.444 6.146A.646.646 0 0 0 .32 7.317l7.07 4.112c.224.13.503.114.71-.04l1.987-1.476L8.611 11.9a.645.645 0 0 0-.04.71l4.112 7.07a.646.646 0 0 0 1.17-.124L19.968.846a.646.646 0 0 0-.813-.813zm-6.08 17.754L9.9 12.328l3.828-5.153a.645.645 0 0 0-.903-.903L7.672 10.1 2.214 6.926l16.132-5.272-5.272 16.133zm-6.3-3.648L2.49 18.422a.645.645 0 0 1-.912-.912l4.283-4.284a.645.645 0 0 1 .913.913zm-5.66.162a.645.645 0 0 1 0-.913l1.69-1.69a.645.645 0 1 1 .913.912l-1.69 1.69a.645.645 0 0 1-.912 0zm7.188 1.982a.645.645 0 0 1 0 .912l-1.69 1.69a.643.643 0 0 1-.457.19.646.646 0 0 1-.456-1.102l1.69-1.69a.645.645 0 0 1 .913 0z" fill="#000"/></g><defs><clipPath id="a"><path fill="#fff" d="M0 0h20v20H0z"/></clipPath></defs></svg>