<svg viewBox="0 0 24 28" fill="none" xmlns="http://www.w3.org/2000/svg"><path d="M24.188 26.863c-.717 0-1.035-.239-1.481-.557-.478-.35-1.083-.749-2.118-.828l3.026-6.959a.805.805 0 0 0-.398-1.05l-4.03-1.8a.81.81 0 0 0 .24-.558v-5.54a.788.788 0 0 0-.796-.797h-1.625V6.592a.53.53 0 0 0-.525-.525h-.59V.525A.53.53 0 0 0 15.367 0h-2.739a.53.53 0 0 0-.525.525v5.542H7.787a.53.53 0 0 0-.526.525v2.166H5.573a.788.788 0 0 0-.796.796v5.573c0 .191.08.367.191.51L.812 17.5a.795.795 0 0 0-.398 1.051l3.09 7.118a4.87 4.87 0 0 0-1.227.653c-.446.318-.764.557-1.48.557a.788.788 0 0 0-.797.796c0 .446.35.796.796.796 1.226 0 1.895-.477 2.42-.86.446-.318.765-.557 1.481-.557.717 0 1.035.239 1.481.558.526.382 1.179.86 2.42.86 1.227 0 1.896-.478 2.421-.86.446-.319.764-.558 1.481-.558.717 0 1.035.239 1.48.558.526.382 1.18.86 2.421.86 1.226 0 1.895-.478 2.42-.86.446-.319.765-.558 1.481-.558.717 0 1.036.239 1.481.558.526.382 1.179.86 2.42.86a.789.789 0 0 0 .797-.797c-.016-.462-.366-.812-.812-.812zM13.153 1.067h1.672v1.306h-1.672V1.067zm0 2.102h1.672v2.898h-1.672V3.169zM8.328 7.118h7.643v1.64H8.328v-1.64zm-1.959 3.248H17.85v4.73l-5.51-2.469a.779.779 0 0 0-.652 0l-5.319 2.389v-4.65zm-4.187 8.265l9.84-4.395 9.841 4.395-.876 2.006-8.662-3.663a.571.571 0 0 0-.398 0l-8.838 3.743-.907-2.086zm14.22 8.232c-.717 0-1.036-.239-1.482-.557-.525-.382-1.178-.86-2.42-.86-1.226 0-1.895.478-2.42.86-.446.318-.765.557-1.481.557-.717 0-1.035-.239-1.481-.557-.446-.319-1.02-.7-1.943-.812L3.52 21.672l8.615-3.646 8.44 3.566-1.768 4.077c-.016.032-.016.064-.016.095-.35.16-.637.35-.876.542-.478.334-.796.557-1.513.557z" fill="#000"/></svg>