<svg id="meshok_skotch_svg" viewBox="0 0 25 17" fill="none" xmlns="http://www.w3.org/2000/svg">
    <path d="M24.634 0h-6.211a.366.366 0 1 0 0 .733h5.845V10.85h-1.325a.366.366 0 0 0 0 .733h1.69a.366.366 0 0 0 .367-.366V.366A.366.366 0 0 0 24.634 0zm-3.4 10.851H17.01V2.832c0-.846-.914-1.57-2.643-2.094l-.02-.006h2.367a.366.366 0 0 0 0-.732H8.505c-2.21 0-4.29.262-5.861.738C.914 1.262 0 1.986 0 2.832V7.96a.366.366 0 0 0 .732 0V4.045c.444.334 1.084.631 1.912.882 1.57.476 3.652.738 5.86.738 2.21 0 4.291-.262 5.862-.738.827-.251 1.468-.548 1.911-.882v9.146c0 .876-2.957 2.1-7.772 2.1-4.816 0-7.773-1.223-7.773-2.1V9.67a.366.366 0 0 0-.732 0v3.52c0 .847.914 1.57 2.644 2.095 1.57.476 3.652.738 5.86.738 2.21 0 4.291-.262 5.862-.738 1.73-.524 2.643-1.248 2.643-2.094v-1.607h4.225a.366.366 0 1 0 0-.733zM8.504 4.932C3.69 4.932.733 3.71.733 2.832c0-.876 2.957-2.1 7.773-2.1 4.815 0 7.772 1.224 7.772 2.1 0 .877-2.957 2.1-7.772 2.1z"
          fill="#000"/>
    <path d="M8.505 1.48c-.442 0-4.312.038-4.312 1.352 0 1.315 3.87 1.353 4.312 1.353.441 0 4.312-.038 4.312-1.353 0-1.314-3.87-1.352-4.312-1.352zm2.517 1.738c-.694.151-1.588.235-2.517.235-.93 0-1.824-.084-2.517-.235-.647-.141-.935-.3-1.034-.386.099-.084.387-.244 1.034-.385.693-.151 1.587-.235 2.517-.235.93 0 1.823.084 2.517.235.646.141.935.3 1.033.385-.098.085-.387.245-1.033.386z"
          fill="#000"/>
</svg>