<svg width="19" height="25" viewBox="0 0 19 25" fill="none" xmlns="http://www.w3.org/2000/svg"><path d="M16.595 5.494l-.845-2.817V1.172a.39.39 0 0 0-.39-.39H3.64a.39.39 0 0 0-.39.39v1.505l-.845 2.817A35.512 35.512 0 0 0 .906 15.705v6.56a.39.39 0 0 0 .267.371L5.861 24.2c.04.013.081.02.123.02a.399.399 0 0 0 .052-.004l11.719-1.562a.39.39 0 0 0 .339-.387v-6.56c0-3.46-.505-6.9-1.499-10.212zM3.557 20.891l1.47 2.207-2.941-.981 1.47-1.226zM4.03 5.396l.097.322a34.732 34.732 0 0 1 1.466 9.987v6.833L4.03 20.194V5.396zm2.198 7.081l10.816-1.081c.178 1.43.267 2.868.267 4.31v3.093L6.376 20.257v-4.552c0-1.08-.049-2.155-.146-3.228zm10.71-1.856l-10.79 1.08a35.515 35.515 0 0 0-1.272-6.207l-.711-2.369h3.09l1.089 3.628a.39.39 0 0 0 .413.276l3.906-.39a.391.391 0 0 0 .332-.512l-1-3.002h3.073l.778 2.593a34.756 34.756 0 0 1 1.092 4.903zm-5.767-7.496L12.1 5.91 9 6.22l-.928-3.095h3.1zm-.11-.781H7.938v-.781h3.125v.78zm3.907 0h-3.125v-.781h3.125v.78zM4.03 1.563h3.125v.78H4.031v-.78zm-.878 4.155l.097-.322v14.733l-1.563 1.303v-5.727c0-3.382.494-6.747 1.466-9.987zm3.222 17.664v-2.337l10.938-1.458v2.337L6.374 23.382z" fill="#333"/></svg>