<svg xmlns="http://www.w3.org/2000/svg" xmlns:xlink="http://www.w3.org/1999/xlink"><defs><clipPath id="a"><path fill="#fff" d="M0 0h15v15H0z"/></clipPath><clipPath id="clip0"><path fill="#fff" d="M0 .334h25v26.587H0z"/></clipPath><path id="SVGID_1_" d="M0 0h77v21.7H0z"/><path id="SVGID_3_" d="M64.6 11l-6.3 10.7h12.4L77 11z"/><path id="SVGID_6_" d="M0 0h77v21.7H0z"/></defs><symbol id="address" viewBox="0 0 15 15"><g clip-path="url(#a)"><path d="M13.844 9.423a.374.374 0 0 0-.373.373v3.317c0 .62-.502 1.12-1.12 1.121H1.867a1.12 1.12 0 0 1-1.12-1.12V3.377c0-.618.501-1.12 1.12-1.12h3.317a.374.374 0 1 0 0-.748H1.868A1.87 1.87 0 0 0 0 3.378v9.736a1.87 1.87 0 0 0 1.868 1.867H12.35a1.87 1.87 0 0 0 1.868-1.867V9.796a.374.374 0 0 0-.374-.373z"/><path d="M14.07.55a1.681 1.681 0 0 0-2.377 0L5.028 7.213a.373.373 0 0 0-.096.165l-.877 3.164a.373.373 0 0 0 .46.46l3.164-.877a.373.373 0 0 0 .165-.096l6.664-6.665a1.683 1.683 0 0 0 0-2.377L14.07.549zM5.842 7.456l5.454-5.455 1.76 1.76L7.6 9.215 5.84 7.457zm-.352.705l1.406 1.406-1.944.538.538-1.944zm8.49-5.325l-.396.396-1.76-1.76.397-.395a.934.934 0 0 1 1.32 0l.44.438a.935.935 0 0 1 0 1.32z" fill="#333"/></g></symbol><symbol id="arrow-round-bottom" viewBox="0 0 46.4 37.6"><path d="M36.2 36.2h-2C34.2 17.4 18.9 2 0 2V0c20 0 36.2 16.2 36.2 36.2"/><path d="M35.5 37.6L19.8 26.7l1.2-1.6 14 9.7 9.7-14 1.7 1.2z"/></symbol><symbol id="arrow" viewBox="0 0 512 512"><path d="M160 128.4L192.3 96 352 256 192.3 416 160 383.6 287.3 256z"/></symbol><symbol id="avia" viewBox="0 0 70 31"><path d="M55.057 18.798l-16.71.56a4.173 4.173 0 0 0-.084-.452l5.103-.99a.49.49 0 0 0 .394-.543.5.5 0 0 0-.513-.434l-5.74.276c-.75-1.111-1.916-2.004-3.256-2.455L33.08 6.633a.74.74 0 0 0-1.464 0l-1.184 8.117c-1.355.449-2.536 1.349-3.29 2.47l-5.825-.28a.493.493 0 1 0-.118.976l5.186 1.005a4.51 4.51 0 0 0-.081.436l-16.793-.56a.487.487 0 0 0-.508.452.493.493 0 0 0 .424.53l5.524.751a1.969 1.969 0 0 0-1.097 1.763 1.97 1.97 0 0 0 1.967 1.967 1.97 1.97 0 0 0 1.967-1.967c0-.582-.257-1.107-.66-1.467l3.696.503a1.96 1.96 0 0 0-.73 1.528 1.97 1.97 0 0 0 1.968 1.967 1.97 1.97 0 0 0 1.967-1.967c0-.426-.138-.82-.37-1.143l3.133.426a7.15 7.15 0 0 0 1.227 1.829C29.23 25.278 30.758 26 32.325 26c1.566 0 3.094-.72 4.307-2.031.517-.56.936-1.19 1.235-1.841l3.041-.414c-.232.323-.37.717-.37 1.143a1.97 1.97 0 0 0 1.967 1.967 1.966 1.966 0 1 0 1.237-3.495l3.698-.503a1.96 1.96 0 0 0-.66 1.467 1.97 1.97 0 0 0 1.966 1.967 1.97 1.97 0 0 0 1.967-1.967c0-.772-.448-1.44-1.096-1.763l5.526-.751a.493.493 0 0 0-.086-.981zM15.82 23.274a.982.982 0 0 1 0-1.962.982.982 0 0 1 0 1.962zm6.24.564a.982.982 0 0 1 0-1.962.982.982 0 0 1 0 1.962zm20.444 0a.982.982 0 0 1 0-1.962c.54 0 .981.441.981.981s-.44.981-.98.981zm6.241-.564a.982.982 0 0 1 0-1.962c.54 0 .981.441.981.98 0 .54-.44.982-.98.982zm-16.4-11.385l.352 2.432-.703-.02.35-2.412zm-13.176 8.22l7.119.239c.025.247.066.495.13.747l-7.249-.986zm13.158 4.41c-1.245 0-2.418-.678-3.266-1.607 1.21.29 2.3.438 3.352.438 1.077 0 2.113-.153 3.2-.458-.85.939-2.034 1.627-3.286 1.627zm4.17-2.946a.404.404 0 0 0-.093.025c-2.766 1.005-4.94 1.023-8.21.059-.287-.572-.45-1.166-.45-1.72 0-1.86 2.002-4.018 4.58-4.018 2.581 0 4.583 2.159 4.583 4.017 0 .525-.148 1.092-.41 1.637zm1.738-.493c.062-.249.106-.495.128-.737l7.033-.234-7.16.971z" fill="#E5E5E5"/><path d="M31.657 19.355h-1.279a.37.37 0 0 0-.37.37v.55a.37.37 0 0 0 .37.369h1.28a.37.37 0 0 0 .37-.37v-.55a.37.37 0 0 0-.37-.37zm2.778 0h-1.279a.37.37 0 0 0-.37.37v.55a.37.37 0 0 0 .37.369h1.28a.37.37 0 0 0 .37-.37v-.55a.37.37 0 0 0-.37-.37z" fill="#E5E5E5"/></symbol><symbol id="avto" viewBox="0 0 25 27"><g clip-path="url(#clip0)" fill="#ACACAC"><path d="M19.057 16.773H6.005a.461.461 0 0 1-.456-.511l.433-3.816c.2-1.43 1.008-1.545 1.964-1.545.096 0 .197 0 .302.002.115 0 .234.003.363.003h7.84c1.22 0 2.482 0 2.629 1.549l.43 3.807a.464.464 0 0 1-.453.511zm-12.539-.917h12.026l-.374-3.305c-.055-.566-.14-.726-1.717-.726H8.611l-.372-.002c-.103 0-.2-.003-.293-.003-.832 0-.958.046-1.057.743l-.37 3.293zm.734 8.814H4.76a.343.343 0 0 0-.344.344v2.21c0 .19.154.344.344.344h2.492c.19 0 .343-.154.343-.344v-2.21a.343.343 0 0 0-.343-.343zm12.914 0h-2.489a.343.343 0 0 0-.343.344v2.21c0 .19.153.344.343.344h2.492c.19 0 .343-.154.343-.344v-2.21a.347.347 0 0 0-.346-.343zm-.866-6.593a.34.34 0 0 0-.314-.041l-1.098.398a1.943 1.943 0 0 0-1.276 1.82v1.783c0 .19.153.344.343.344h2.148c.19 0 .344-.154.344-.344V18.36a.345.345 0 0 0-.147-.282zm-.54 3.619H17.3v-1.44c0-.524.33-.994.822-1.175l.637-.232v2.847zM7.25 18.434l-1.099-.398a.345.345 0 0 0-.46.323v3.68c0 .19.153.344.344.344h2.147c.19 0 .344-.153.344-.343v-1.784c0-.813-.514-1.544-1.277-1.822zm.588 3.262h-1.46v-2.847l.638.232c.492.178.822.65.822 1.175v1.44zm7.719-2.494H9.75a.343.343 0 1 0 0 .688h5.807a.343.343 0 1 0 0-.688zm0 1.3H9.75a.343.343 0 1 0 0 .688h5.807a.343.343 0 1 0 0-.688z"/><path d="M23.279 1H1.783a.46.46 0 0 0-.458.458v4.479c0 .662.167 1.322.481 1.907l.557 1.03v14.314c0 .183.108.339.264.412v1.176c0 .38.307.688.687.688h18.431a.687.687 0 0 0 .688-.688V23.6a.455.455 0 0 0 .264-.412V8.875l.557-1.031a4.007 4.007 0 0 0 .48-1.907V1.458A.456.456 0 0 0 23.28 1zm-2.707 20.911H4.488v-3.82l.834-6.363.002-.027c.076-.837 1.32-1.58 2.25-1.58h10.172c.928 0 2.175.746 2.25 1.582l.578 6.397v3.811h-.002zm-16.57 2.18v-.75h17.056v.75H4.002zM22.447 7.408l-.612 1.135a.451.451 0 0 0-.055.217v7.412l-.415-4.593c-.147-1.62-2.03-2.832-3.619-2.832H7.575c-1.582 0-3.461 1.203-3.62 2.816l-.675 5.152V8.758a.452.452 0 0 0-.055-.218l-.612-1.134c-.02-.037-.035-.076-.053-.115H22.5c-.019.04-.033.08-.053.117zm.373-1.471c0 .146-.013.293-.034.44H2.342c-.023 0-.043.004-.066.007a3.207 3.207 0 0 1-.037-.447v-4.02h20.58v4.02h.001z"/><path d="M6.099 5.705H4.384a.46.46 0 0 1-.458-.458.46.46 0 0 1 .458-.458H6.1a.46.46 0 0 1 .458.458.46.46 0 0 1-.458.458zm14.595 0h-1.715a.46.46 0 0 1-.458-.458.46.46 0 0 1 .458-.458h1.715a.458.458 0 1 1 0 .917zm3.501 7.625h-.242a.805.805 0 0 0-.805.805v1.354l-.937.186a.459.459 0 0 0 .179.898l.758-.149v.032a.46.46 0 0 0 .459.459h.935a.46.46 0 0 0 .458-.459v-2.321a.806.806 0 0 0-.805-.805zM2.79 15.675l-.938-.186v-1.354a.805.805 0 0 0-.805-.805H.804a.807.807 0 0 0-.804.805v2.32a.46.46 0 0 0 .458.458h.935a.46.46 0 0 0 .459-.459v-.03l.758.152a.46.46 0 0 0 .179-.9z"/></g></symbol><symbol id="calc" viewBox="0 0 43 50"><g clip-path="url(#a)"><path d="M30.104 3.226c-4.935 0-8.95 3.98-8.95 8.87h1.627c0-4.001 3.285-7.257 7.323-7.257V3.226zm7.322 8.871c0 4.002-3.285 7.258-7.323 7.258v1.613c4.935 0 8.95-3.98 8.95-8.871h-1.627z"/><path d="M42.308 12.097C42.308 5.427 36.833 0 30.104 0a12.224 12.224 0 0 0-10.786 6.452H.814A.81.81 0 0 0 0 7.258v41.936c0 .446.363.806.814.806h35.798c.451 0 .814-.36.814-.806V21.752c2.957-2.21 4.882-5.71 4.882-9.655zm-21.945 7.258H4.882V11.29h13.06c-.02.269-.043.535-.043.807 0 2.725.925 5.234 2.464 7.258zm15.436 29.032H1.627V8.065h16.984a11.952 11.952 0 0 0-.466 1.612H4.068a.81.81 0 0 0-.814.807v9.677a.81.81 0 0 0 .814.807h17.766a12.204 12.204 0 0 0 8.27 3.226 12.19 12.19 0 0 0 5.695-1.407v25.6zm-5.695-25.806c-5.832 0-10.577-4.704-10.577-10.484S24.272 1.613 30.103 1.613c5.832 0 10.578 4.704 10.578 10.484S35.934 22.58 30.104 22.58z"/><path d="M30.917 16.129c1.346 0 2.441-1.086 2.441-2.42 0-1.333-1.095-2.419-2.44-2.419H29.29a.811.811 0 0 1-.814-.806c0-.445.365-.807.814-.807h4.068V8.065h-2.44V6.452H29.29v1.613c-1.346 0-2.44 1.085-2.44 2.419s1.094 2.42 2.44 2.42h1.627a.81.81 0 0 1 .814.806.811.811 0 0 1-.814.806H26.85v1.613h2.441v1.613h1.627v-1.613zM8.95 24.194H4.068a.81.81 0 0 0-.814.806v4.839c0 .446.363.806.814.806H8.95c.45 0 .813-.36.813-.806V25a.809.809 0 0 0-.813-.806zm-.814 4.838H4.882v-3.226h3.254v3.226zm8.95-4.838h-4.882a.81.81 0 0 0-.814.806v4.839a.81.81 0 0 0 .814.806h4.882c.45 0 .813-.36.813-.806V25a.809.809 0 0 0-.813-.806zm-.814 4.838h-3.254v-3.226h3.254v3.226zm8.95-4.838H20.34c-.45 0-.813.36-.813.806v4.839c0 .446.363.806.813.806h4.882c.45 0 .813-.36.813-.806V25a.809.809 0 0 0-.813-.806zm-.814 4.838h-3.254v-3.226h3.254v3.226zM8.95 32.258H4.068a.81.81 0 0 0-.814.806v4.84c0 .446.363.806.814.806H8.95c.45 0 .813-.36.813-.807v-4.838a.808.808 0 0 0-.813-.807zm-.814 4.839H4.882V33.87h3.254v3.226zm8.95-4.839h-4.882a.81.81 0 0 0-.814.806v4.84a.81.81 0 0 0 .814.806h4.882c.45 0 .813-.36.813-.807v-4.838a.808.808 0 0 0-.813-.807zm-.814 4.839h-3.254V33.87h3.254v3.226zm8.95-4.839H20.34c-.45 0-.813.36-.813.806v4.84c0 .446.363.806.813.806h4.882c.45 0 .813-.36.813-.807v-4.838a.808.808 0 0 0-.813-.807zm-.814 4.839h-3.254V33.87h3.254v3.226zm3.255-4.032v12.903c0 .446.363.806.813.806h4.882a.81.81 0 0 0 .814-.806V33.064a.808.808 0 0 0-.814-.806h-4.882c-.45 0-.813.36-.813.806zm1.627.806h3.254v11.29H29.29v-11.29zM8.95 40.323H4.068a.81.81 0 0 0-.814.806v4.839c0 .446.363.806.814.806H8.95c.45 0 .813-.36.813-.806v-4.839a.808.808 0 0 0-.813-.806zm-.814 4.838H4.882v-3.226h3.254v3.226zm8.95-4.838h-4.882a.81.81 0 0 0-.814.806v4.839a.81.81 0 0 0 .814.806h4.882c.45 0 .813-.36.813-.806v-4.839a.808.808 0 0 0-.813-.806zm-.814 4.838h-3.254v-3.226h3.254v3.226zm8.95-4.838H20.34c-.45 0-.813.36-.813.806v4.839c0 .446.363.806.813.806h4.882c.45 0 .813-.36.813-.806v-4.839a.808.808 0 0 0-.813-.806zm-.814 4.838h-3.254v-3.226h3.254v3.226z"/></g></symbol><symbol id="change-password" viewBox="0 0 480 480"><path d="M13.536 350l10.588-12A24.021 24.021 0 0 1 16 320V40c.015-13.248 10.752-23.985 24-24h400c13.248.015 23.985 10.752 24 24v280c-.015 13.248-10.752 23.985-24 24H304v16h136c22.081-.025 39.975-17.919 40-40V40c-.025-22.081-17.919-39.975-40-40H40C17.919.025.025 17.919 0 40v280a40.035 40.035 0 0 0 13.536 30z"/><path d="M40 32h16v16H40zm32 0h16v16H72zm32 0h16v16h-16zM40 64h400v16H40zm344 48c-30.928 0-56 25.072-56 56s25.072 56 56 56 56-25.072 56-56c-.035-30.913-25.086-55.965-56-56zm0 96c-22.091 0-40-17.909-40-40s17.909-40 40-40 40 17.909 40 40c-.025 22.081-17.919 39.975-40 40z"/><path d="M402.343 146.343L376 172.687l-10.343-10.344-11.314 11.314 16 16a8 8 0 0 0 11.314 0l32-32zM344 240h80v16h-80zm0 32h80v16h-80zM240 112c-30.928 0-56 25.072-56 56s25.072 56 56 56 56-25.072 56-56c-.035-30.913-25.086-55.965-56-56zm0 96c-22.091 0-40-17.909-40-40s17.909-40 40-40 40 17.909 40 40c-.025 22.081-17.919 39.975-40 40z"/><path d="M258.343 146.343L232 172.687l-10.343-10.344-11.314 11.314 16 16a8 8 0 0 0 11.314 0l32-32zM200 240h80v16h-80zm0 32h80v16h-80zM96 128a39.97 39.97 0 0 1 33.341 17.915l13.324-8.857c-17.085-25.776-51.83-32.822-77.606-15.738A55.995 55.995 0 0 0 40 168c0 3.124.259 6.243.774 9.325l15.78-2.648A40.477 40.477 0 0 1 56 168c.025-22.081 17.919-39.975 40-40z"/><path d="M8 480h224a7.934 7.934 0 0 0 3.688-.906c24.485-3.736 46.912-18.828 57.422-39.094H336a8 8 0 0 0 5.657-2.343L352 427.313l10.343 10.344A8 8 0 0 0 368 440h16a8 8 0 0 0 5.657-2.343L400 427.313l10.343 10.344A8 8 0 0 0 416 440h16a8 8 0 0 0 6.656-3.562l16-24a8 8 0 0 0 0-8.876l-16-24A8 8 0 0 0 432 376H293.11c-12.171-23.46-40.3-40-69.11-40a71.585 71.585 0 0 0-39.977 12.152l-5.472-2.179a19.123 19.123 0 0 1-2.2-1.016 2.486 2.486 0 0 0-.2-.1c-14.547-7.398-20.342-25.188-12.944-39.735a29.583 29.583 0 0 1 4.325-6.317A63.743 63.743 0 0 0 184 256v-29.68c0-25.542-14.446-49.119-36.777-60.053A60.726 60.726 0 0 0 122.016 160a62.795 62.795 0 0 0-24.311 4.013 60.757 60.757 0 0 0-18.154 10.45A64.201 64.201 0 0 0 56 224v32a64.175 64.175 0 0 0 16.475 42.814c9.034 10.1 10.041 25.05 2.442 36.269-.034.049-.067.1-.1.15a27.102 27.102 0 0 1-10.917 9.592 6.147 6.147 0 0 0-.255.132c-.711.385-1.446.724-2.2 1.016l-.1.038L25.084 360.5A39.93 39.93 0 0 0 0 397.68V472a8 8 0 0 0 8 8zm216-128c24.175 0 48.5 15.048 56.585 35a7.999 7.999 0 0 0 7.415 5h139.719l10.666 16-10.666 16h-8.406l-13.656-13.657a8 8 0 0 0-11.314 0L380.687 424h-9.374l-13.656-13.657a8 8 0 0 0-11.314 0L332.687 424H288a7.999 7.999 0 0 0-7.415 5c-8.084 19.956-32.41 35-56.585 35-30.928 0-56-25.072-56-56s25.072-56 56-56zM16 397.68a23.985 23.985 0 0 1 15.049-22.331l36.193-14.462a34.897 34.897 0 0 0 3.862-1.775 43.5 43.5 0 0 0 17.068-15.068c11.722-17.318 10.145-40.394-3.825-55.956a46.819 46.819 0 0 1-7.659-11.477l-.045-.094A46.724 46.724 0 0 1 72 256v-32a48.205 48.205 0 0 1 17.802-37.249A44.915 44.915 0 0 1 103.31 179a46.836 46.836 0 0 1 18.2-3.007 44.883 44.883 0 0 1 18.647 4.629C157.073 188.905 168 206.841 168 226.32V256a47.768 47.768 0 0 1-12.326 32.066c-16.818 18.707-15.286 47.506 3.422 64.324a45.533 45.533 0 0 0 9.771 6.71c.537.287 1.076.547 1.612.8-26.57 29.485-24.207 74.926 5.278 101.495a72.2 72.2 0 0 0 3.058 2.605H16z"/><path d="M208 432c13.255 0 24-10.745 24-24s-10.745-24-24-24-24 10.745-24 24c.015 13.249 10.751 23.985 24 24zm0-32a8 8 0 1 1-8 8 8.01 8.01 0 0 1 8-8z"/></symbol><symbol id="check" viewBox="0 0 32 32"><path fill="none" d="M0 0h32v32H0z"/><path d="M4 16l4-4 6 6L26 6l4 4-16 16z"/></symbol><symbol id="comment-save" viewBox="0 0 10 10"><path d="M5 0C2.243 0 0 2.243 0 5c0 2.758 2.243 5 5 5 2.758 0 5-2.242 5-5 0-2.757-2.242-5-5-5zm2.205 4.47l-2.14 2.14a.77.77 0 0 1-1.08 0l-1.19-1.19a.762.762 0 0 1 1.078-1.077l.65.65L6.125 3.39a.763.763 0 1 1 1.08 1.08z" fill="#333"/></symbol><symbol id="copy" viewBox="0 0 360.2 440.3"><path fill="#222" d="M159.8 80c-.7 0-1.5.1-2.2.2H16c-8.8 0-16 7.2-16 16v328c0 8.8 7.2 16 16 16h248c8.8 0 16-7.2 16-16V202.9c1-5.8-1.4-11.7-6-15.3L172.6 86.2c-3.1-4-7.8-6.2-12.8-6.2M32 112.3h112v85.4c-.8 5.1.9 10.4 4.6 14l.1.1c.1.1.2.1.2.2 3.6 3.5 8.7 5 13.7 4.2H248v192H32V112.3zm144 22.6l49.4 49.4H176v-49.4z"/><path fill="#BFBFBF" d="M239.8 0c-.7 0-1.5.1-2.2.2H96c-4.2 0-8.4 1.7-11.3 4.7-3 3-4.7 7.1-4.7 11.3v44h32v-28h112v65.3l38.7 38.7H328v192h-28v32h44c4.2 0 8.4-1.7 11.3-4.7 3-3 4.7-7.1 4.7-11.3V122.8c.9-5.7-1.5-11.8-6-15.3L252.6 6.2c-3-3.9-7.9-6.3-12.8-6.2M256 54.9l49.4 49.4H256V54.9z"/></symbol><symbol id="cross" viewBox="0 0 48 48"><path d="M38 12.83L35.17 10 24 21.17 12.83 10 10 12.83 21.17 24 10 35.17 12.83 38 24 26.83 35.17 38 38 35.17 26.83 24z"/><path d="M0 0h48v48H0z" fill="none"/></symbol><symbol id="delivery" viewBox="0 0 48 53"><g clip-path="url(#a)"><path d="M4.528 29.642c-.5 0-.905.402-.905.899v3.592c0 .497.405.899.905.899s.906-.402.906-.898V30.54a.902.902 0 0 0-.906-.899zm3.622 1.797c-.5 0-.905.402-.905.898v3.593c0 .496.405.898.906.898.5 0 .905-.402.905-.898v-3.593a.902.902 0 0 0-.905-.898zm33.032 4.821a.91.91 0 0 0-1.25.276.895.895 0 0 0 .236 1.212 5.363 5.363 0 0 1 1.472 7.48c-1.676 2.469-5.053 3.122-7.541 1.46a5.363 5.363 0 0 1-1.473-7.48 5.447 5.447 0 0 1 4.504-2.379c.5 0 .906-.402.906-.898a.902.902 0 0 0-.906-.898c-4.001 0-7.244 3.219-7.244 7.187 0 3.968 3.246 7.185 7.247 7.185 4 0 7.243-3.22 7.243-7.187a7.168 7.168 0 0 0-3.194-5.958z"/><path d="M47.571 39.234a10.8 10.8 0 0 0-5.913-6.807V12.575a.896.896 0 0 0-.444-.773L21.29.125a.909.909 0 0 0-.921 0L.445 11.802c-.02.011-.033.027-.051.04-.018.011-.035.026-.053.04a.924.924 0 0 0-.2.22c0 .006-.012.01-.015.015v.007a.875.875 0 0 0-.102.294c0 .027-.008.052-.012.079-.003.027-.012.052-.012.079V35.93c0 .318.169.612.445.773l19.924 11.678a.83.83 0 0 0 .073.03c.025.012.05.023.076.033.2.083.423.083.622 0a.648.648 0 0 0 .078-.033c.023-.011.048-.017.072-.03l5.408-3.17c1.664 5.717 7.685 9.014 13.45 7.363 5.763-1.65 9.087-7.622 7.423-13.34zM20.829 1.941l4.71 2.76-6.983 4.093a.894.894 0 0 0-.32 1.23.91.91 0 0 0 1.242.317l7.841-4.592 4.71 2.76-18.144 10.63-4.709-2.76 7.587-4.446a.894.894 0 0 0 .32-1.23.91.91 0 0 0-1.241-.317l-8.445 4.95-4.71-2.76L20.828 1.94zm-7.85 18.756v5.998l-4.678-2.742v-5.998l4.679 2.742zM26.622 39.44c-.241.906-.361 1.84-.358 2.777 0 .376.02.75.06 1.125l-4.588 2.691v-2.918a.902.902 0 0 0-.906-.898c-.5 0-.905.402-.905.898v2.917L1.81 35.418V14.15l4.68 2.742v7.57c0 .319.169.614.445.775l6.49 3.805a.91.91 0 0 0 1.366-.774v-6.511l5.132 3.008v14.757c0 .496.405.898.905.898s.906-.402.906-.898V24.766l16.413-9.62a.895.895 0 0 0 .32-1.231.91.91 0 0 0-1.241-.317L20.829 23.21l-5.162-3.026L33.81 9.549l6.037 3.539v18.71c-5.78-1.512-11.702 1.91-13.226 7.643zM37.13 51.2c-5.002 0-9.057-4.023-9.057-8.983 0-4.961 4.055-8.983 9.056-8.983 5.002 0 9.056 4.022 9.056 8.983-.005 4.958-4.057 8.976-9.056 8.982z"/><path d="M40.465 39.787a.913.913 0 0 0-1.259 0l-3.434 3.406-.718-.712a.91.91 0 0 0-1.28.023.894.894 0 0 0 0 1.248l1.358 1.348c.354.35.927.35 1.28 0l4.076-4.042a.894.894 0 0 0-.023-1.271z"/></g></symbol><symbol id="error-icon" viewBox="0 0 86 102.4"><path d="M81.1 15.5L70.5 4.9v.4l10.2 10.2z"/><path d="M0 0v93.4l9 9 8.5-8.5 8.5 8.5 8.5-8.5 8.5 8.5 8.5-8.5 8.5 8.5 8.5-8.5 8.5 8.5 9-9V18.5h-3v73.7l-6 6-8.5-8.5-8.5 8.5-8.5-8.5-8.5 8.5-8.5-8.5-8.5 8.5-8.5-8.5L9 98.2l-6-6V3h64.5V0z"/><path d="M80.7 15.5H70.5V5.3L68.2 3h-.7v15.5H83v-.7z"/><path d="M67.5 0v3h.7l2.3 2.3v-.4l10.6 10.6h-.4l2.3 2.3v.7h3v-1.9L69.4 0zM22.015 29.728l1.697-1.697 13.294 13.294-1.697 1.697zM19.2 56.3h48.3v2.4H19.2z"/><path d="M22.086 41.253l13.293-13.294 1.697 1.697L23.783 42.95zm26.837-11.505l1.697-1.697 13.293 13.294-1.697 1.697z"/><path d="M48.993 41.272l13.293-13.294 1.697 1.697L50.69 42.97zM65.4 58.6V67c0 2.7-2.2 4.9-4.9 4.9s-4.9-2.2-4.9-4.9v-8.4h-2.1V67c0 3.9 3.2 7.1 7.1 7.1 3.9 0 7.1-3.2 7.1-7.1v-8.4h-2.3z"/><path d="M58.5 57.5h2v6h-2z"/></symbol><symbol id="filter" viewBox="0 0 15 16"><path d="M12.49 4.387a1.602 1.602 0 0 0-1.538-1.16 1.6 1.6 0 0 0-1.538 1.16H0v.879h9.414c.191.669.808 1.16 1.538 1.16s1.347-.491 1.538-1.16H15v-.879h-2.51zm-1.538 1.16a.722.722 0 1 1 .002-1.443.722.722 0 0 1-.002 1.443zM2.817 6.903c-.73 0-1.347.491-1.538 1.16H0v.88h1.279c.191.668.808 1.16 1.538 1.16s1.347-.492 1.538-1.16H15v-.88H4.355a1.603 1.603 0 0 0-1.538-1.16zm0 2.32a.722.722 0 1 1 .002-1.443.722.722 0 0 1-.002 1.444zm4.929 1.357c-.73 0-1.346.49-1.538 1.16H0v.878h6.208a1.6 1.6 0 0 0 3.076 0H15v-.879H9.284a1.602 1.602 0 0 0-1.538-1.16zm0 2.32a.722.722 0 1 1 .002-1.444.722.722 0 0 1-.002 1.444z"/></symbol><symbol id="icon-box" viewBox="0 0 482 482"><path d="M279.8 244.8l-21.6 12.5V482l194.5-112.3V145zM315 43.3L240.2 0 40.3 115.4l74.9 43.3zm125 72.1l-86.2-49.1L154 181.7l11.4 5.9 74.8 43.2 74.4-42.9zM138.9 264.3l-35.8-18.4v-57.2l-73.8-42.5v223.1l193.1 111.5V257.7l-83.5-48.1z"/></symbol><symbol id="icon-information" viewBox="0 0 437.6 437.6"><path d="M194 142.8c.8 1.6 1.6 3.2 2.4 4.4.8 1.2 2 2.4 2.8 3.6 1.2 1.2 2.4 2.4 4 3.6 1.2.8 2.8 2 4.8 2.4 1.6.8 3.2 1.2 5.2 1.6 2 .4 3.6.4 5.2.4s3.6 0 5.2-.4 3.2-.8 4.4-1.6h.4c1.6-.8 3.2-1.6 4.8-2.8 1.2-.8 2.4-2 3.6-3.2l.4-.4c1.2-1.2 2-2.4 2.8-3.6s1.6-2.4 2-4c0-.4 0-.4.4-.8.8-1.6 1.2-3.6 1.6-5.2.4-1.6.4-3.6.4-5.2s0-3.6-.4-5.2-.8-3.2-1.6-5.2c-1.2-2.8-2.8-5.2-4.8-7.2l-.8-.8c-1.2-1.2-2.4-2-4-3.2-1.6-.8-2.8-1.6-4.4-2.4-1.6-.8-3.2-1.2-4.8-1.6-2-.4-3.6-.4-5.2-.4s-3.6 0-5.2.4-3.2.8-4.8 1.6h-.4c-1.6.8-3.2 1.6-4.4 2.4-1.6 1.2-2.8 2-4 3.2-1.2 1.2-2.4 2.4-3.2 3.6-.8 1.2-1.6 2.8-2.4 4.4-.8 1.6-1.2 3.2-1.6 4.8-.4 2-.4 3.6-.4 5.2s0 3.6.4 5.2c.4 3.2 1.2 4.8 1.6 6.4zm55.6 146.4h-9.2v-98c0-5.6-4.4-10.4-10.4-10.4h-42c-5.6 0-10.4 4.4-10.4 10.4v21.6c0 5.6 4.4 10.4 10.4 10.4h8.4v66.4H188c-5.6 0-10.4 4.4-10.4 10.4v21.6c0 5.6 4.4 10.4 10.4 10.4h61.6c5.6 0 10.4-4.4 10.4-10.4V300c0-6-4.8-10.8-10.4-10.8z"/><path d="M218.8 0C98 0 0 98 0 218.8s98 218.8 218.8 218.8 218.8-98 218.8-218.8S339.6 0 218.8 0zm0 408.8c-104.8 0-190-85.2-190-190s85.2-190 190-190 190 85.2 190 190-85.2 190-190 190z"/></symbol><symbol id="icon-money" viewBox="0 0 25.771 25.771"><path d="M24.171 13.728v9.8h-18.8v-9.8h18.8m1.6-1.6h-22v13h22v-13z" fill="#030104"/><g fill="#030104"><path d="M19.771 12.128l2.252 2.252c-.017.083-.05.16-.05.248 0 .717.581 1.297 1.298 1.297.088 0 .164-.033.247-.049l2.253 2.252v-6h-6z"/><circle cx="21.271" cy="18.628" r="1.298"/><ellipse cx="14.771" cy="18.628" rx="3.926" ry="3.414"/><circle cx="8.271" cy="18.628" r="1.297"/><path d="M3.771 18.128l2.252-2.252c.083.017.16.05.248.05.717 0 1.297-.581 1.297-1.298 0-.088-.033-.164-.05-.247l2.253-2.253h-6v6zm3.798 4.5c0-.717-.581-1.297-1.298-1.297-.088 0-.164.033-.247.049l-2.253-2.252v6h6l-2.252-2.252c.017-.083.05-.161.05-.248zm15.702-1.298c-.717 0-1.297.581-1.297 1.298 0 .088.033.164.05.247l-2.253 2.253h6v-6l-2.252 2.252c-.083-.017-.16-.05-.248-.05z"/></g><g fill="#030104"><circle cx="18.473" cy="8.505" r="1.297"/><path d="M2.271 12.128a1.5 1.5 0 0 1 1.5-1.5h.82l.037-.128 11.577-6.34.885.258c.025.08.034.164.077.241.344.63 1.132.859 1.762.515.076-.042.128-.107.191-.162l.887.26 2.017 3.682-.259.886c-.079.024-.163.033-.24.075-.293.16-.488.422-.591.713h3.831l-2.586-4.723h.001L19.297.643l-5.264 2.882h.001L5.263 8.328 0 11.21l2.271 4.147v-3.229z"/><path d="M11.131 8.634a4.231 4.231 0 0 0-1.85 1.994h7.233a2.967 2.967 0 0 0-.299-.885c-.907-1.654-3.182-2.15-5.084-1.109z"/></g></symbol><symbol id="icon-percentage" viewBox="0 0 488.027 488.027"><circle cx="179.163" cy="202.563" r="20.4"/><circle cx="308.763" cy="285.363" r="20.4"/><path d="M476.963 270.963l-7.4-10.1c-8-11-8.2-25.9-.3-37.1l7.2-10.2c11-15.6 5.9-37.3-11-46.4l-11-5.9c-12-6.4-18.6-19.8-16.3-33.3l2.1-12.3c3.2-18.8-10.9-36.2-30-37l-12.5-.5c-13.6-.6-25.4-9.8-29.2-22.9l-3.5-12c-5.3-18.4-25.5-27.9-43.1-20.3l-11.5 4.9c-12.5 5.4-27.1 2.2-36.2-8l-8.3-9.3c-12.7-14.2-35-14.1-47.6.4l-8.2 9.4c-9 10.3-23.5 13.7-36.1 8.5l-11.6-4.8c-17.7-7.3-37.7 2.6-42.8 21l-3.3 12.1c-3.6 13.2-15.2 22.6-28.8 23.3l-12.5.7c-19.1 1.1-32.9 18.7-29.4 37.5l2.3 12.3c2.5 13.4-3.9 26.9-15.8 33.5l-10.9 6.1c-16.7 9.3-21.5 31.1-10.2 46.5l7.4 10.1c8 11 8.2 25.9.3 37.1l-7.2 10.2c-11 15.6-5.9 37.3 11 46.4l11 5.9c12 6.4 18.6 19.8 16.3 33.3l-2.1 12.3c-3.2 18.8 10.9 36.2 30 37l12.5.5c13.6.6 25.4 9.8 29.2 22.9l3.5 12c5.3 18.4 25.5 27.9 43.1 20.3l11.5-4.9c12.5-5.4 27.1-2.2 36.2 8l8.3 9.3c12.8 14.2 35.1 14.1 47.6-.4l8.2-9.4c9-10.3 23.5-13.7 36.1-8.5l11.6 4.8c17.7 7.3 37.7-2.6 42.8-21l3.3-12.1c3.6-13.2 15.2-22.6 28.8-23.3l12.5-.7c19.1-1.1 32.9-18.7 29.4-37.5l-2.3-12.3c-2.5-13.4 3.9-26.9 15.8-33.5l10.9-6.1c16.7-9.2 21.5-31 10.2-46.5zm-347.1-68.4c0-27.2 22-49.2 49.2-49.2s49.2 22 49.2 49.2-22 49.2-49.2 49.2-49.2-22.1-49.2-49.2zm58.7 126.9c-4.2 5.1-11.8 5.8-16.9 1.6-5.1-4.2-5.8-11.8-1.6-16.9l129.1-155.5c4.2-5.1 11.8-5.8 16.9-1.6s5.8 11.8 1.6 16.9l-129.1 155.5zm120.2 5.1c-27.2 0-49.2-22-49.2-49.2s22-49.2 49.2-49.2 49.2 22 49.2 49.2-22 49.2-49.2 49.2z"/></symbol><symbol id="icon-wallet" viewBox="0 0 469.341 469.341"><path d="M437.337 384.007H362.67c-47.052 0-85.333-38.281-85.333-85.333s38.281-85.333 85.333-85.333h74.667a10.66 10.66 0 0 0 10.667-10.667v-32c0-22.368-17.35-40.559-39.271-42.323l-61.26-107c-5.677-9.896-14.844-16.969-25.813-19.906-10.917-2.917-22.333-1.385-32.104 4.302L79.553 128.007H42.67c-23.531 0-42.667 19.135-42.667 42.667v256c0 23.531 19.135 42.667 42.667 42.667h362.667c23.531 0 42.667-19.135 42.667-42.667v-32a10.66 10.66 0 0 0-10.667-10.667zM360.702 87.411l23.242 40.596h-92.971l69.729-40.596zm-238.749 40.596L300.295 24.184c4.823-2.823 10.458-3.573 15.844-2.135 5.448 1.458 9.99 4.979 12.813 9.906l.022.039-164.91 96.013h-42.111z"/><path d="M437.337 234.674H362.67c-35.292 0-64 28.708-64 64s28.708 64 64 64h74.667c17.646 0 32-14.354 32-32v-64c0-17.646-14.354-32-32-32zm-74.667 85.333c-11.76 0-21.333-9.573-21.333-21.333 0-11.76 9.573-21.333 21.333-21.333 11.76 0 21.333 9.573 21.333 21.333.001 11.76-9.572 21.333-21.333 21.333z"/></symbol><symbol id="info" viewBox="0 0 12 14"><path d="M6 4.998c-.347 0-.593.146-.593.363v2.944c0 .185.246.37.593.37.331 0 .601-.185.601-.37V5.36c0-.217-.27-.363-.6-.363zm0-1.816c-.354 0-.632.255-.632.548 0 .294.278.557.632.557.347 0 .624-.263.624-.557 0-.293-.277-.548-.624-.548z"/><path d="M6 0C2.684 0 0 2.69 0 6.012a6.012 6.012 0 0 0 4.184 5.732L5.55 13.76a.545.545 0 0 0 .902 0l1.365-2.016A6.012 6.012 0 0 0 12 6.012 6.003 6.003 0 0 0 6 0zm1.327 10.749a.547.547 0 0 0-.305.22L6 12.478l-1.022-1.51a.546.546 0 0 0-.305-.22A4.92 4.92 0 0 1 6 1.094a4.92 4.92 0 0 1 1.327 9.655z"/></symbol><symbol id="korobka" viewBox="0 0 24 25"><path d="M23.348 5.516L11.938.036a.37.37 0 0 0-.32 0L.208 5.516a.366.366 0 0 0-.208.33v13.308c0 .14.08.269.208.33l11.41 5.48a.37.37 0 0 0 .32 0l11.41-5.48a.366.366 0 0 0 .208-.33V5.846a.367.367 0 0 0-.208-.33zM11.778.773L22.34 5.846l-3.062 1.47a.366.366 0 0 0-.062-.038L8.725 2.238 11.778.774zm-3.884 1.88l10.548 5.066-2.16 1.037L5.737 3.693l2.156-1.04zm10.795 5.76v3.836l-2.018.969V9.383l2.018-.97zm4.13 10.511L12.147 24.05V11.556l2.546-1.223a.365.365 0 0 0 .171-.49.369.369 0 0 0-.491-.17l-2.594 1.246-1.02-.49a.369.369 0 0 0-.492.17.365.365 0 0 0 .171.49l.973.467V24.05L.736 18.924V6.43l8.128 3.904a.368.368 0 0 0 .492-.17.365.365 0 0 0-.172-.49l-7.97-3.827L4.873 4.09 15.929 9.4l.005.007V13.8a.366.366 0 0 0 .368.367c.055 0 .11-.012.16-.037l2.755-1.323a.366.366 0 0 0 .208-.33V8.06l3.395-1.63v12.494z" fill="#ACACAC"/></symbol><symbol id="logo" viewBox="0 0 81.7 22"><style>.st0{fill:#333}.st1,.st2{clip-path:url(#SVGID_2_);fill:#333}.st2{fill:#ffb800}.st3{clip-path:url(#SVGID_4_);fill:url(#SVGID_5_)}.st4{clip-path:url(#SVGID_7_);fill:#ffb800}.st5,.st6{clip-path:url(#SVGID_9_);fill:#333}.st6{fill:#ffb800}.st7{clip-path:url(#SVGID_11_);fill:url(#SVGID_12_)}.st8{clip-path:url(#SVGID_14_);fill:#ffb800}</style><path class="st0" d="M0 3.6v.7h2.3v6.1h1V4.3h2.3v-.7z"/><clipPath id="SVGID_2_"><use xlink:href="#SVGID_1_" overflow="visible"/></clipPath><path class="st1" d="M12.1 5.4v3.2c0 .4-.1.7-.3.9-.2.3-.4.4-.7.6l-.9.3c-.3.1-.6.1-1 .1-1.9 0-2.8-.6-2.8-1.8V5.4c0-1.3.9-1.9 2.8-1.9s2.9.6 2.9 1.9m-1 3.2V5.4c0-.8-.6-1.3-1.9-1.3h-.7c-.2 0-.4.1-.6.2-.2.2-.3.3-.4.5-.1.1-.2.3-.2.6v3.2c0 .8.6 1.2 1.9 1.2 1.3 0 1.9-.4 1.9-1.2m7.2-3.7v1.4c0 .6-.2 1-.7 1.2-.4.2-1.1.4-1.9.4h-1v2.4h-1V3.6h2.9c.2 0 .4 0 .6.1.2.1.4.1.5.2.2.1.3.3.4.4.1.2.2.4.2.6m-1 1.4V5.1c0-.2 0-.3-.1-.5-.1-.1-.2-.2-.4-.3-.2 0-.3-.1-.5-.1h-1.6v3.1h1.2c.4 0 .7-.1 1-.2.2-.2.4-.4.4-.8m7.1 4.1h-5.2v-.7l4-5.4h-3.9v-.7h5v.7l-4 5.4h4.1zm7.1 0h-1.1l-.8-2.1h-2.9l-.7 2.1h-1l2.7-6.8h1.2l2.6 6.8zm-2.1-2.8l-1.2-3.1h-.1L27 7.6h2.4zm4.1 2.8h-1V3.6h1v6.8zm4.6 0h-1.3l-3.2-3.6 3-3.2h1.2l-3.1 3.1 3.4 3.7zm6.6 0h-1.1l-.8-2.1h-2.9l-.8 2.1h-1l2.7-6.8H42l2.7 6.8zm-2.1-2.8l-1.2-3.1h-.1l-1.2 3.1h2.5z"/><path class="st2" d="M50.9 10.4h-5.7v-1l3.6-4.6h-3.5V3.6h5.5v1l-3.5 4.6h3.6zm6.4 0h-5.7v-1l3.6-4.6h-3.4V3.6h5.4v1l-3.5 4.6h3.6z"/><path class="st1" d="M37.1 15.7c-.1.2-1.1 1.7-1.8 2.2-.1.1-.2.1-.3.2h-.2s-.1 0-.1-.1c-.1-.2-.1-.2-.3-.3-.2-.2 0-.5 0-.5.1-.2 2.2-4.8 2.2-4.8s.2-.5.3-.6h.2c.1.1.2.2.2.3 0 .1.1.1.1.2v.3c-.1.2-1.4 2.9-1.5 3-.1.2-.2.4-.3.7-.1.4-.3.8-.4 1.2 0 .1 2.1-2.1 1.9-1.8"/><path class="st1" d="M39.1 16.8c-.1.2-.3.5-.5.7-.3.3-.8.7-1.2.7 0 0-.9-.3-1-.8-.1-.5.2-1.1.4-1.5.1-.4.3-.7.5-1 .1-.2.2-.6.4-.7.2-.2.5 0 .7.2 0 .1.1.2.1.3 0 0 0 .1.1.1h.4l.3.3s.1.6 0 .9c0 .1-.1.5 0 .5l.9-.3v.1c-.3.2-.6.5-1.1.5m-.5 0c-.6-.2-.8-.7-.8-1.2-.2.3-.4.6-.5.9-.1.2-.3.7-.1.9.1.2.3.4.5.3.5-.2.8-.5.9-.9.1.1.1 0 0 0m-.2-1.5c-.1.3-.2.7.1 1 .1.1.2.1.3.1.1 0 .1-.2.2-.3v-.5c-.1-.2-.3-.9-.6-.3"/><path class="st1" d="M43.2 15.7c-.3.7-.4 1.1-.7 1.9-.3.6-.5 1.2-.9 1.7-.2.4-.6.9-1 .8-.7-.2-.9-1-1.1-1.5 0-.1.1-.2.2-.1h.1c.1.1.2.3.3.5.1.1.1.3.2.4.2.2.4-.2.5-.4.6-.9 1-1.8 1.4-2.7-.4.4-1.1 1-1.4 1.4h-.2c-.1 0-.3-.1-.3-.2-.1-.1-.4-.4-.3-.7.1-.5.4-.9.6-1.3.1-.3.3-.6.5-.9.4-.3.9-.4 1.4-.4h.1c.1.1.2.2.3.4.1.1.1.3.2.4-.3-.1-.6-.5-.9-.4-.1.1-.2.2-.3.4v.1c-.3.5-.6 1.1-.9 1.7 0 .1-.1.1-.1.2.2-.1.4-.3.4-.4.1-.1.7-.6 1-1 .1-.2.2-.4.3-.4.2-.1.3.2.5.3l.1.1c.1 0 .1 0 0 .1m1 2.2c-.1.1-.2.1-.3.2h-.2c-.1 0-.1 0-.1-.1-.1-.2-.1-.2-.3-.3-.2-.2 0-.5 0-.5.1-.2 1.1-2.3 1.1-2.3s.2-.5.3-.6h.2c.1.1.2.2.2.3.1.1.1.1.1.2v.3c-.1.2-.3.4-.4.5-.1.2-.2.4-.3.7-.1.4-.3.8-.4 1.2.1.1 2.2-2.1 2-1.8-.3.2-1.2 1.6-1.9 2.2m.8-4.2c-.1-.3.1-.7.2-.9 0-.1.1-.1.1 0 0-.1 0-.1.1-.1.2.1.5.3.5.6 0 .1-.1.2-.2.2-.1.1-.2.2-.3.4-.1.2-.3.1-.4-.2"/><path class="st1" d="M47.3 16.3c.1.4 0 .7-.1 1.1-.2.6-.9.9-1.5.8-.7-.1-.9-.8-.5-1.4.3-.4.7-.7 1.2-1-.1-.6 0-1.2.3-1.6l.1-.2c.1-.2.3-.4.5-.5h.1c.3.1.4.4.5.7v.1s0 .1-.1.1c-.3.2-.6.4-.7.7v.3c.2 0 .9 0 .9.1-.2 0-.7.1-.8.1-.1 0 0 .1 0 .1 0 .3.1.4.1.6m-.8 0c0-.1 0-.1-.1-.2h-.2c-.4.2-1.1.7-.9 1.3.1.2.4.3.6.3.2 0 .4-.1.6-.2.4-.4.2-.9 0-1.2"/><path class="st1" d="M50.5 15.7c-.1.2-1.1 1.7-1.8 2.2-.1.1-.2.1-.3.2h-.2s-.1 0-.1-.1c-.1-.2-.1-.2-.3-.3-.2-.2 0-.5 0-.5 0-.1 1-2.2 1.6-3.6h-.9c-.2 0-.2-.2 0-.2h1l.5-1s.2-.5.3-.6h.2c.1.1.2.2.2.3 0 .1.1.1.1.2v.3l-.4.8h1.4c.1 0 .1.2 0 .2h-1.5c-.4.8-.9 1.9-1 2-.1.2-.2.4-.3.7-.1.4-.3.8-.4 1.2-.1.1 2-2.1 1.9-1.8"/><path class="st1" d="M50.5 17.9c-.1.1-.2.1-.3.2H50c-.1 0-.1 0-.1-.1-.1-.2-.1-.2-.3-.3-.2-.2 0-.5 0-.5.1-.2 1.1-2.3 1.1-2.3s.2-.5.3-.6h.2c.1.1.2.2.2.3.1.1.1.1.1.2v.3c-.1.2-.3.4-.4.5-.1.2-.2.4-.3.7-.1.4-.3.8-.4 1.2.1.1 2.2-2.1 2-1.8-.2.2-1.2 1.6-1.9 2.2.1 0 0 0 0 0m.9-4.2c-.1-.3.1-.7.2-.9 0-.1.1-.1.1 0 0-.1 0-.1.1-.1.2.1.5.3.5.6 0 .1-.1.2-.2.2-.1.1-.2.2-.3.4-.1.2-.4.1-.4-.2"/><path class="st1" d="M54.9 16.2c-.4.4-.8.7-1.2 1-.3.2-.7.6-1.1.7-.2 0-.3 0-.4-.1-1.4-1.1.2-2.6 1-3.6l.1-.1h.2c.1.1.3.3.5.4l.1.1c.1-.1.1-.2.2-.3.1-.1.2-.2.3-.1.1.1.2.2.1.3-.2.2-.3.4-.3.7 0 .1-.1.1-.2.2s-.4 0-.4-.2c0-.5-.4-.2-.6 0-.1.1-.2.3-.3.4-.1.3-.3.7-.4 1.1 0 .1 0 .2.1.4 0 .1.1.2.2.1.3 0 1.1-.5 1.1-.6.2-.1.5-.3.7-.5.2 0 .3 0 .3.1"/><path class="st1" d="M56.6 16.3c.1.4 0 .7-.1 1.1-.2.6-.9.9-1.5.8-.7-.1-.9-.8-.5-1.4.3-.4.7-.7 1.2-1-.1-.6 0-1.2.3-1.6l.1-.2c.1-.2.3-.4.5-.5h.1c.3.1.4.4.5.7v.1s0 .1-.1.1c-.3.2-.6.4-.7.7v.3c.2 0 .9 0 .9.1-.2 0-.7.1-.8.1-.1 0 0 .1 0 .1 0 .3 0 .4.1.6m-.8 0c0-.1 0-.1-.1-.2h-.2c-.4.2-1.1.7-.9 1.3.1.2.4.3.6.3.2 0 .4-.1.6-.2.3-.4.1-.9 0-1.2"/><clipPath id="SVGID_4_"><use xlink:href="#SVGID_3_" overflow="visible"/></clipPath><linearGradient id="SVGID_5_" gradientUnits="userSpaceOnUse" y1="21.741" x2="1" y2="21.741" gradientTransform="scale(14.9601 -14.9601) rotate(59.092 22.552 14.047)"><stop offset="0" stop-color="#ffb800"/><stop offset=".617" stop-color="#ca7334"/><stop offset="1" stop-color="#ca7334"/></linearGradient><path class="st3" d="M53.6 18.9l9.6-16.1 18.5 11L72 30z"/><clipPath id="SVGID_7_"><use xlink:href="#SVGID_6_" overflow="visible"/></clipPath><path class="st4" d="M77 11l-6.4 10.7L58.3 0h12.4z"/></symbol><symbol id="marker" viewBox="0 0 209.513 209.513"><path d="M208.448 193.028l-14.694-14.184 2.423-2.423a3.49 3.49 0 0 0 0-4.938c-11.712-11.712-16.174-18.395-9.879-24.691a3.49 3.49 0 0 0 0-4.938L68.34 23.895 23.895 68.34l117.959 117.959v.003a3.482 3.482 0 0 0 2.469 1.023c.894 0 1.788-.342 2.469-1.023l.007-.007c6.296-6.289 12.976-1.823 24.684 9.886.681.681 1.575 1.023 2.469 1.023s1.788-.342 2.469-1.023l2.469-2.469 9.547 9.547a3.48 3.48 0 0 0 3.611.831l15.116-5.238a3.503 3.503 0 0 0 1.284-5.824zm-87.255-89.298c-.681.681-1.575 1.023-2.469 1.023s-1.788-.342-2.469-1.023L77.844 65.319a3.49 3.49 0 0 1 0-4.938 3.49 3.49 0 0 1 4.938 0l38.411 38.411a3.496 3.496 0 0 1 0 4.938zm5.538 10.476a3.49 3.49 0 0 1 0-4.938 3.49 3.49 0 0 1 4.938 0l13.968 13.967a3.49 3.49 0 0 1 0 4.938c-.681.681-1.575 1.023-2.469 1.023s-1.788-.342-2.469-1.023zm47.213 74.569c-5.049-4.945-11.205-10.388-17.672-11.96l10.27-10.27 10.273-10.27c1.571 6.463 7.015 12.623 11.96 17.672l-2.476 2.476-4.941 4.938zm-97.123 13.751H3.492a3.493 3.493 0 0 0 0 6.984h73.329a3.493 3.493 0 0 0 0-6.984zm27.935 0H90.789a3.493 3.493 0 0 0 0 6.984h13.968a3.493 3.493 0 0 0-.001-6.984zm62.854 0h-48.886a3.493 3.493 0 0 0 0 6.984h48.886a3.493 3.493 0 0 0 0-6.984zM1.526 45.702c.321.482.691.932 1.107 1.355.024.024.042.056.066.084l.003.003 16.255 16.255 44.445-44.445-9.62-9.62-6.638-6.638c-3.6-3.593-9.456-3.59-13.049.007L2.706 34.091c-.042.042-.07.091-.112.136a9.229 9.229 0 0 0-1.061 1.303c-.052.08-.084.171-.136.255a9.145 9.145 0 0 0-1.393 4.836 9.17 9.17 0 0 0 1.418 4.878c.038.063.062.137.104.203z"/></symbol><symbol id="money-bag" viewBox="0 0 60 64"><path d="M22 42c-2.2 0-4-1.8-4-4h2c0 1.1.9 2 2 2s2-.9 2-2c0-.6-1.4-1.6-2.4-2.1-.6-.3-3.6-1.7-3.6-3.9s1.8-4 4-4 4 1.8 4 4h-2c0-1.1-.9-2-2-2s-2 .9-2 2c0 .6 1.4 1.6 2.4 2.1.6.3 3.6 1.7 3.6 3.9s-1.8 4-4 4"/><path d="M21 26h2v3h-2zm0 15h2v3h-2zm7-7h2v2h-2zm-14 0h2v2h-2z"/><path d="M26 64H7c-3.9 0-7-3.1-7-7V41c0-17.6 7.7-21.8 12.8-24.5 1.4-.8 2.7-1.4 3.5-2.2l1.4 1.4c-1 1-2.4 1.7-3.9 2.6C8.8 20.9 2 24.6 2 41v16c0 2.8 2.2 5 5 5h19v2zm18-24h-2c0-16.2-6.7-19.4-11.5-21.7-1.6-.8-3.1-1.5-4.2-2.6l1.4-1.4c.8.8 2.1 1.4 3.6 2.2C36.4 18.9 44 22.5 44 40"/><path d="M27 16H17c-1.1 0-2-.9-2-2v-2c0-1.1.9-2 2-2h10c1.1 0 2 .9 2 2v2c0 1.1-.9 2-2 2m-10-4v2h10v-2H17z"/><path d="M26 12h-8c-.4 0-.7-.2-.9-.6l-4-8c-.2-.5 0-1.1.4-1.3l4-2c.3-.1.6-.1.9 0L22 1.9 25.6.1c.3-.1.6-.1.9 0l4 2c.5.2.7.8.4 1.3l-4 8c-.2.4-.5.6-.9.6m-7.4-2h6.8l3.3-6.6L26 2.1l-3.6 1.8c-.3.1-.6.1-.9 0L18 2.1l-2.7 1.3 3.3 6.6zm9.4 4v-2c1.7 0 3-1.3 3-3h2c0 2.8-2.2 5-5 5m-12 0c-2.8 0-5-2.2-5-5h2c0 1.7 1.3 3 3 3v2zm6 34c-7.2 0-13-5.8-13-13s5.8-13 13-13 13 5.8 13 13-5.8 13-13 13m0-24c-6.1 0-11 4.9-11 11s4.9 11 11 11 11-4.9 11-11-4.9-11-11-11m16 40h-8c-1.1 0-2-.9-2-2v-2c0-1.1.9-2 2-2h8c1.1 0 2 .9 2 2v2c0 1.1-.9 2-2 2m-8-4v2h8v-2h-8z"/><path d="M38 60h-8c-1.1 0-2-.9-2-2v-2c0-1.1.9-2 2-2h8c1.1 0 2 .9 2 2v2c0 1.1-.9 2-2 2m-8-4v2h8v-2h-8z"/><path d="M38 56h-8c-1.1 0-2-.9-2-2v-2c0-1.1.9-2 2-2h8c1.1 0 2 .9 2 2v2c0 1.1-.9 2-2 2m-8-4v2h8v-2h-8zm18 12h-8c-1.1 0-2-.9-2-2v-2c0-1.1.9-2 2-2h8c1.1 0 2 .9 2 2v2c0 1.1-.9 2-2 2m-8-4v2h8v-2h-8z"/><path d="M48 60h-8c-1.1 0-2-.9-2-2v-2c0-1.1.9-2 2-2h8c1.1 0 2 .9 2 2v2c0 1.1-.9 2-2 2m-8-4v2h8v-2h-8z"/><path d="M48 56h-8c-1.1 0-2-.9-2-2v-2c0-1.1.9-2 2-2h8c1.1 0 2 .9 2 2v2c0 1.1-.9 2-2 2m-8-4v2h8v-2h-8z"/><path d="M48 52h-8c-1.1 0-2-.9-2-2v-2c0-1.1.9-2 2-2h8c1.1 0 2 .9 2 2v2c0 1.1-.9 2-2 2m-8-4v2h8v-2h-8z"/><path d="M48 48h-8c-1.1 0-2-.9-2-2v-2c0-1.1.9-2 2-2h8c1.1 0 2 .9 2 2v2c0 1.1-.9 2-2 2m-8-4v2h8v-2h-8zm18 20h-8c-1.1 0-2-.9-2-2v-2c0-1.1.9-2 2-2h8c1.1 0 2 .9 2 2v2c0 1.1-.9 2-2 2m-8-4v2h8v-2h-8z"/><path d="M58 60h-8c-1.1 0-2-.9-2-2v-2c0-1.1.9-2 2-2h8c1.1 0 2 .9 2 2v2c0 1.1-.9 2-2 2m-8-4v2h8v-2h-8z"/><path d="M58 56h-8c-1.1 0-2-.9-2-2v-2c0-1.1.9-2 2-2h8c1.1 0 2 .9 2 2v2c0 1.1-.9 2-2 2m-8-4v2h8v-2h-8z"/><path d="M58 52h-8c-1.1 0-2-.9-2-2v-2c0-1.1.9-2 2-2h8c1.1 0 2 .9 2 2v2c0 1.1-.9 2-2 2m-8-4v2h8v-2h-8z"/><path d="M58 48h-8c-1.1 0-2-.9-2-2v-2c0-1.1.9-2 2-2h8c1.1 0 2 .9 2 2v2c0 1.1-.9 2-2 2m-8-4v2h8v-2h-8z"/><path d="M58 44h-8c-1.1 0-2-.9-2-2v-2c0-1.1.9-2 2-2h8c1.1 0 2 .9 2 2v2c0 1.1-.9 2-2 2m-8-4v2h8v-2h-8z"/><path d="M58 40h-8c-1.1 0-2-.9-2-2v-2c0-1.1.9-2 2-2h8c1.1 0 2 .9 2 2v2c0 1.1-.9 2-2 2m-8-4v2h8v-2h-8zm8-6h-8c-1.1 0-2-.9-2-2v-2c0-1.1.9-2 2-2h8c1.1 0 2 .9 2 2v2c0 1.1-.9 2-2 2m-8-4v2h8v-2h-8zm1-12h2v8h-2zm4-6h2v8h-2zm-4 2h2v2h-2zm4 8h2v2h-2z"/></symbol><symbol id="my-addresses" viewBox="0 0 297 297"><path d="M240.833 0h-184C44.15 0 33.5 10.317 33.5 23v251c0 12.683 10.65 23 23.333 23H218.48l45.02-45.354V23c0-12.683-9.984-23-22.667-23zM49.5 274V23c0-3.859 3.474-7 7.333-7h184c3.859 0 6.667 3.141 6.667 7v217h-41v41H56.833c-3.859 0-7.333-3.141-7.333-7z"/><path d="M66.5 49h82v16h-82zm0 33h165v16h-165zm0 33h165v16h-165zm0 33h165v16h-165zm46.088 32.78L67.035 230H82.5v34h21v-25.632a8 8 0 1 1 16 0V264h22v-34h16.131l-45.043-49.22zm72.67 37.149l-18.265-19.411-11.652 10.964 30.663 32.589 45.65-54.96-12.308-10.222z"/></symbol><symbol id="my-information" viewBox="0 0 496 496"><path d="M472 16h-73.473C395.215 6.71 386.414 0 376 0H264c-10.414 0-19.215 6.71-22.527 16H168c-13.23 0-24 10.77-24 24v104h-27.246a56.046 56.046 0 0 0-27.793 7.383L45.87 176H0v144h53.574l33.89 22.594A55.783 55.783 0 0 0 118.528 352H144v120c0 13.23 10.77 24 24 24h304c13.23 0 24-10.77 24-24V40c0-13.23-10.77-24-24-24zM192 208h16c17.648 0 32-14.352 32-32s-14.352-32-32-32h-16V64h49.473c3.312 9.29 12.113 16 22.527 16h112c10.414 0 19.215-6.71 22.527-16H448v384H192zm64-184c0-4.414 3.586-8 8-8h112c4.414 0 8 3.586 8 8v32c0 4.414-3.586 8-8 8H264c-4.414 0-8-3.586-8-8zm-96 16c0-4.414 3.586-8 8-8h72v16h-64v96h-16zm-41.473 296a39.84 39.84 0 0 1-22.183-6.719L58.426 304H16V192h34.129l46.773-26.727A40.07 40.07 0 0 1 116.754 160H208c8.824 0 16 7.176 16 16s-7.176 16-16 16h-96v8c0 22.055-17.945 40-40 40v16c28.168 0 51.535-20.895 55.434-48H144v128zM480 472c0 4.414-3.586 8-8 8H168c-4.414 0-8-3.586-8-8V208h16v256h288V48h-64V32h72c4.414 0 8 3.586 8 8zm0 0"/><path d="M272 32h16v16h-16zm80 0h16v16h-16zm26.984 337.672l-27-7.711-.007-4.059C366.48 347.777 376 330.992 376 312v-16c0-30.871-25.129-56-56-56s-56 25.129-56 56v16c0 18.977 9.512 35.754 24 45.887v4.082l-26.992 7.703C243.93 374.559 232 390.375 232 408.145V432h176v-23.855c0-17.77-11.93-33.586-29.016-38.473zM280 312v-16c0-22.055 17.945-40 40-40s40 17.945 40 40v16c0 22.055-17.945 40-40 40s-40-17.945-40-40zm55.719 53.71L320 386.665l-15.719-20.953C309.273 367.176 314.543 368 320 368s10.727-.824 15.719-2.29zM392 416H248v-7.855c0-10.657 7.16-20.153 17.406-23.083l27.496-7.855L320 413.336l27.098-36.129 27.496 7.855C384.84 387.992 392 397.488 392 408.145zM208 96h16v16h-16zm32 0h192v16H240zm16 32h176v16H256zm0 32h176v16H256zm160 32h16v16h-16zm-160 0h144v16H256zm0 0"/></symbol><symbol id="new-adress" viewBox="0 0 25 26"><g clip-path="url(#a)"><path d="M6.136 9.97a3.842 3.842 0 0 0 3.834 3.835 3.842 3.842 0 0 0 3.835-3.835A3.842 3.842 0 0 0 9.97 6.136 3.842 3.842 0 0 0 6.136 9.97zm6.649 0a2.816 2.816 0 0 1-2.815 2.814A2.816 2.816 0 0 1 7.156 9.97 2.816 2.816 0 0 1 9.97 7.156a2.816 2.816 0 0 1 2.815 2.814z"/><path d="M4.572 18.116c-2.358-2.979-3.552-5.624-3.552-7.859v-.292c0-4.936 4.014-8.95 8.95-8.95a8.911 8.911 0 0 1 8.884 7.869l1.087.989C19.889 4.423 15.44 0 9.97 0 4.474 0 0 4.475 0 9.97v.292c0 2.794 1.635 6.09 4.854 9.791a43.771 43.771 0 0 0 4.604 4.532v-1.348c-1.133-1.01-3.117-2.886-4.886-5.121zm14.246.856h-2.045v2.045h2.045v-2.045z"/><path d="M17.767 12.051l-7.238 6.608.687.753.195-.18.856-.783v4.449a2.264 2.264 0 0 0 2.26 2.26h6.475a2.264 2.264 0 0 0 2.26-2.26V18.45l.856.784.195.18.687-.754-7.233-6.608zm4.48 5.695v5.152c0 .682-.558 1.24-1.24 1.24h-6.475c-.681 0-1.24-.558-1.24-1.24v-5.377l.17-.154 3.967-3.619.343-.313.344.313 3.967 3.619.17.154v.225h-.006z"/></g></symbol><symbol id="obreshetka" viewBox="0 0 24 24"><path d="M23.047 0H.39A.39.39 0 0 0 0 .39v22.657a.39.39 0 0 0 .39.39h22.657a.39.39 0 0 0 .39-.39V.39a.39.39 0 0 0-.39-.391zM3.907 6.533L6.64 9.268V19.53H3.906V6.533zm3.515 3.516l2.344 2.344v7.138H7.422V10.05zm3.125 3.125l2.344 2.344v4.013h-2.344v-6.357zm3.125 3.125L16.9 19.53h-3.23V16.3zm4.334 3.232L3.906 5.43V3.906h1.792L19.53 17.74v1.791h-1.525zm1.525-2.896l-2.734-2.734V3.906h2.734v12.73zm-3.515-3.516l-2.344-2.343v-6.87h2.344v9.213zM12.89 9.995L10.547 7.65V3.906h2.344v6.089zM9.766 6.87L6.802 3.906h2.964V6.87zm9.994-3.745H3.677L1.334.781h20.77L19.76 3.125zm-16.635.552V19.76L.781 22.104V1.334l2.344 2.343zm.552 16.636H19.76l2.344 2.343H1.334l2.343-2.343zm16.636-.553V3.677l2.343-2.343v20.77l-2.343-2.344z" fill="#ACACAC"/><path d="M4.297 1.563h-.781v.78h.78v-.78zm15.234 0h-.781v.78h.781v-.78zM4.297 21.094h-.781v.781h.78v-.781zm15.625 0h-.781v.781h.78v-.781zM2.344 3.516h-.781v.78h.78v-.78zm0 15.624h-.781v.782h.78v-.781zM21.875 3.516h-.781v.78h.781v-.78zm0 15.624h-.781v.782h.781v-.781z"/></symbol><symbol id="open-box--order" viewBox="0 0 62.6 64"><path d="M41.5 15.3l-4.2-8.4V4.1c0-2.3-1.9-4.1-4.1-4.1H5.4C3.1 0 1.3 1.9 1.3 4.1V8h34.3l4 8H21.2l-5.5-6.1L0 10l6.2 6.8V64h50V17l6.4-7H46.3l-4.8 5.3zM35.2 6h-32V4.1C3.3 3 4.2 2 5.4 2h27.7c1.2 0 2.1 1 2.1 2.1V6zM4.5 12h10.3l3.7 4.1H8.2L4.5 12zm15.7 50h-12V18h12v44zm34 0h-32V18h32.1v44zm3.9-50.1L54.4 16H43.5l3.7-4.1h10.9z"/><path d="M27.2 42h22V28h-22v14zm2-12h18v10h-18V30zm-2 16h21.7v2H27.2zm0 4h17.7v2H27.2z"/><path d="M31.2 32h2v2h-2zm0 4h2v2h-2zm4-4h10v2h-10zm0 4h10v2h-10z"/></symbol><symbol id="operation-result--fail" viewBox="0 0 15 15"><path d="M7.5 0C3.364 0 0 3.364 0 7.5S3.364 15 7.5 15 15 11.636 15 7.5 11.636 0 7.5 0zm0 14C3.916 14 1 11.084 1 7.5S3.916 1 7.5 1 14 3.916 14 7.5 11.084 14 7.5 14z"/><path d="M10.146 4.146L7.5 6.793 4.854 4.146l-.708.708L6.793 7.5l-2.647 2.646.708.708L7.5 8.207l2.646 2.647.708-.708L8.207 7.5l2.647-2.646z"/></symbol><symbol id="operation-result--success" viewBox="0 0 15 15"><path d="M7.5 0C3.364 0 0 3.364 0 7.5S3.364 15 7.5 15 15 11.636 15 7.5 11.636 0 7.5 0zm0 14C3.916 14 1 11.084 1 7.5S3.916 1 7.5 1 14 3.916 14 7.5 11.084 14 7.5 14z"/><path d="M6.505 8.853L3.861 6.209l-.707.707 3.356 3.356 5.346-5.421-.712-.702z"/></symbol><symbol id="operation__icon--replenish" viewBox="0 0 53 50"><style>.tt0,.tt1{clip-path:url(#SVGID_2_T)}.tt0{stroke:#333;stroke-width:2;stroke-miterlimit:10;fill:none}.tt1{fill:#fff}.tt2,.tt3{clip-path:url(#SVGID_4_T)}.tt2{stroke:#333;stroke-width:2;stroke-miterlimit:10;fill:none}.tt3{fill:#fff}</style><clipPath id="SVGID_2_T"><use xlink:href="#SVGID_1_" overflow="visible"/></clipPath><path class="tt0" d="M40 6V0m3.8 6.6l2.6-4.5m.3 7.5L51.2 7M48 14h5m-11 5v-6H4c-1.7 0-3 1.3-3 3"/><path class="tt1" d="M37.1 19L23 4.9 8.9 19"/><path class="tt0" d="M37.1 19L23 4.9 8.9 19"/><path class="tt1" d="M30 19l-4.9-4.9c-1.4 1.4-2.8 1.4-4.2 0L16 19"/><path class="tt0" d="M30 19l-4.9-4.9c-1.4 1.4-2.8 1.4-4.2 0L16 19"/><path class="tt0" d="M47 49H4c-1.7 0-3-1.3-3-3V16c0 1.7 1.3 3 3 3h43v30z"/><path class="tt1" d="M48 39H33.5c-3 0-5.5-2.5-5.5-5.5s2.5-5.5 5.5-5.5H48c1.1 0 2 .9 2 2v7c0 1.1-.9 2-2 2"/><path class="tt0" d="M48 39H33.5c-3 0-5.5-2.5-5.5-5.5s2.5-5.5 5.5-5.5H48c1.1 0 2 .9 2 2v7c0 1.1-.9 2-2 2z"/><path class="tt1" d="M32 33.5c0-1.4 1.1-2.5 2.5-2.5s2.5 1.1 2.5 2.5-1.1 2.5-2.5 2.5-2.5-1.1-2.5-2.5"/><circle class="tt0" cx="34.5" cy="33.5" r="2.5"/></symbol><symbol id="operation__icon--success" viewBox="0 0 60 56"><style>.st0,.st1{fill:none;stroke:#333;stroke-miterlimit:10}.st1{stroke-width:2}.st2{fill:#fff}.st3{fill:none;stroke:#333;stroke-width:2;stroke-linecap:round;stroke-linejoin:round;stroke-miterlimit:10}</style><path class="st0" d="M53 14H8c-1.1 0-2 .9-2 2v31h49V16c0-1.1-.9-2-2-2z"/><path class="st1" d="M6 46V16c0-1.1.9-2 2-2h45c1.1 0 2 .9 2 2v30"/><path class="st2" d="M59 4v24.1c0 1.6-1.3 2.9-2.9 2.9H37.9l-8.1 7.7c-.6.7-1.8.3-1.8-.6V31h-5c-1.7 0-3-1.4-3-3V4c0-1.7 1.3-3 3-3h33c1.7 0 3 1.3 3 3"/><path class="st1" d="M59 4v24.1c0 1.6-1.3 2.9-2.9 2.9H37.9l-8.1 7.7c-.6.7-1.8.3-1.8-.6V31h-5c-1.7 0-3-1.4-3-3V4c0-1.7 1.3-3 3-3h33c1.7 0 3 1.3 3 3z"/><path class="st3" d="M35 16l4 4 9-11"/><path class="st3" d="M47 16v8H30.9V8H44"/><path class="st1" d="M2 17v-1c0-3.3 2.7-6 6-6h9"/><path class="st2" d="M59 46H37l-1 1H24l-1-1H1v2c0 1.7 1.3 3 3 3h52c1.7 0 3-1.3 3-3v-2z"/><path class="st1" d="M59 46H37l-1 1H24l-1-1H1v2c0 1.7 1.3 3 3 3h52c1.7 0 3-1.3 3-3v-2zm-48 9h16"/></symbol><symbol id="palet" viewBox="0 0 25 25"><path d="M25 20v-.833a.834.834 0 0 0-.833-.834h-2.16a1.23 1.23 0 0 0 .076-.416v-7.5a1.24 1.24 0 0 0-.325-.834 1.24 1.24 0 0 0 .325-.833v-7.5c0-.69-.56-1.25-1.25-1.25h-7.5a1.24 1.24 0 0 0-.833.325A1.24 1.24 0 0 0 11.667 0h-7.5c-.69 0-1.25.56-1.25 1.25v7.5c0 .309.117.606.325.833a1.24 1.24 0 0 0-.325.834v7.5c.001.142.027.283.076.416H.833a.834.834 0 0 0-.833.834V20c0 .46.373.833.833.833V22.5a.834.834 0 0 0-.833.833v.834c0 .46.373.833.833.833h23.334c.46 0 .833-.373.833-.833v-.834a.834.834 0 0 0-.833-.833v-1.667c.46 0 .833-.373.833-.833zM12.917 1.25c0-.23.186-.416.416-.417h7.5c.23 0 .417.187.417.417v.417h-8.333V1.25zm0 1.25h5.602l-5.602 3.424V2.5zm0 4.4l7.2-4.4h1.133v.6l-7.2 4.4h-1.133v-.6zm8.333-2.824V7.5h-5.602l5.602-3.424zm-8.333 4.257h8.333v.417c0 .23-.187.416-.417.417h-7.5a.417.417 0 0 1-.416-.417v-.417zm0 2.084c0-.23.186-.417.416-.417h7.5c.23 0 .417.187.417.417v.416h-8.333v-.416zm0 1.25h5.602l-5.602 3.423v-3.423zm0 4.4l7.2-4.4h1.133v.6l-7.2 4.4h-1.133v-.6zm8.333-2.824v3.424h-5.602l5.602-3.424zM12.917 17.5h8.333v.417c0 .23-.187.416-.417.416h-7.5a.417.417 0 0 1-.416-.416V17.5zM3.75 1.25c0-.23.187-.416.417-.417h7.5c.23 0 .416.187.416.417v.417H3.75V1.25zm0 1.25h5.602L3.75 5.924V2.5zm0 4.4l7.2-4.4h1.133v.6l-7.2 4.4H3.75v-.6zm8.333-2.824V7.5H6.481l5.602-3.424zM3.75 8.333h8.333v.417c0 .23-.186.416-.416.417h-7.5a.417.417 0 0 1-.417-.417v-.417zm0 2.084c0-.23.187-.417.417-.417h7.5c.23 0 .416.187.416.417v.416H3.75v-.416zm0 1.25h5.602L3.75 15.09v-3.423zm0 4.4l7.2-4.4h1.133v.6l-7.2 4.4H3.75v-.6zm8.333-2.824v3.424H6.481l5.602-3.424zM3.75 17.5h8.333v.417c0 .23-.186.416-.416.416h-7.5a.417.417 0 0 1-.417-.416V17.5zm20.417 6.667H.833v-.834h23.334v.834zM1.667 22.5v-1.667h2.5V22.5h-2.5zM5 22.5v-1.667h5.417V22.5H5zm6.25 0v-1.667h2.5V22.5h-2.5zm3.333 0v-1.667H20V22.5h-5.417zm6.25 0v-1.667h2.5V22.5h-2.5zM23.75 20H.833v-.833h23.334V20h-.417z"/></symbol><symbol id="payment-information__download" viewBox="0 0 64 60"><style>.pt0,.pt1,.pt2{fill:#222829}.pt1{clip-path:url(#SVGID_2_T1)}.pt2{clip-path:url(#SVGID_4_T)}</style><path class="pt0" d="M37.4 56l2-2H62v.6L58.6 58H5.4L2 54.6V54h22.6l2 2h10.8zm1.2-4l-2 2h-9.2l-2-2H0v3.4L4.6 60h54.8l4.6-4.6V52H38.6z"/><clipPath id="SVGID_2_T1"><use xlink:href="#SVGID_1_" overflow="visible"/></clipPath><path class="pt1" d="M6 50H4V20c0-2.2 1.8-4 4-4h6v2H8c-1.1 0-2 .9-2 2v30zm52-17h2v17h-2z"/><path class="pt1" d="M56 48H8V20h6v2h-4v24h44V33h2zm-6-19h8v2h-8zM20 10h24v2H20zm0 4h24v2H20zm0 4h24v2H20z"/><path class="pt1" d="M18 44h-2V6c0-3.3 2.7-6 6-6h29v2H22c-2.2 0-4 1.8-4 4v38z"/><path class="pt1" d="M31 6h2v2h-2zm-4 0h2v2h-2zm8 0h2v2h-2zm13 38h-2V5c0-2.8 2.2-5 5-5s5 2.2 5 5v22c0 1.1.9 2 2 2s2-.9 2-2V8h-2V6h4v21c0 2.2-1.8 4-4 4s-4-1.8-4-4V5c0-1.7-1.3-3-3-3s-3 1.3-3 3v39zm-16-4c-2.2 0-4-1.8-4-4h2c0 1.1.9 2 2 2s2-.9 2-2c0-.6-1.4-1.6-2.4-2.1-.6-.3-3.6-1.7-3.6-3.9s1.8-4 4-4 4 1.8 4 4h-2c0-1.1-.9-2-2-2s-2 .9-2 2c0 .6 1.4 1.6 2.4 2.1.6.3 3.6 1.7 3.6 3.9s-1.8 4-4 4"/><path class="pt1" d="M31 24h2v3h-2zm0 15h2v3h-2zm7-7h2v2h-2zm-14 0h2v2h-2z"/></symbol><symbol id="poezd" viewBox="0 0 30 29"><g clip-path="url(#clip0)" fill="#333"><path d="M14.313 1.625H11.25C11.25 1.25 11 1 10.625 1S10 1.25 10 1.625H5C5 1.25 4.75 1 4.375 1s-.625.25-.625.625H.687A.694.694 0 0 0 0 2.313v13c0 .374.313.687.688.687h13.624a.694.694 0 0 0 .688-.688v-13a.694.694 0 0 0-.688-.687zM13.75 14.75H1.25V6h12.5v8.75zm0-9.375H1.25v-2.5h2.5V3.5c0 .375.25.625.625.625S5 3.875 5 3.5v-.625h5V3.5c0 .375.25.625.625.625s.625-.25.625-.625v-.625h2.5v2.5z"/><path d="M6.438 12.063c.25.25.625.25.875 0L9.874 9.5a.604.604 0 0 0 0-.875.604.604 0 0 0-.875 0l-2.125 2.188L6 9.937a.604.604 0 0 0-.875 0 .604.604 0 0 0 0 .876l1.313 1.25z"/></g></symbol><symbol id="change-password" viewBox="0 0 480 480"><path d="M13.536 350l10.588-12A24.021 24.021 0 0 1 16 320V40c.015-13.248 10.752-23.985 24-24h400c13.248.015 23.985 10.752 24 24v280c-.015 13.248-10.752 23.985-24 24H304v16h136c22.081-.025 39.975-17.919 40-40V40c-.025-22.081-17.919-39.975-40-40H40C17.919.025.025 17.919 0 40v280a40.035 40.035 0 0 0 13.536 30z"/><path d="M40 32h16v16H40zm32 0h16v16H72zm32 0h16v16h-16zM40 64h400v16H40zm344 48c-30.928 0-56 25.072-56 56s25.072 56 56 56 56-25.072 56-56c-.035-30.913-25.086-55.965-56-56zm0 96c-22.091 0-40-17.909-40-40s17.909-40 40-40 40 17.909 40 40c-.025 22.081-17.919 39.975-40 40z"/><path d="M402.343 146.343L376 172.687l-10.343-10.344-11.314 11.314 16 16a8 8 0 0 0 11.314 0l32-32zM344 240h80v16h-80zm0 32h80v16h-80zM240 112c-30.928 0-56 25.072-56 56s25.072 56 56 56 56-25.072 56-56c-.035-30.913-25.086-55.965-56-56zm0 96c-22.091 0-40-17.909-40-40s17.909-40 40-40 40 17.909 40 40c-.025 22.081-17.919 39.975-40 40z"/><path d="M258.343 146.343L232 172.687l-10.343-10.344-11.314 11.314 16 16a8 8 0 0 0 11.314 0l32-32zM200 240h80v16h-80zm0 32h80v16h-80zM96 128a39.97 39.97 0 0 1 33.341 17.915l13.324-8.857c-17.085-25.776-51.83-32.822-77.606-15.738A55.995 55.995 0 0 0 40 168c0 3.124.259 6.243.774 9.325l15.78-2.648A40.477 40.477 0 0 1 56 168c.025-22.081 17.919-39.975 40-40z"/><path d="M8 480h224a7.934 7.934 0 0 0 3.688-.906c24.485-3.736 46.912-18.828 57.422-39.094H336a8 8 0 0 0 5.657-2.343L352 427.313l10.343 10.344A8 8 0 0 0 368 440h16a8 8 0 0 0 5.657-2.343L400 427.313l10.343 10.344A8 8 0 0 0 416 440h16a8 8 0 0 0 6.656-3.562l16-24a8 8 0 0 0 0-8.876l-16-24A8 8 0 0 0 432 376H293.11c-12.171-23.46-40.3-40-69.11-40a71.585 71.585 0 0 0-39.977 12.152l-5.472-2.179a19.123 19.123 0 0 1-2.2-1.016 2.486 2.486 0 0 0-.2-.1c-14.547-7.398-20.342-25.188-12.944-39.735a29.583 29.583 0 0 1 4.325-6.317A63.743 63.743 0 0 0 184 256v-29.68c0-25.542-14.446-49.119-36.777-60.053A60.726 60.726 0 0 0 122.016 160a62.795 62.795 0 0 0-24.311 4.013 60.757 60.757 0 0 0-18.154 10.45A64.201 64.201 0 0 0 56 224v32a64.175 64.175 0 0 0 16.475 42.814c9.034 10.1 10.041 25.05 2.442 36.269-.034.049-.067.1-.1.15a27.102 27.102 0 0 1-10.917 9.592 6.147 6.147 0 0 0-.255.132c-.711.385-1.446.724-2.2 1.016l-.1.038L25.084 360.5A39.93 39.93 0 0 0 0 397.68V472a8 8 0 0 0 8 8zm216-128c24.175 0 48.5 15.048 56.585 35a7.999 7.999 0 0 0 7.415 5h139.719l10.666 16-10.666 16h-8.406l-13.656-13.657a8 8 0 0 0-11.314 0L380.687 424h-9.374l-13.656-13.657a8 8 0 0 0-11.314 0L332.687 424H288a7.999 7.999 0 0 0-7.415 5c-8.084 19.956-32.41 35-56.585 35-30.928 0-56-25.072-56-56s25.072-56 56-56zM16 397.68a23.985 23.985 0 0 1 15.049-22.331l36.193-14.462a34.897 34.897 0 0 0 3.862-1.775 43.5 43.5 0 0 0 17.068-15.068c11.722-17.318 10.145-40.394-3.825-55.956a46.819 46.819 0 0 1-7.659-11.477l-.045-.094A46.724 46.724 0 0 1 72 256v-32a48.205 48.205 0 0 1 17.802-37.249A44.915 44.915 0 0 1 103.31 179a46.836 46.836 0 0 1 18.2-3.007 44.883 44.883 0 0 1 18.647 4.629C157.073 188.905 168 206.841 168 226.32V256a47.768 47.768 0 0 1-12.326 32.066c-16.818 18.707-15.286 47.506 3.422 64.324a45.533 45.533 0 0 0 9.771 6.71c.537.287 1.076.547 1.612.8-26.57 29.485-24.207 74.926 5.278 101.495a72.2 72.2 0 0 0 3.058 2.605H16z"/><path d="M208 432c13.255 0 24-10.745 24-24s-10.745-24-24-24-24 10.745-24 24c.015 13.249 10.751 23.985 24 24zm0-32a8 8 0 1 1-8 8 8.01 8.01 0 0 1 8-8z"/></symbol><symbol id="check" viewBox="0 0 32 32"><path fill="none" d="M0 0h32v32H0z"/><path d="M4 16l4-4 6 6L26 6l4 4-16 16z"/></symbol><symbol id="comment-save" viewBox="0 0 10 10"><path d="M5 0C2.243 0 0 2.243 0 5c0 2.758 2.243 5 5 5 2.758 0 5-2.242 5-5 0-2.757-2.242-5-5-5zm2.205 4.47l-2.14 2.14a.77.77 0 0 1-1.08 0l-1.19-1.19a.762.762 0 0 1 1.078-1.077l.65.65L6.125 3.39a.763.763 0 1 1 1.08 1.08z" fill="#333"/></symbol><symbol id="copy" viewBox="0 0 360.2 440.3"><path fill="#222" d="M159.8 80c-.7 0-1.5.1-2.2.2H16c-8.8 0-16 7.2-16 16v328c0 8.8 7.2 16 16 16h248c8.8 0 16-7.2 16-16V202.9c1-5.8-1.4-11.7-6-15.3L172.6 86.2c-3.1-4-7.8-6.2-12.8-6.2M32 112.3h112v85.4c-.8 5.1.9 10.4 4.6 14l.1.1c.1.1.2.1.2.2 3.6 3.5 8.7 5 13.7 4.2H248v192H32V112.3zm144 22.6l49.4 49.4H176v-49.4z"/><path fill="#BFBFBF" d="M239.8 0c-.7 0-1.5.1-2.2.2H96c-4.2 0-8.4 1.7-11.3 4.7-3 3-4.7 7.1-4.7 11.3v44h32v-28h112v65.3l38.7 38.7H328v192h-28v32h44c4.2 0 8.4-1.7 11.3-4.7 3-3 4.7-7.1 4.7-11.3V122.8c.9-5.7-1.5-11.8-6-15.3L252.6 6.2c-3-3.9-7.9-6.3-12.8-6.2M256 54.9l49.4 49.4H256V54.9z"/></symbol><symbol id="cross" viewBox="0 0 48 48"><path d="M38 12.83L35.17 10 24 21.17 12.83 10 10 12.83 21.17 24 10 35.17 12.83 38 24 26.83 35.17 38 38 35.17 26.83 24z"/><path d="M0 0h48v48H0z" fill="none"/></symbol><symbol id="delivery" viewBox="0 0 48 53"><g clip-path="url(#a)"><path d="M4.528 29.642c-.5 0-.905.402-.905.899v3.592c0 .497.405.899.905.899s.906-.402.906-.898V30.54a.902.902 0 0 0-.906-.899zm3.622 1.797c-.5 0-.905.402-.905.898v3.593c0 .496.405.898.906.898.5 0 .905-.402.905-.898v-3.593a.902.902 0 0 0-.905-.898zm33.032 4.821a.91.91 0 0 0-1.25.276.895.895 0 0 0 .236 1.212 5.363 5.363 0 0 1 1.472 7.48c-1.676 2.469-5.053 3.122-7.541 1.46a5.363 5.363 0 0 1-1.473-7.48 5.447 5.447 0 0 1 4.504-2.379c.5 0 .906-.402.906-.898a.902.902 0 0 0-.906-.898c-4.001 0-7.244 3.219-7.244 7.187 0 3.968 3.246 7.185 7.247 7.185 4 0 7.243-3.22 7.243-7.187a7.168 7.168 0 0 0-3.194-5.958z"/><path d="M47.571 39.234a10.8 10.8 0 0 0-5.913-6.807V12.575a.896.896 0 0 0-.444-.773L21.29.125a.909.909 0 0 0-.921 0L.445 11.802c-.02.011-.033.027-.051.04-.018.011-.035.026-.053.04a.924.924 0 0 0-.2.22c0 .006-.012.01-.015.015v.007a.875.875 0 0 0-.102.294c0 .027-.008.052-.012.079-.003.027-.012.052-.012.079V35.93c0 .318.169.612.445.773l19.924 11.678a.83.83 0 0 0 .073.03c.025.012.05.023.076.033.2.083.423.083.622 0a.648.648 0 0 0 .078-.033c.023-.011.048-.017.072-.03l5.408-3.17c1.664 5.717 7.685 9.014 13.45 7.363 5.763-1.65 9.087-7.622 7.423-13.34zM20.829 1.941l4.71 2.76-6.983 4.093a.894.894 0 0 0-.32 1.23.91.91 0 0 0 1.242.317l7.841-4.592 4.71 2.76-18.144 10.63-4.709-2.76 7.587-4.446a.894.894 0 0 0 .32-1.23.91.91 0 0 0-1.241-.317l-8.445 4.95-4.71-2.76L20.828 1.94zm-7.85 18.756v5.998l-4.678-2.742v-5.998l4.679 2.742zM26.622 39.44c-.241.906-.361 1.84-.358 2.777 0 .376.02.75.06 1.125l-4.588 2.691v-2.918a.902.902 0 0 0-.906-.898c-.5 0-.905.402-.905.898v2.917L1.81 35.418V14.15l4.68 2.742v7.57c0 .319.169.614.445.775l6.49 3.805a.91.91 0 0 0 1.366-.774v-6.511l5.132 3.008v14.757c0 .496.405.898.905.898s.906-.402.906-.898V24.766l16.413-9.62a.895.895 0 0 0 .32-1.231.91.91 0 0 0-1.241-.317L20.829 23.21l-5.162-3.026L33.81 9.549l6.037 3.539v18.71c-5.78-1.512-11.702 1.91-13.226 7.643zM37.13 51.2c-5.002 0-9.057-4.023-9.057-8.983 0-4.961 4.055-8.983 9.056-8.983 5.002 0 9.056 4.022 9.056 8.983-.005 4.958-4.057 8.976-9.056 8.982z"/><path d="M40.465 39.787a.913.913 0 0 0-1.259 0l-3.434 3.406-.718-.712a.91.91 0 0 0-1.28.023.894.894 0 0 0 0 1.248l1.358 1.348c.354.35.927.35 1.28 0l4.076-4.042a.894.894 0 0 0-.023-1.271z"/></g></symbol><symbol id="error-icon" viewBox="0 0 86 102.4"><path d="M81.1 15.5L70.5 4.9v.4l10.2 10.2z"/><path d="M0 0v93.4l9 9 8.5-8.5 8.5 8.5 8.5-8.5 8.5 8.5 8.5-8.5 8.5 8.5 8.5-8.5 8.5 8.5 9-9V18.5h-3v73.7l-6 6-8.5-8.5-8.5 8.5-8.5-8.5-8.5 8.5-8.5-8.5-8.5 8.5-8.5-8.5L9 98.2l-6-6V3h64.5V0z"/><path d="M80.7 15.5H70.5V5.3L68.2 3h-.7v15.5H83v-.7z"/><path d="M67.5 0v3h.7l2.3 2.3v-.4l10.6 10.6h-.4l2.3 2.3v.7h3v-1.9L69.4 0zM22.015 29.728l1.697-1.697 13.294 13.294-1.697 1.697zM19.2 56.3h48.3v2.4H19.2z"/><path d="M22.086 41.253l13.293-13.294 1.697 1.697L23.783 42.95zm26.837-11.505l1.697-1.697 13.293 13.294-1.697 1.697z"/><path d="M48.993 41.272l13.293-13.294 1.697 1.697L50.69 42.97zM65.4 58.6V67c0 2.7-2.2 4.9-4.9 4.9s-4.9-2.2-4.9-4.9v-8.4h-2.1V67c0 3.9 3.2 7.1 7.1 7.1 3.9 0 7.1-3.2 7.1-7.1v-8.4h-2.3z"/><path d="M58.5 57.5h2v6h-2z"/></symbol><symbol id="filter" viewBox="0 0 15 16"><path d="M12.49 4.387a1.602 1.602 0 0 0-1.538-1.16 1.6 1.6 0 0 0-1.538 1.16H0v.879h9.414c.191.669.808 1.16 1.538 1.16s1.347-.491 1.538-1.16H15v-.879h-2.51zm-1.538 1.16a.722.722 0 1 1 .002-1.443.722.722 0 0 1-.002 1.443zM2.817 6.903c-.73 0-1.347.491-1.538 1.16H0v.88h1.279c.191.668.808 1.16 1.538 1.16s1.347-.492 1.538-1.16H15v-.88H4.355a1.603 1.603 0 0 0-1.538-1.16zm0 2.32a.722.722 0 1 1 .002-1.443.722.722 0 0 1-.002 1.444zm4.929 1.357c-.73 0-1.346.49-1.538 1.16H0v.878h6.208a1.6 1.6 0 0 0 3.076 0H15v-.879H9.284a1.602 1.602 0 0 0-1.538-1.16zm0 2.32a.722.722 0 1 1 .002-1.444.722.722 0 0 1-.002 1.444z"/></symbol><symbol id="icon-box" viewBox="0 0 482 482"><path d="M279.8 244.8l-21.6 12.5V482l194.5-112.3V145zM315 43.3L240.2 0 40.3 115.4l74.9 43.3zm125 72.1l-86.2-49.1L154 181.7l11.4 5.9 74.8 43.2 74.4-42.9zM138.9 264.3l-35.8-18.4v-57.2l-73.8-42.5v223.1l193.1 111.5V257.7l-83.5-48.1z"/></symbol><symbol id="icon-information" viewBox="0 0 437.6 437.6"><path d="M194 142.8c.8 1.6 1.6 3.2 2.4 4.4.8 1.2 2 2.4 2.8 3.6 1.2 1.2 2.4 2.4 4 3.6 1.2.8 2.8 2 4.8 2.4 1.6.8 3.2 1.2 5.2 1.6 2 .4 3.6.4 5.2.4s3.6 0 5.2-.4 3.2-.8 4.4-1.6h.4c1.6-.8 3.2-1.6 4.8-2.8 1.2-.8 2.4-2 3.6-3.2l.4-.4c1.2-1.2 2-2.4 2.8-3.6s1.6-2.4 2-4c0-.4 0-.4.4-.8.8-1.6 1.2-3.6 1.6-5.2.4-1.6.4-3.6.4-5.2s0-3.6-.4-5.2-.8-3.2-1.6-5.2c-1.2-2.8-2.8-5.2-4.8-7.2l-.8-.8c-1.2-1.2-2.4-2-4-3.2-1.6-.8-2.8-1.6-4.4-2.4-1.6-.8-3.2-1.2-4.8-1.6-2-.4-3.6-.4-5.2-.4s-3.6 0-5.2.4-3.2.8-4.8 1.6h-.4c-1.6.8-3.2 1.6-4.4 2.4-1.6 1.2-2.8 2-4 3.2-1.2 1.2-2.4 2.4-3.2 3.6-.8 1.2-1.6 2.8-2.4 4.4-.8 1.6-1.2 3.2-1.6 4.8-.4 2-.4 3.6-.4 5.2s0 3.6.4 5.2c.4 3.2 1.2 4.8 1.6 6.4zm55.6 146.4h-9.2v-98c0-5.6-4.4-10.4-10.4-10.4h-42c-5.6 0-10.4 4.4-10.4 10.4v21.6c0 5.6 4.4 10.4 10.4 10.4h8.4v66.4H188c-5.6 0-10.4 4.4-10.4 10.4v21.6c0 5.6 4.4 10.4 10.4 10.4h61.6c5.6 0 10.4-4.4 10.4-10.4V300c0-6-4.8-10.8-10.4-10.8z"/><path d="M218.8 0C98 0 0 98 0 218.8s98 218.8 218.8 218.8 218.8-98 218.8-218.8S339.6 0 218.8 0zm0 408.8c-104.8 0-190-85.2-190-190s85.2-190 190-190 190 85.2 190 190-85.2 190-190 190z"/></symbol><symbol id="icon-money" viewBox="0 0 25.771 25.771"><path d="M24.171 13.728v9.8h-18.8v-9.8h18.8m1.6-1.6h-22v13h22v-13z" fill="#030104"/><g fill="#030104"><path d="M19.771 12.128l2.252 2.252c-.017.083-.05.16-.05.248 0 .717.581 1.297 1.298 1.297.088 0 .164-.033.247-.049l2.253 2.252v-6h-6z"/><circle cx="21.271" cy="18.628" r="1.298"/><ellipse cx="14.771" cy="18.628" rx="3.926" ry="3.414"/><circle cx="8.271" cy="18.628" r="1.297"/><path d="M3.771 18.128l2.252-2.252c.083.017.16.05.248.05.717 0 1.297-.581 1.297-1.298 0-.088-.033-.164-.05-.247l2.253-2.253h-6v6zm3.798 4.5c0-.717-.581-1.297-1.298-1.297-.088 0-.164.033-.247.049l-2.253-2.252v6h6l-2.252-2.252c.017-.083.05-.161.05-.248zm15.702-1.298c-.717 0-1.297.581-1.297 1.298 0 .088.033.164.05.247l-2.253 2.253h6v-6l-2.252 2.252c-.083-.017-.16-.05-.248-.05z"/></g><g fill="#030104"><circle cx="18.473" cy="8.505" r="1.297"/><path d="M2.271 12.128a1.5 1.5 0 0 1 1.5-1.5h.82l.037-.128 11.577-6.34.885.258c.025.08.034.164.077.241.344.63 1.132.859 1.762.515.076-.042.128-.107.191-.162l.887.26 2.017 3.682-.259.886c-.079.024-.163.033-.24.075-.293.16-.488.422-.591.713h3.831l-2.586-4.723h.001L19.297.643l-5.264 2.882h.001L5.263 8.328 0 11.21l2.271 4.147v-3.229z"/><path d="M11.131 8.634a4.231 4.231 0 0 0-1.85 1.994h7.233a2.967 2.967 0 0 0-.299-.885c-.907-1.654-3.182-2.15-5.084-1.109z"/></g></symbol><symbol id="icon-percentage" viewBox="0 0 488.027 488.027"><circle cx="179.163" cy="202.563" r="20.4"/><circle cx="308.763" cy="285.363" r="20.4"/><path d="M476.963 270.963l-7.4-10.1c-8-11-8.2-25.9-.3-37.1l7.2-10.2c11-15.6 5.9-37.3-11-46.4l-11-5.9c-12-6.4-18.6-19.8-16.3-33.3l2.1-12.3c3.2-18.8-10.9-36.2-30-37l-12.5-.5c-13.6-.6-25.4-9.8-29.2-22.9l-3.5-12c-5.3-18.4-25.5-27.9-43.1-20.3l-11.5 4.9c-12.5 5.4-27.1 2.2-36.2-8l-8.3-9.3c-12.7-14.2-35-14.1-47.6.4l-8.2 9.4c-9 10.3-23.5 13.7-36.1 8.5l-11.6-4.8c-17.7-7.3-37.7 2.6-42.8 21l-3.3 12.1c-3.6 13.2-15.2 22.6-28.8 23.3l-12.5.7c-19.1 1.1-32.9 18.7-29.4 37.5l2.3 12.3c2.5 13.4-3.9 26.9-15.8 33.5l-10.9 6.1c-16.7 9.3-21.5 31.1-10.2 46.5l7.4 10.1c8 11 8.2 25.9.3 37.1l-7.2 10.2c-11 15.6-5.9 37.3 11 46.4l11 5.9c12 6.4 18.6 19.8 16.3 33.3l-2.1 12.3c-3.2 18.8 10.9 36.2 30 37l12.5.5c13.6.6 25.4 9.8 29.2 22.9l3.5 12c5.3 18.4 25.5 27.9 43.1 20.3l11.5-4.9c12.5-5.4 27.1-2.2 36.2 8l8.3 9.3c12.8 14.2 35.1 14.1 47.6-.4l8.2-9.4c9-10.3 23.5-13.7 36.1-8.5l11.6 4.8c17.7 7.3 37.7-2.6 42.8-21l3.3-12.1c3.6-13.2 15.2-22.6 28.8-23.3l12.5-.7c19.1-1.1 32.9-18.7 29.4-37.5l-2.3-12.3c-2.5-13.4 3.9-26.9 15.8-33.5l10.9-6.1c16.7-9.2 21.5-31 10.2-46.5zm-347.1-68.4c0-27.2 22-49.2 49.2-49.2s49.2 22 49.2 49.2-22 49.2-49.2 49.2-49.2-22.1-49.2-49.2zm58.7 126.9c-4.2 5.1-11.8 5.8-16.9 1.6-5.1-4.2-5.8-11.8-1.6-16.9l129.1-155.5c4.2-5.1 11.8-5.8 16.9-1.6s5.8 11.8 1.6 16.9l-129.1 155.5zm120.2 5.1c-27.2 0-49.2-22-49.2-49.2s22-49.2 49.2-49.2 49.2 22 49.2 49.2-22 49.2-49.2 49.2z"/></symbol><symbol id="icon-wallet" viewBox="0 0 469.341 469.341"><path d="M437.337 384.007H362.67c-47.052 0-85.333-38.281-85.333-85.333s38.281-85.333 85.333-85.333h74.667a10.66 10.66 0 0 0 10.667-10.667v-32c0-22.368-17.35-40.559-39.271-42.323l-61.26-107c-5.677-9.896-14.844-16.969-25.813-19.906-10.917-2.917-22.333-1.385-32.104 4.302L79.553 128.007H42.67c-23.531 0-42.667 19.135-42.667 42.667v256c0 23.531 19.135 42.667 42.667 42.667h362.667c23.531 0 42.667-19.135 42.667-42.667v-32a10.66 10.66 0 0 0-10.667-10.667zM360.702 87.411l23.242 40.596h-92.971l69.729-40.596zm-238.749 40.596L300.295 24.184c4.823-2.823 10.458-3.573 15.844-2.135 5.448 1.458 9.99 4.979 12.813 9.906l.022.039-164.91 96.013h-42.111z"/><path d="M437.337 234.674H362.67c-35.292 0-64 28.708-64 64s28.708 64 64 64h74.667c17.646 0 32-14.354 32-32v-64c0-17.646-14.354-32-32-32zm-74.667 85.333c-11.76 0-21.333-9.573-21.333-21.333 0-11.76 9.573-21.333 21.333-21.333 11.76 0 21.333 9.573 21.333 21.333.001 11.76-9.572 21.333-21.333 21.333z"/></symbol><symbol id="info" viewBox="0 0 12 14"><path d="M6 4.998c-.347 0-.593.146-.593.363v2.944c0 .185.246.37.593.37.331 0 .601-.185.601-.37V5.36c0-.217-.27-.363-.6-.363zm0-1.816c-.354 0-.632.255-.632.548 0 .294.278.557.632.557.347 0 .624-.263.624-.557 0-.293-.277-.548-.624-.548z"/><path d="M6 0C2.684 0 0 2.69 0 6.012a6.012 6.012 0 0 0 4.184 5.732L5.55 13.76a.545.545 0 0 0 .902 0l1.365-2.016A6.012 6.012 0 0 0 12 6.012 6.003 6.003 0 0 0 6 0zm1.327 10.749a.547.547 0 0 0-.305.22L6 12.478l-1.022-1.51a.546.546 0 0 0-.305-.22A4.92 4.92 0 0 1 6 1.094a4.92 4.92 0 0 1 1.327 9.655z"/></symbol><symbol id="korobka" viewBox="0 0 24 25"><path d="M23.348 5.516L11.938.036a.37.37 0 0 0-.32 0L.208 5.516a.366.366 0 0 0-.208.33v13.308c0 .14.08.269.208.33l11.41 5.48a.37.37 0 0 0 .32 0l11.41-5.48a.366.366 0 0 0 .208-.33V5.846a.367.367 0 0 0-.208-.33zM11.778.773L22.34 5.846l-3.062 1.47a.366.366 0 0 0-.062-.038L8.725 2.238 11.778.774zm-3.884 1.88l10.548 5.066-2.16 1.037L5.737 3.693l2.156-1.04zm10.795 5.76v3.836l-2.018.969V9.383l2.018-.97zm4.13 10.511L12.147 24.05V11.556l2.546-1.223a.365.365 0 0 0 .171-.49.369.369 0 0 0-.491-.17l-2.594 1.246-1.02-.49a.369.369 0 0 0-.492.17.365.365 0 0 0 .171.49l.973.467V24.05L.736 18.924V6.43l8.128 3.904a.368.368 0 0 0 .492-.17.365.365 0 0 0-.172-.49l-7.97-3.827L4.873 4.09 15.929 9.4l.005.007V13.8a.366.366 0 0 0 .368.367c.055 0 .11-.012.16-.037l2.755-1.323a.366.366 0 0 0 .208-.33V8.06l3.395-1.63v12.494z" fill="#ACACAC"/></symbol><symbol id="logo" viewBox="0 0 81.7 22"><style>.st0{fill:#333}.st1,.st2{clip-path:url(#SVGID_2_);fill:#333}.st2{fill:#ffb800}.st3{clip-path:url(#SVGID_4_);fill:url(#SVGID_5_)}.st4{clip-path:url(#SVGID_7_);fill:#ffb800}.st5,.st6{clip-path:url(#SVGID_9_);fill:#333}.st6{fill:#ffb800}.st7{clip-path:url(#SVGID_11_);fill:url(#SVGID_12_)}.st8{clip-path:url(#SVGID_14_);fill:#ffb800}</style><path class="st0" d="M0 3.6v.7h2.3v6.1h1V4.3h2.3v-.7z"/><clipPath id="SVGID_2_"><use xlink:href="#SVGID_1_" overflow="visible"/></clipPath><path class="st1" d="M12.1 5.4v3.2c0 .4-.1.7-.3.9-.2.3-.4.4-.7.6l-.9.3c-.3.1-.6.1-1 .1-1.9 0-2.8-.6-2.8-1.8V5.4c0-1.3.9-1.9 2.8-1.9s2.9.6 2.9 1.9m-1 3.2V5.4c0-.8-.6-1.3-1.9-1.3h-.7c-.2 0-.4.1-.6.2-.2.2-.3.3-.4.5-.1.1-.2.3-.2.6v3.2c0 .8.6 1.2 1.9 1.2 1.3 0 1.9-.4 1.9-1.2m7.2-3.7v1.4c0 .6-.2 1-.7 1.2-.4.2-1.1.4-1.9.4h-1v2.4h-1V3.6h2.9c.2 0 .4 0 .6.1.2.1.4.1.5.2.2.1.3.3.4.4.1.2.2.4.2.6m-1 1.4V5.1c0-.2 0-.3-.1-.5-.1-.1-.2-.2-.4-.3-.2 0-.3-.1-.5-.1h-1.6v3.1h1.2c.4 0 .7-.1 1-.2.2-.2.4-.4.4-.8m7.1 4.1h-5.2v-.7l4-5.4h-3.9v-.7h5v.7l-4 5.4h4.1zm7.1 0h-1.1l-.8-2.1h-2.9l-.7 2.1h-1l2.7-6.8h1.2l2.6 6.8zm-2.1-2.8l-1.2-3.1h-.1L27 7.6h2.4zm4.1 2.8h-1V3.6h1v6.8zm4.6 0h-1.3l-3.2-3.6 3-3.2h1.2l-3.1 3.1 3.4 3.7zm6.6 0h-1.1l-.8-2.1h-2.9l-.8 2.1h-1l2.7-6.8H42l2.7 6.8zm-2.1-2.8l-1.2-3.1h-.1l-1.2 3.1h2.5z"/><path class="st2" d="M50.9 10.4h-5.7v-1l3.6-4.6h-3.5V3.6h5.5v1l-3.5 4.6h3.6zm6.4 0h-5.7v-1l3.6-4.6h-3.4V3.6h5.4v1l-3.5 4.6h3.6z"/><path class="st1" d="M37.1 15.7c-.1.2-1.1 1.7-1.8 2.2-.1.1-.2.1-.3.2h-.2s-.1 0-.1-.1c-.1-.2-.1-.2-.3-.3-.2-.2 0-.5 0-.5.1-.2 2.2-4.8 2.2-4.8s.2-.5.3-.6h.2c.1.1.2.2.2.3 0 .1.1.1.1.2v.3c-.1.2-1.4 2.9-1.5 3-.1.2-.2.4-.3.7-.1.4-.3.8-.4 1.2 0 .1 2.1-2.1 1.9-1.8"/><path class="st1" d="M39.1 16.8c-.1.2-.3.5-.5.7-.3.3-.8.7-1.2.7 0 0-.9-.3-1-.8-.1-.5.2-1.1.4-1.5.1-.4.3-.7.5-1 .1-.2.2-.6.4-.7.2-.2.5 0 .7.2 0 .1.1.2.1.3 0 0 0 .1.1.1h.4l.3.3s.1.6 0 .9c0 .1-.1.5 0 .5l.9-.3v.1c-.3.2-.6.5-1.1.5m-.5 0c-.6-.2-.8-.7-.8-1.2-.2.3-.4.6-.5.9-.1.2-.3.7-.1.9.1.2.3.4.5.3.5-.2.8-.5.9-.9.1.1.1 0 0 0m-.2-1.5c-.1.3-.2.7.1 1 .1.1.2.1.3.1.1 0 .1-.2.2-.3v-.5c-.1-.2-.3-.9-.6-.3"/><path class="st1" d="M43.2 15.7c-.3.7-.4 1.1-.7 1.9-.3.6-.5 1.2-.9 1.7-.2.4-.6.9-1 .8-.7-.2-.9-1-1.1-1.5 0-.1.1-.2.2-.1h.1c.1.1.2.3.3.5.1.1.1.3.2.4.2.2.4-.2.5-.4.6-.9 1-1.8 1.4-2.7-.4.4-1.1 1-1.4 1.4h-.2c-.1 0-.3-.1-.3-.2-.1-.1-.4-.4-.3-.7.1-.5.4-.9.6-1.3.1-.3.3-.6.5-.9.4-.3.9-.4 1.4-.4h.1c.1.1.2.2.3.4.1.1.1.3.2.4-.3-.1-.6-.5-.9-.4-.1.1-.2.2-.3.4v.1c-.3.5-.6 1.1-.9 1.7 0 .1-.1.1-.1.2.2-.1.4-.3.4-.4.1-.1.7-.6 1-1 .1-.2.2-.4.3-.4.2-.1.3.2.5.3l.1.1c.1 0 .1 0 0 .1m1 2.2c-.1.1-.2.1-.3.2h-.2c-.1 0-.1 0-.1-.1-.1-.2-.1-.2-.3-.3-.2-.2 0-.5 0-.5.1-.2 1.1-2.3 1.1-2.3s.2-.5.3-.6h.2c.1.1.2.2.2.3.1.1.1.1.1.2v.3c-.1.2-.3.4-.4.5-.1.2-.2.4-.3.7-.1.4-.3.8-.4 1.2.1.1 2.2-2.1 2-1.8-.3.2-1.2 1.6-1.9 2.2m.8-4.2c-.1-.3.1-.7.2-.9 0-.1.1-.1.1 0 0-.1 0-.1.1-.1.2.1.5.3.5.6 0 .1-.1.2-.2.2-.1.1-.2.2-.3.4-.1.2-.3.1-.4-.2"/><path class="st1" d="M47.3 16.3c.1.4 0 .7-.1 1.1-.2.6-.9.9-1.5.8-.7-.1-.9-.8-.5-1.4.3-.4.7-.7 1.2-1-.1-.6 0-1.2.3-1.6l.1-.2c.1-.2.3-.4.5-.5h.1c.3.1.4.4.5.7v.1s0 .1-.1.1c-.3.2-.6.4-.7.7v.3c.2 0 .9 0 .9.1-.2 0-.7.1-.8.1-.1 0 0 .1 0 .1 0 .3.1.4.1.6m-.8 0c0-.1 0-.1-.1-.2h-.2c-.4.2-1.1.7-.9 1.3.1.2.4.3.6.3.2 0 .4-.1.6-.2.4-.4.2-.9 0-1.2"/><path class="st1" d="M50.5 15.7c-.1.2-1.1 1.7-1.8 2.2-.1.1-.2.1-.3.2h-.2s-.1 0-.1-.1c-.1-.2-.1-.2-.3-.3-.2-.2 0-.5 0-.5 0-.1 1-2.2 1.6-3.6h-.9c-.2 0-.2-.2 0-.2h1l.5-1s.2-.5.3-.6h.2c.1.1.2.2.2.3 0 .1.1.1.1.2v.3l-.4.8h1.4c.1 0 .1.2 0 .2h-1.5c-.4.8-.9 1.9-1 2-.1.2-.2.4-.3.7-.1.4-.3.8-.4 1.2-.1.1 2-2.1 1.9-1.8"/><path class="st1" d="M50.5 17.9c-.1.1-.2.1-.3.2H50c-.1 0-.1 0-.1-.1-.1-.2-.1-.2-.3-.3-.2-.2 0-.5 0-.5.1-.2 1.1-2.3 1.1-2.3s.2-.5.3-.6h.2c.1.1.2.2.2.3.1.1.1.1.1.2v.3c-.1.2-.3.4-.4.5-.1.2-.2.4-.3.7-.1.4-.3.8-.4 1.2.1.1 2.2-2.1 2-1.8-.2.2-1.2 1.6-1.9 2.2.1 0 0 0 0 0m.9-4.2c-.1-.3.1-.7.2-.9 0-.1.1-.1.1 0 0-.1 0-.1.1-.1.2.1.5.3.5.6 0 .1-.1.2-.2.2-.1.1-.2.2-.3.4-.1.2-.4.1-.4-.2"/><path class="st1" d="M54.9 16.2c-.4.4-.8.7-1.2 1-.3.2-.7.6-1.1.7-.2 0-.3 0-.4-.1-1.4-1.1.2-2.6 1-3.6l.1-.1h.2c.1.1.3.3.5.4l.1.1c.1-.1.1-.2.2-.3.1-.1.2-.2.3-.1.1.1.2.2.1.3-.2.2-.3.4-.3.7 0 .1-.1.1-.2.2s-.4 0-.4-.2c0-.5-.4-.2-.6 0-.1.1-.2.3-.3.4-.1.3-.3.7-.4 1.1 0 .1 0 .2.1.4 0 .1.1.2.2.1.3 0 1.1-.5 1.1-.6.2-.1.5-.3.7-.5.2 0 .3 0 .3.1"/><path class="st1" d="M56.6 16.3c.1.4 0 .7-.1 1.1-.2.6-.9.9-1.5.8-.7-.1-.9-.8-.5-1.4.3-.4.7-.7 1.2-1-.1-.6 0-1.2.3-1.6l.1-.2c.1-.2.3-.4.5-.5h.1c.3.1.4.4.5.7v.1s0 .1-.1.1c-.3.2-.6.4-.7.7v.3c.2 0 .9 0 .9.1-.2 0-.7.1-.8.1-.1 0 0 .1 0 .1 0 .3 0 .4.1.6m-.8 0c0-.1 0-.1-.1-.2h-.2c-.4.2-1.1.7-.9 1.3.1.2.4.3.6.3.2 0 .4-.1.6-.2.3-.4.1-.9 0-1.2"/><clipPath id="SVGID_4_"><use xlink:href="#SVGID_3_" overflow="visible"/></clipPath><linearGradient id="SVGID_5_" gradientUnits="userSpaceOnUse" y1="21.741" x2="1" y2="21.741" gradientTransform="scale(14.9601 -14.9601) rotate(59.092 22.552 14.047)"><stop offset="0" stop-color="#ffb800"/><stop offset=".617" stop-color="#ca7334"/><stop offset="1" stop-color="#ca7334"/></linearGradient><path class="st3" d="M53.6 18.9l9.6-16.1 18.5 11L72 30z"/><clipPath id="SVGID_7_"><use xlink:href="#SVGID_6_" overflow="visible"/></clipPath><path class="st4" d="M77 11l-6.4 10.7L58.3 0h12.4z"/></symbol><symbol id="marker" viewBox="0 0 209.513 209.513"><path d="M208.448 193.028l-14.694-14.184 2.423-2.423a3.49 3.49 0 0 0 0-4.938c-11.712-11.712-16.174-18.395-9.879-24.691a3.49 3.49 0 0 0 0-4.938L68.34 23.895 23.895 68.34l117.959 117.959v.003a3.482 3.482 0 0 0 2.469 1.023c.894 0 1.788-.342 2.469-1.023l.007-.007c6.296-6.289 12.976-1.823 24.684 9.886.681.681 1.575 1.023 2.469 1.023s1.788-.342 2.469-1.023l2.469-2.469 9.547 9.547a3.48 3.48 0 0 0 3.611.831l15.116-5.238a3.503 3.503 0 0 0 1.284-5.824zm-87.255-89.298c-.681.681-1.575 1.023-2.469 1.023s-1.788-.342-2.469-1.023L77.844 65.319a3.49 3.49 0 0 1 0-4.938 3.49 3.49 0 0 1 4.938 0l38.411 38.411a3.496 3.496 0 0 1 0 4.938zm5.538 10.476a3.49 3.49 0 0 1 0-4.938 3.49 3.49 0 0 1 4.938 0l13.968 13.967a3.49 3.49 0 0 1 0 4.938c-.681.681-1.575 1.023-2.469 1.023s-1.788-.342-2.469-1.023zm47.213 74.569c-5.049-4.945-11.205-10.388-17.672-11.96l10.27-10.27 10.273-10.27c1.571 6.463 7.015 12.623 11.96 17.672l-2.476 2.476-4.941 4.938zm-97.123 13.751H3.492a3.493 3.493 0 0 0 0 6.984h73.329a3.493 3.493 0 0 0 0-6.984zm27.935 0H90.789a3.493 3.493 0 0 0 0 6.984h13.968a3.493 3.493 0 0 0-.001-6.984zm62.854 0h-48.886a3.493 3.493 0 0 0 0 6.984h48.886a3.493 3.493 0 0 0 0-6.984zM1.526 45.702c.321.482.691.932 1.107 1.355.024.024.042.056.066.084l.003.003 16.255 16.255 44.445-44.445-9.62-9.62-6.638-6.638c-3.6-3.593-9.456-3.59-13.049.007L2.706 34.091c-.042.042-.07.091-.112.136a9.229 9.229 0 0 0-1.061 1.303c-.052.08-.084.171-.136.255a9.145 9.145 0 0 0-1.393 4.836 9.17 9.17 0 0 0 1.418 4.878c.038.063.062.137.104.203z"/></symbol><symbol id="money-bag" viewBox="0 0 60 64"><path d="M22 42c-2.2 0-4-1.8-4-4h2c0 1.1.9 2 2 2s2-.9 2-2c0-.6-1.4-1.6-2.4-2.1-.6-.3-3.6-1.7-3.6-3.9s1.8-4 4-4 4 1.8 4 4h-2c0-1.1-.9-2-2-2s-2 .9-2 2c0 .6 1.4 1.6 2.4 2.1.6.3 3.6 1.7 3.6 3.9s-1.8 4-4 4"/><path d="M21 26h2v3h-2zm0 15h2v3h-2zm7-7h2v2h-2zm-14 0h2v2h-2z"/><path d="M26 64H7c-3.9 0-7-3.1-7-7V41c0-17.6 7.7-21.8 12.8-24.5 1.4-.8 2.7-1.4 3.5-2.2l1.4 1.4c-1 1-2.4 1.7-3.9 2.6C8.8 20.9 2 24.6 2 41v16c0 2.8 2.2 5 5 5h19v2zm18-24h-2c0-16.2-6.7-19.4-11.5-21.7-1.6-.8-3.1-1.5-4.2-2.6l1.4-1.4c.8.8 2.1 1.4 3.6 2.2C36.4 18.9 44 22.5 44 40"/><path d="M27 16H17c-1.1 0-2-.9-2-2v-2c0-1.1.9-2 2-2h10c1.1 0 2 .9 2 2v2c0 1.1-.9 2-2 2m-10-4v2h10v-2H17z"/><path d="M26 12h-8c-.4 0-.7-.2-.9-.6l-4-8c-.2-.5 0-1.1.4-1.3l4-2c.3-.1.6-.1.9 0L22 1.9 25.6.1c.3-.1.6-.1.9 0l4 2c.5.2.7.8.4 1.3l-4 8c-.2.4-.5.6-.9.6m-7.4-2h6.8l3.3-6.6L26 2.1l-3.6 1.8c-.3.1-.6.1-.9 0L18 2.1l-2.7 1.3 3.3 6.6zm9.4 4v-2c1.7 0 3-1.3 3-3h2c0 2.8-2.2 5-5 5m-12 0c-2.8 0-5-2.2-5-5h2c0 1.7 1.3 3 3 3v2zm6 34c-7.2 0-13-5.8-13-13s5.8-13 13-13 13 5.8 13 13-5.8 13-13 13m0-24c-6.1 0-11 4.9-11 11s4.9 11 11 11 11-4.9 11-11-4.9-11-11-11m16 40h-8c-1.1 0-2-.9-2-2v-2c0-1.1.9-2 2-2h8c1.1 0 2 .9 2 2v2c0 1.1-.9 2-2 2m-8-4v2h8v-2h-8z"/><path d="M38 60h-8c-1.1 0-2-.9-2-2v-2c0-1.1.9-2 2-2h8c1.1 0 2 .9 2 2v2c0 1.1-.9 2-2 2m-8-4v2h8v-2h-8z"/><path d="M38 56h-8c-1.1 0-2-.9-2-2v-2c0-1.1.9-2 2-2h8c1.1 0 2 .9 2 2v2c0 1.1-.9 2-2 2m-8-4v2h8v-2h-8zm18 12h-8c-1.1 0-2-.9-2-2v-2c0-1.1.9-2 2-2h8c1.1 0 2 .9 2 2v2c0 1.1-.9 2-2 2m-8-4v2h8v-2h-8z"/><path d="M48 60h-8c-1.1 0-2-.9-2-2v-2c0-1.1.9-2 2-2h8c1.1 0 2 .9 2 2v2c0 1.1-.9 2-2 2m-8-4v2h8v-2h-8z"/><path d="M48 56h-8c-1.1 0-2-.9-2-2v-2c0-1.1.9-2 2-2h8c1.1 0 2 .9 2 2v2c0 1.1-.9 2-2 2m-8-4v2h8v-2h-8z"/><path d="M48 52h-8c-1.1 0-2-.9-2-2v-2c0-1.1.9-2 2-2h8c1.1 0 2 .9 2 2v2c0 1.1-.9 2-2 2m-8-4v2h8v-2h-8z"/><path d="M48 48h-8c-1.1 0-2-.9-2-2v-2c0-1.1.9-2 2-2h8c1.1 0 2 .9 2 2v2c0 1.1-.9 2-2 2m-8-4v2h8v-2h-8zm18 20h-8c-1.1 0-2-.9-2-2v-2c0-1.1.9-2 2-2h8c1.1 0 2 .9 2 2v2c0 1.1-.9 2-2 2m-8-4v2h8v-2h-8z"/><path d="M58 60h-8c-1.1 0-2-.9-2-2v-2c0-1.1.9-2 2-2h8c1.1 0 2 .9 2 2v2c0 1.1-.9 2-2 2m-8-4v2h8v-2h-8z"/><path d="M58 56h-8c-1.1 0-2-.9-2-2v-2c0-1.1.9-2 2-2h8c1.1 0 2 .9 2 2v2c0 1.1-.9 2-2 2m-8-4v2h8v-2h-8z"/><path d="M58 52h-8c-1.1 0-2-.9-2-2v-2c0-1.1.9-2 2-2h8c1.1 0 2 .9 2 2v2c0 1.1-.9 2-2 2m-8-4v2h8v-2h-8z"/><path d="M58 48h-8c-1.1 0-2-.9-2-2v-2c0-1.1.9-2 2-2h8c1.1 0 2 .9 2 2v2c0 1.1-.9 2-2 2m-8-4v2h8v-2h-8z"/><path d="M58 44h-8c-1.1 0-2-.9-2-2v-2c0-1.1.9-2 2-2h8c1.1 0 2 .9 2 2v2c0 1.1-.9 2-2 2m-8-4v2h8v-2h-8z"/><path d="M58 40h-8c-1.1 0-2-.9-2-2v-2c0-1.1.9-2 2-2h8c1.1 0 2 .9 2 2v2c0 1.1-.9 2-2 2m-8-4v2h8v-2h-8zm8-6h-8c-1.1 0-2-.9-2-2v-2c0-1.1.9-2 2-2h8c1.1 0 2 .9 2 2v2c0 1.1-.9 2-2 2m-8-4v2h8v-2h-8zm1-12h2v8h-2zm4-6h2v8h-2zm-4 2h2v2h-2zm4 8h2v2h-2z"/></symbol><symbol id="my-addresses" viewBox="0 0 297 297"><path d="M240.833 0h-184C44.15 0 33.5 10.317 33.5 23v251c0 12.683 10.65 23 23.333 23H218.48l45.02-45.354V23c0-12.683-9.984-23-22.667-23zM49.5 274V23c0-3.859 3.474-7 7.333-7h184c3.859 0 6.667 3.141 6.667 7v217h-41v41H56.833c-3.859 0-7.333-3.141-7.333-7z"/><path d="M66.5 49h82v16h-82zm0 33h165v16h-165zm0 33h165v16h-165zm0 33h165v16h-165zm46.088 32.78L67.035 230H82.5v34h21v-25.632a8 8 0 1 1 16 0V264h22v-34h16.131l-45.043-49.22zm72.67 37.149l-18.265-19.411-11.652 10.964 30.663 32.589 45.65-54.96-12.308-10.222z"/></symbol><symbol id="my-information" viewBox="0 0 496 496"><path d="M472 16h-73.473C395.215 6.71 386.414 0 376 0H264c-10.414 0-19.215 6.71-22.527 16H168c-13.23 0-24 10.77-24 24v104h-27.246a56.046 56.046 0 0 0-27.793 7.383L45.87 176H0v144h53.574l33.89 22.594A55.783 55.783 0 0 0 118.528 352H144v120c0 13.23 10.77 24 24 24h304c13.23 0 24-10.77 24-24V40c0-13.23-10.77-24-24-24zM192 208h16c17.648 0 32-14.352 32-32s-14.352-32-32-32h-16V64h49.473c3.312 9.29 12.113 16 22.527 16h112c10.414 0 19.215-6.71 22.527-16H448v384H192zm64-184c0-4.414 3.586-8 8-8h112c4.414 0 8 3.586 8 8v32c0 4.414-3.586 8-8 8H264c-4.414 0-8-3.586-8-8zm-96 16c0-4.414 3.586-8 8-8h72v16h-64v96h-16zm-41.473 296a39.84 39.84 0 0 1-22.183-6.719L58.426 304H16V192h34.129l46.773-26.727A40.07 40.07 0 0 1 116.754 160H208c8.824 0 16 7.176 16 16s-7.176 16-16 16h-96v8c0 22.055-17.945 40-40 40v16c28.168 0 51.535-20.895 55.434-48H144v128zM480 472c0 4.414-3.586 8-8 8H168c-4.414 0-8-3.586-8-8V208h16v256h288V48h-64V32h72c4.414 0 8 3.586 8 8zm0 0"/><path d="M272 32h16v16h-16zm80 0h16v16h-16zm26.984 337.672l-27-7.711-.007-4.059C366.48 347.777 376 330.992 376 312v-16c0-30.871-25.129-56-56-56s-56 25.129-56 56v16c0 18.977 9.512 35.754 24 45.887v4.082l-26.992 7.703C243.93 374.559 232 390.375 232 408.145V432h176v-23.855c0-17.77-11.93-33.586-29.016-38.473zM280 312v-16c0-22.055 17.945-40 40-40s40 17.945 40 40v16c0 22.055-17.945 40-40 40s-40-17.945-40-40zm55.719 53.71L320 386.665l-15.719-20.953C309.273 367.176 314.543 368 320 368s10.727-.824 15.719-2.29zM392 416H248v-7.855c0-10.657 7.16-20.153 17.406-23.083l27.496-7.855L320 413.336l27.098-36.129 27.496 7.855C384.84 387.992 392 397.488 392 408.145zM208 96h16v16h-16zm32 0h192v16H240zm16 32h176v16H256zm0 32h176v16H256zm160 32h16v16h-16zm-160 0h144v16H256zm0 0"/></symbol><symbol id="new-adress" viewBox="0 0 25 26"><g clip-path="url(#a)"><path d="M6.136 9.97a3.842 3.842 0 0 0 3.834 3.835 3.842 3.842 0 0 0 3.835-3.835A3.842 3.842 0 0 0 9.97 6.136 3.842 3.842 0 0 0 6.136 9.97zm6.649 0a2.816 2.816 0 0 1-2.815 2.814A2.816 2.816 0 0 1 7.156 9.97 2.816 2.816 0 0 1 9.97 7.156a2.816 2.816 0 0 1 2.815 2.814z"/><path d="M4.572 18.116c-2.358-2.979-3.552-5.624-3.552-7.859v-.292c0-4.936 4.014-8.95 8.95-8.95a8.911 8.911 0 0 1 8.884 7.869l1.087.989C19.889 4.423 15.44 0 9.97 0 4.474 0 0 4.475 0 9.97v.292c0 2.794 1.635 6.09 4.854 9.791a43.771 43.771 0 0 0 4.604 4.532v-1.348c-1.133-1.01-3.117-2.886-4.886-5.121zm14.246.856h-2.045v2.045h2.045v-2.045z"/><path d="M17.767 12.051l-7.238 6.608.687.753.195-.18.856-.783v4.449a2.264 2.264 0 0 0 2.26 2.26h6.475a2.264 2.264 0 0 0 2.26-2.26V18.45l.856.784.195.18.687-.754-7.233-6.608zm4.48 5.695v5.152c0 .682-.558 1.24-1.24 1.24h-6.475c-.681 0-1.24-.558-1.24-1.24v-5.377l.17-.154 3.967-3.619.343-.313.344.313 3.967 3.619.17.154v.225h-.006z"/></g></symbol><symbol id="obreshetka" viewBox="0 0 24 24"><path d="M23.047 0H.39A.39.39 0 0 0 0 .39v22.657a.39.39 0 0 0 .39.39h22.657a.39.39 0 0 0 .39-.39V.39a.39.39 0 0 0-.39-.391zM3.907 6.533L6.64 9.268V19.53H3.906V6.533zm3.515 3.516l2.344 2.344v7.138H7.422V10.05zm3.125 3.125l2.344 2.344v4.013h-2.344v-6.357zm3.125 3.125L16.9 19.53h-3.23V16.3zm4.334 3.232L3.906 5.43V3.906h1.792L19.53 17.74v1.791h-1.525zm1.525-2.896l-2.734-2.734V3.906h2.734v12.73zm-3.515-3.516l-2.344-2.343v-6.87h2.344v9.213zM12.89 9.995L10.547 7.65V3.906h2.344v6.089zM9.766 6.87L6.802 3.906h2.964V6.87zm9.994-3.745H3.677L1.334.781h20.77L19.76 3.125zm-16.635.552V19.76L.781 22.104V1.334l2.344 2.343zm.552 16.636H19.76l2.344 2.343H1.334l2.343-2.343zm16.636-.553V3.677l2.343-2.343v20.77l-2.343-2.344z" fill="#ACACAC"/><path d="M4.297 1.563h-.781v.78h.78v-.78zm15.234 0h-.781v.78h.781v-.78zM4.297 21.094h-.781v.781h.78v-.781zm15.625 0h-.781v.781h.78v-.781zM2.344 3.516h-.781v.78h.78v-.78zm0 15.624h-.781v.782h.78v-.781zM21.875 3.516h-.781v.78h.781v-.78zm0 15.624h-.781v.782h.781v-.781z"/></symbol><symbol id="open-box--order" viewBox="0 0 62.6 64"><path d="M41.5 15.3l-4.2-8.4V4.1c0-2.3-1.9-4.1-4.1-4.1H5.4C3.1 0 1.3 1.9 1.3 4.1V8h34.3l4 8H21.2l-5.5-6.1L0 10l6.2 6.8V64h50V17l6.4-7H46.3l-4.8 5.3zM35.2 6h-32V4.1C3.3 3 4.2 2 5.4 2h27.7c1.2 0 2.1 1 2.1 2.1V6zM4.5 12h10.3l3.7 4.1H8.2L4.5 12zm15.7 50h-12V18h12v44zm34 0h-32V18h32.1v44zm3.9-50.1L54.4 16H43.5l3.7-4.1h10.9z"/><path d="M27.2 42h22V28h-22v14zm2-12h18v10h-18V30zm-2 16h21.7v2H27.2zm0 4h17.7v2H27.2z"/><path d="M31.2 32h2v2h-2zm0 4h2v2h-2zm4-4h10v2h-10zm0 4h10v2h-10z"/></symbol><symbol id="operation-result--fail" viewBox="0 0 15 15"><path d="M7.5 0C3.364 0 0 3.364 0 7.5S3.364 15 7.5 15 15 11.636 15 7.5 11.636 0 7.5 0zm0 14C3.916 14 1 11.084 1 7.5S3.916 1 7.5 1 14 3.916 14 7.5 11.084 14 7.5 14z"/><path d="M10.146 4.146L7.5 6.793 4.854 4.146l-.708.708L6.793 7.5l-2.647 2.646.708.708L7.5 8.207l2.646 2.647.708-.708L8.207 7.5l2.647-2.646z"/></symbol><symbol id="operation-result--success" viewBox="0 0 15 15"><path d="M7.5 0C3.364 0 0 3.364 0 7.5S3.364 15 7.5 15 15 11.636 15 7.5 11.636 0 7.5 0zm0 14C3.916 14 1 11.084 1 7.5S3.916 1 7.5 1 14 3.916 14 7.5 11.084 14 7.5 14z"/><path d="M6.505 8.853L3.861 6.209l-.707.707 3.356 3.356 5.346-5.421-.712-.702z"/></symbol><symbol id="operation__icon--replenish" viewBox="0 0 53 50"><style>.tt0,.tt1{clip-path:url(#SVGID_2_T)}.tt0{stroke:#333;stroke-width:2;stroke-miterlimit:10;fill:none}.tt1{fill:#fff}.tt2,.tt3{clip-path:url(#SVGID_4_T)}.tt2{stroke:#333;stroke-width:2;stroke-miterlimit:10;fill:none}.tt3{fill:#fff}</style><clipPath id="SVGID_2_T"><use xlink:href="#SVGID_1_" overflow="visible"/></clipPath><path class="tt0" d="M40 6V0m3.8 6.6l2.6-4.5m.3 7.5L51.2 7M48 14h5m-11 5v-6H4c-1.7 0-3 1.3-3 3"/><path class="tt1" d="M37.1 19L23 4.9 8.9 19"/><path class="tt0" d="M37.1 19L23 4.9 8.9 19"/><path class="tt1" d="M30 19l-4.9-4.9c-1.4 1.4-2.8 1.4-4.2 0L16 19"/><path class="tt0" d="M30 19l-4.9-4.9c-1.4 1.4-2.8 1.4-4.2 0L16 19"/><path class="tt0" d="M47 49H4c-1.7 0-3-1.3-3-3V16c0 1.7 1.3 3 3 3h43v30z"/><path class="tt1" d="M48 39H33.5c-3 0-5.5-2.5-5.5-5.5s2.5-5.5 5.5-5.5H48c1.1 0 2 .9 2 2v7c0 1.1-.9 2-2 2"/><path class="tt0" d="M48 39H33.5c-3 0-5.5-2.5-5.5-5.5s2.5-5.5 5.5-5.5H48c1.1 0 2 .9 2 2v7c0 1.1-.9 2-2 2z"/><path class="tt1" d="M32 33.5c0-1.4 1.1-2.5 2.5-2.5s2.5 1.1 2.5 2.5-1.1 2.5-2.5 2.5-2.5-1.1-2.5-2.5"/><circle class="tt0" cx="34.5" cy="33.5" r="2.5"/></symbol><symbol id="operation__icon--success" viewBox="0 0 60 56"><style>.st0,.st1{fill:none;stroke:#333;stroke-miterlimit:10}.st1{stroke-width:2}.st2{fill:#fff}.st3{fill:none;stroke:#333;stroke-width:2;stroke-linecap:round;stroke-linejoin:round;stroke-miterlimit:10}</style><path class="st0" d="M53 14H8c-1.1 0-2 .9-2 2v31h49V16c0-1.1-.9-2-2-2z"/><path class="st1" d="M6 46V16c0-1.1.9-2 2-2h45c1.1 0 2 .9 2 2v30"/><path class="st2" d="M59 4v24.1c0 1.6-1.3 2.9-2.9 2.9H37.9l-8.1 7.7c-.6.7-1.8.3-1.8-.6V31h-5c-1.7 0-3-1.4-3-3V4c0-1.7 1.3-3 3-3h33c1.7 0 3 1.3 3 3"/><path class="st1" d="M59 4v24.1c0 1.6-1.3 2.9-2.9 2.9H37.9l-8.1 7.7c-.6.7-1.8.3-1.8-.6V31h-5c-1.7 0-3-1.4-3-3V4c0-1.7 1.3-3 3-3h33c1.7 0 3 1.3 3 3z"/><path class="st3" d="M35 16l4 4 9-11"/><path class="st3" d="M47 16v8H30.9V8H44"/><path class="st1" d="M2 17v-1c0-3.3 2.7-6 6-6h9"/><path class="st2" d="M59 46H37l-1 1H24l-1-1H1v2c0 1.7 1.3 3 3 3h52c1.7 0 3-1.3 3-3v-2z"/><path class="st1" d="M59 46H37l-1 1H24l-1-1H1v2c0 1.7 1.3 3 3 3h52c1.7 0 3-1.3 3-3v-2zm-48 9h16"/></symbol><symbol id="palet" viewBox="0 0 25 25"><path d="M25 20v-.833a.834.834 0 0 0-.833-.834h-2.16a1.23 1.23 0 0 0 .076-.416v-7.5a1.24 1.24 0 0 0-.325-.834 1.24 1.24 0 0 0 .325-.833v-7.5c0-.69-.56-1.25-1.25-1.25h-7.5a1.24 1.24 0 0 0-.833.325A1.24 1.24 0 0 0 11.667 0h-7.5c-.69 0-1.25.56-1.25 1.25v7.5c0 .309.117.606.325.833a1.24 1.24 0 0 0-.325.834v7.5c.001.142.027.283.076.416H.833a.834.834 0 0 0-.833.834V20c0 .46.373.833.833.833V22.5a.834.834 0 0 0-.833.833v.834c0 .46.373.833.833.833h23.334c.46 0 .833-.373.833-.833v-.834a.834.834 0 0 0-.833-.833v-1.667c.46 0 .833-.373.833-.833zM12.917 1.25c0-.23.186-.416.416-.417h7.5c.23 0 .417.187.417.417v.417h-8.333V1.25zm0 1.25h5.602l-5.602 3.424V2.5zm0 4.4l7.2-4.4h1.133v.6l-7.2 4.4h-1.133v-.6zm8.333-2.824V7.5h-5.602l5.602-3.424zm-8.333 4.257h8.333v.417c0 .23-.187.416-.417.417h-7.5a.417.417 0 0 1-.416-.417v-.417zm0 2.084c0-.23.186-.417.416-.417h7.5c.23 0 .417.187.417.417v.416h-8.333v-.416zm0 1.25h5.602l-5.602 3.423v-3.423zm0 4.4l7.2-4.4h1.133v.6l-7.2 4.4h-1.133v-.6zm8.333-2.824v3.424h-5.602l5.602-3.424zM12.917 17.5h8.333v.417c0 .23-.187.416-.417.416h-7.5a.417.417 0 0 1-.416-.416V17.5zM3.75 1.25c0-.23.187-.416.417-.417h7.5c.23 0 .416.187.416.417v.417H3.75V1.25zm0 1.25h5.602L3.75 5.924V2.5zm0 4.4l7.2-4.4h1.133v.6l-7.2 4.4H3.75v-.6zm8.333-2.824V7.5H6.481l5.602-3.424zM3.75 8.333h8.333v.417c0 .23-.186.416-.416.417h-7.5a.417.417 0 0 1-.417-.417v-.417zm0 2.084c0-.23.187-.417.417-.417h7.5c.23 0 .416.187.416.417v.416H3.75v-.416zm0 1.25h5.602L3.75 15.09v-3.423zm0 4.4l7.2-4.4h1.133v.6l-7.2 4.4H3.75v-.6zm8.333-2.824v3.424H6.481l5.602-3.424zM3.75 17.5h8.333v.417c0 .23-.186.416-.416.416h-7.5a.417.417 0 0 1-.417-.416V17.5zm20.417 6.667H.833v-.834h23.334v.834zM1.667 22.5v-1.667h2.5V22.5h-2.5zM5 22.5v-1.667h5.417V22.5H5zm6.25 0v-1.667h2.5V22.5h-2.5zm3.333 0v-1.667H20V22.5h-5.417zm6.25 0v-1.667h2.5V22.5h-2.5zM23.75 20H.833v-.833h23.334V20h-.417z"/></symbol><symbol id="payment-information__download" viewBox="0 0 64 60"><style>.pt0,.pt1,.pt2{fill:#222829}.pt1{clip-path:url(#SVGID_2_T1)}.pt2{clip-path:url(#SVGID_4_T)}</style><path class="pt0" d="M37.4 56l2-2H62v.6L58.6 58H5.4L2 54.6V54h22.6l2 2h10.8zm1.2-4l-2 2h-9.2l-2-2H0v3.4L4.6 60h54.8l4.6-4.6V52H38.6z"/><clipPath id="SVGID_2_T1"><use xlink:href="#SVGID_1_" overflow="visible"/></clipPath><path class="pt1" d="M6 50H4V20c0-2.2 1.8-4 4-4h6v2H8c-1.1 0-2 .9-2 2v30zm52-17h2v17h-2z"/><path class="pt1" d="M56 48H8V20h6v2h-4v24h44V33h2zm-6-19h8v2h-8zM20 10h24v2H20zm0 4h24v2H20zm0 4h24v2H20z"/><path class="pt1" d="M18 44h-2V6c0-3.3 2.7-6 6-6h29v2H22c-2.2 0-4 1.8-4 4v38z"/><path class="pt1" d="M31 6h2v2h-2zm-4 0h2v2h-2zm8 0h2v2h-2zm13 38h-2V5c0-2.8 2.2-5 5-5s5 2.2 5 5v22c0 1.1.9 2 2 2s2-.9 2-2V8h-2V6h4v21c0 2.2-1.8 4-4 4s-4-1.8-4-4V5c0-1.7-1.3-3-3-3s-3 1.3-3 3v39zm-16-4c-2.2 0-4-1.8-4-4h2c0 1.1.9 2 2 2s2-.9 2-2c0-.6-1.4-1.6-2.4-2.1-.6-.3-3.6-1.7-3.6-3.9s1.8-4 4-4 4 1.8 4 4h-2c0-1.1-.9-2-2-2s-2 .9-2 2c0 .6 1.4 1.6 2.4 2.1.6.3 3.6 1.7 3.6 3.9s-1.8 4-4 4"/><path class="pt1" d="M31 24h2v3h-2zm0 15h2v3h-2zm7-7h2v2h-2zm-14 0h2v2h-2z"/></symbol><symbol id="poezd" viewBox="0 0 30 29"><g clip-path="url(#a)" fill="#ACACAC"><path d="M12.661 10.608h5.187a.427.427 0 0 0 0-.852H12.66a.427.427 0 0 0 0 .852zm-1.499 9.342a1.235 1.235 0 1 0 .001 2.47 1.235 1.235 0 0 0 0-2.47zm8.298 2.453a1.235 1.235 0 1 0-.396-2.438 1.235 1.235 0 0 0 .396 2.438z"/><path d="M20.491 7.363H10.046a2.875 2.875 0 0 0-2.872 2.872v12.174a2.873 2.873 0 0 0 2.695 2.862l-1.905 3.732a.426.426 0 1 0 .76.387l.843-1.649h11.322c.08 0 .152-.022.215-.06l.765 1.69a.428.428 0 0 0 .78-.351l-1.707-3.778a2.874 2.874 0 0 0 2.428-2.835v-12.17a2.886 2.886 0 0 0-2.879-2.874zM10 26.89l.82-1.608h9.195l.726 1.608H10zm12.082-4.48c0 .88-.714 1.591-1.59 1.591H10.045a1.594 1.594 0 0 1-1.593-1.59V10.236c0-.879.714-1.593 1.593-1.593H20.49c.88 0 1.591.714 1.591 1.593V22.41z"/><path d="M19.046 11.74h-7.557c-.903 0-1.637.734-1.637 1.637v3.3c0 .904.734 1.638 1.637 1.638h7.557c.903 0 1.637-.734 1.637-1.637v-3.3a1.636 1.636 0 0 0-1.637-1.637zm.785 4.938a.784.784 0 0 1-.785.784h-7.557a.784.784 0 0 1-.784-.784v-3.3c0-.434.35-.785.784-.785h7.557c.433 0 .785.351.785.784v3.3z"/><path d="M15 1C6.729 1 0 7.729 0 16c0 4.111 1.63 7.947 4.59 10.802a.485.485 0 0 0 .674-.698A13.92 13.92 0 0 1 .969 16C.969 8.264 7.264 1.969 15 1.969c7.736 0 14.032 6.295 14.032 14.031 0 3.906-1.647 7.663-4.519 10.315a.485.485 0 0 0 .659.712A15.046 15.046 0 0 0 30.002 16C30 7.729 23.272 1 15 1z"/></g></symbol><symbol id="product" viewBox="0 0 512 512"><path d="M410.9 186.6c0-.1 0-.2-.1-.2 0-.2-.1-.3-.1-.5 0-.1-.1-.3-.1-.4 0-.1-.1-.2-.1-.3-.2-.5-.4-.9-.7-1.3l-65-95.5c-1.4-2.1-3.7-3.3-6.2-3.3H173.5c-2.5 0-4.8 1.2-6.2 3.3l-65 95.5c-.3.4-.5.9-.7 1.3 0 .1-.1.2-.1.3-.1.1-.1.3-.1.4 0 .2-.1.3-.1.5 0 .1 0 .2-.1.2-.1.5-.2 1-.2 1.5v231.3c0 4.1 3.4 7.5 7.5 7.5h295.1c4.1 0 7.5-3.4 7.5-7.5V188.1c-.1-.5-.1-1-.2-1.5zm-21.6-6h-96.9l-9.1-80.5h51.2l54.8 80.5zm-155.6 15h44.5v55L260.3 238c-1.3-.9-2.8-1.4-4.3-1.4s-3 .5-4.3 1.4l-17.9 12.6v-55zm34.5-95.5l9.1 80.5h-42.7l9.1-80.5h24.5zm-90.7 0h51.2l-9.1 80.5h-96.9l54.8-80.5zM396 411.9H116V195.6h102.8V265c0 2.8 1.6 5.4 4 6.7 2.5 1.3 5.5 1.1 7.8-.5l25.4-17.9 25.4 17.9c1.3.9 2.8 1.4 4.3 1.4 1.2 0 2.4-.3 3.5-.8 2.5-1.3 4-3.9 4-6.7v-69.4H396v216.2z"/><path d="M201 330.4h-53.2c-4.1 0-7.5 3.4-7.5 7.5s3.4 7.5 7.5 7.5H201c4.1 0 7.5-3.4 7.5-7.5s-3.4-7.5-7.5-7.5zm-26.6 31.5h-26.6c-4.1 0-7.5 3.4-7.5 7.5s3.4 7.5 7.5 7.5h26.6c4.1 0 7.5-3.4 7.5-7.5s-3.4-7.5-7.5-7.5z"/></symbol><symbol id="referral-statistics" viewBox="0 0 64 64"><path d="M62 12h2v30h-2zM56 0v2h6v6h2V0zM0 0v15h2V2h50V0zm4 36h56v2H4z"/><path d="M44 18.6l-10-10-14 14-11-11-9 9V42h2V21.4l7-7 11 11 14-14 10 10L63.7 1.7 62.3.3zM21 59.1l-7.5-4.2 1-1.8 6.5 3.8 7.6-3.8.8 1.8z"/><path d="M61 64H3c-1.6 0-3-1.8-3-4v-2.6l7.5-4.3 1 1.7L2 58.6V60c0 1.2.7 2 1 2h58c.3 0 1-.8 1-2v-1.4l-6.5-3.7 1-1.7 7.5 4.3V60c0 2.2-1.4 4-3 4"/><path d="M43 59.1l-8.4-4.2.8-1.8 7.6 3.8 6.5-3.8 1 1.8zM11 56c-3.4 0-6-3.2-6-7.5 0-3 .7-6.5 6-6.5s6 3.5 6 6.5c0 4.3-2.6 7.5-6 7.5m0-12c-3 0-4 1.1-4 4.5 0 2.7 1.4 5.5 4 5.5s4-2.8 4-5.5c0-3.4-1-4.5-4-4.5"/><path d="M32 56c-3.4 0-6-3.2-6-7.5 0-3 .7-6.5 6-6.5s6 3.5 6 6.5c0 4.3-2.6 7.5-6 7.5m0-12c-3 0-4 1.1-4 4.5 0 2.7 1.4 5.5 4 5.5s4-2.8 4-5.5c0-3.4-1-4.5-4-4.5m21 12c-3.4 0-6-3.2-6-7.5 0-3 .7-6.5 6-6.5s6 3.5 6 6.5c0 4.3-2.6 7.5-6 7.5m0-12c-3 0-4 1.1-4 4.5 0 2.7 1.4 5.5 4 5.5s4-2.8 4-5.5c0-3.4-1-4.5-4-4.5M20 58h2v3h-2zm22 0h2v3h-2zM8 32h8v2H8zm0-4h8v2H8zm10 4h8v2h-8zm0-4h8v2h-8zm10 4h8v2h-8zm0-4h8v2h-8zm0-4h8v2h-8zm0-4h8v2h-8zm10 12h8v2h-8zm0-4h8v2h-8zm0-4h8v2h-8zm10 8h8v2h-8zm0-4h8v2h-8zm0-4h8v2h-8zm0-4h8v2h-8zM8 24h8v2H8z"/></symbol><symbol id="search-icon" viewBox="0 0 139 139"><path d="M127.558 111.961L100.249 84.65a47.75 47.75 0 0 0 7.333-25.488c0-26.509-21.49-47.996-47.998-47.996S11.588 32.653 11.588 59.162c0 26.51 21.487 47.995 47.996 47.995a47.776 47.776 0 0 0 27.414-8.605l26.984 26.986a9.574 9.574 0 0 0 6.788 2.806 9.58 9.58 0 0 0 6.791-2.806 9.602 9.602 0 0 0-.003-13.577zM59.584 91.607c-17.917 0-32.443-14.525-32.443-32.443S41.667 26.72 59.584 26.72c17.918 0 32.443 14.526 32.443 32.444S77.502 91.607 59.584 91.607z"/></symbol><symbol id="ship" viewBox="0 0 24 28"><path d="M24.188 26.863c-.717 0-1.035-.239-1.481-.557-.478-.35-1.083-.749-2.118-.828l3.026-6.959a.805.805 0 0 0-.398-1.05l-4.03-1.8a.81.81 0 0 0 .24-.558v-5.54a.788.788 0 0 0-.796-.797h-1.625V6.592a.53.53 0 0 0-.525-.525h-.59V.525A.53.53 0 0 0 15.367 0h-2.739a.53.53 0 0 0-.525.525v5.542H7.787a.53.53 0 0 0-.526.525v2.166H5.573a.788.788 0 0 0-.796.796v5.573c0 .191.08.367.191.51L.812 17.5a.795.795 0 0 0-.398 1.051l3.09 7.118a4.87 4.87 0 0 0-1.227.653c-.446.318-.764.557-1.48.557a.788.788 0 0 0-.797.796c0 .446.35.796.796.796 1.226 0 1.895-.477 2.42-.86.446-.318.765-.557 1.481-.557.717 0 1.035.239 1.481.558.526.382 1.179.86 2.42.86 1.227 0 1.896-.478 2.421-.86.446-.319.764-.558 1.481-.558.717 0 1.035.239 1.48.558.526.382 1.18.86 2.421.86 1.226 0 1.895-.478 2.42-.86.446-.319.765-.558 1.481-.558.717 0 1.036.239 1.481.558.526.382 1.179.86 2.42.86a.789.789 0 0 0 .797-.797c-.016-.462-.366-.812-.812-.812zM13.153 1.067h1.672v1.306h-1.672V1.067zm0 2.102h1.672v2.898h-1.672V3.169zM8.328 7.118h7.643v1.64H8.328v-1.64zm-1.959 3.248H17.85v4.73l-5.51-2.469a.779.779 0 0 0-.652 0l-5.319 2.389v-4.65zm-4.187 8.265l9.84-4.395 9.841 4.395-.876 2.006-8.662-3.663a.571.571 0 0 0-.398 0l-8.838 3.743-.907-2.086zm14.22 8.232c-.717 0-1.036-.239-1.482-.557-.525-.382-1.178-.86-2.42-.86-1.226 0-1.895.478-2.42.86-.446.318-.765.557-1.481.557-.717 0-1.035-.239-1.481-.557-.446-.319-1.02-.7-1.943-.812L3.52 21.672l8.615-3.646 8.44 3.566-1.768 4.077c-.016.032-.016.064-.016.095-.35.16-.637.35-.876.542-.478.334-.796.557-1.513.557z" fill="#ACACAC"/></symbol><symbol id="shout" viewBox="0 0 64 58"><path d="M34 34H6V10h28v24zM8 32h24V12H8v20z"/><path d="M7 28H2V16h5v2H4v8h3zm23 10H10v-5h2v3h16v-3h2z"/><path d="M13 37.1L16.1 58H26V37h-2v19h-6.1L15 36.9zM63 44h-4c-.6 0-1-.4-1-1V1c0-.6.4-1 1-1h4c.6 0 1 .4 1 1v42c0 .6-.4 1-1 1m-3-2h2V2h-2v40z"/><path d="M35.64 10.07L58.658.055l.798 1.834L36.44 11.904zm-.002 23.861l.797-1.834 23.02 10.007-.798 1.834zM0 21h3v2H0zm30-1H10v-6h20v6zm-18-2h16v-2H12v2zm3 4h2v2h-2zm4 0h2v2h-2zm4 0h2v2h-2zm7 24h-5v-2h3v-2h-3v-2h5zm-8 2h3v2h-3zm0 4h3v2h-3zm14-31h20v2H36z"/></symbol><symbol id="sign-in" viewBox="0 0 32 32"><path d="M18.7 11.8c-.3-.3-.3-.9 0-1.2.3-.3.9-.3 1.2 0l4.7 4.7c.3.3.3.9 0 1.2l-4.7 4.7c-.3.3-.9.3-1.2 0-.3-.3-.3-.8 0-1.2l3.3-3.3H3.6c-.5 0-.8-.4-.8-.8 0-.5.4-.8.8-.8H22l-3.3-3.3z"/><path d="M13.6 1l-1 1h18l-1-1v30l1-1h-18l1 1v-7c0-.6-.4-1-1-1s-1 .4-1 1v7c0 .6.4 1 1 1h18c.6 0 1-.4 1-1V1c0-.6-.4-1-1-1h-18c-.6 0-1 .4-1 1v7c0 .6.4 1 1 1s1-.4 1-1V1z"/></symbol><symbol id="sign-up" viewBox="0 0 200 200"><path d="M99.5 92.2c-18.7 0-33.9-15.2-33.9-33.9s15.2-33.9 33.9-33.9 33.9 15.2 33.9 33.9c-.1 18.6-15.2 33.8-33.9 33.9zm0-57.9c-13.2 0-23.9 10.7-23.9 23.9s10.7 23.9 23.9 23.9 23.9-10.7 23.9-23.9-10.7-23.9-23.9-23.9zm-50 121c-2.8 0-5-2.2-5-5v-20.5c0-19 24.2-33.9 55-33.9 22.4 0 42.4 8.1 50.8 20.7 1.5 2.3 2.1 6.3-.2 7.8-2.3 1.5-5.3.9-6.8-1.4-6.5-9.7-24.9-17.1-43.8-17.1-24.4 0-45 10.9-45 23.9v20.5c0 2.8-2.3 5-5 5zM180.7 85H150c-2.8 0-5-2.2-5-5s2.2-5 5-5h30.7c2.8 0 5 2.2 5 5s-2.2 5-5 5z"/><path d="M166.3 100.3c-2.8 0-5-2.2-5-5V64.7c0-2.8 2.2-5 5-5s5 2.2 5 5v30.7c0 2.7-2.2 4.9-5 4.9zm-21.6 50v-20.5c0-13-20.6-23.9-45-23.9-18.9 0-37.4 6.1-43.9 15.8-1.5 2.2-3.2 3.3-5.4 1.8-2.3-1.5-3-4.6-1.5-6.9 8.4-12.6 28.4-20.7 50.8-20.7 30.8 0 55 14.9 55 33.9v20.5c0 2.8-2.2 5-5 5s-5-2.2-5-5z"/></symbol><symbol id="skotch" viewBox="0 0 25 17"><path d="M24.634 0h-6.211a.366.366 0 1 0 0 .733h5.845V10.85h-1.325a.366.366 0 0 0 0 .733h1.69a.366.366 0 0 0 .367-.366V.366A.366.366 0 0 0 24.634 0zm-3.4 10.851H17.01V2.832c0-.846-.914-1.57-2.643-2.094l-.02-.006h2.367a.366.366 0 0 0 0-.732H8.505c-2.21 0-4.29.262-5.861.738C.914 1.262 0 1.986 0 2.832V7.96a.366.366 0 0 0 .732 0V4.045c.444.334 1.084.631 1.912.882 1.57.476 3.652.738 5.86.738 2.21 0 4.291-.262 5.862-.738.827-.251 1.468-.548 1.911-.882v9.146c0 .876-2.957 2.1-7.772 2.1-4.816 0-7.773-1.223-7.773-2.1V9.67a.366.366 0 0 0-.732 0v3.52c0 .847.914 1.57 2.644 2.095 1.57.476 3.652.738 5.86.738 2.21 0 4.291-.262 5.862-.738 1.73-.524 2.643-1.248 2.643-2.094v-1.607h4.225a.366.366 0 1 0 0-.733zM8.504 4.932C3.69 4.932.733 3.71.733 2.832c0-.876 2.957-2.1 7.773-2.1 4.815 0 7.772 1.224 7.772 2.1 0 .877-2.957 2.1-7.772 2.1z"/><path d="M8.505 1.48c-.442 0-4.312.038-4.312 1.352 0 1.315 3.87 1.353 4.312 1.353.441 0 4.312-.038 4.312-1.353 0-1.314-3.87-1.352-4.312-1.352zm2.517 1.738c-.694.151-1.588.235-2.517.235-.93 0-1.824-.084-2.517-.235-.647-.141-.935-.3-1.034-.386.099-.084.387-.244 1.034-.385.693-.151 1.587-.235 2.517-.235.93 0 1.823.084 2.517.235.646.141.935.3 1.033.385-.098.085-.387.245-1.033.386z"/></symbol><symbol id="stat-paid" viewBox="0 0 60 63"><path d="M0 17v32h42v-2H2V19h36v-2zm56 0v2h2v28h-2v2h4V17zm-8 44h2v2h-2zm-3-22h8v2h-8zm0 12h8v2h-8zm3-8h2v2h-2zm0 4h2v2h-2z"/><path d="M49 62.4l-5-5V9h-1c-.6 0-1 .4-1 1v13h-2V10c0-1.7 1.3-3 3-3h11v50.4l-5 5zm-3-5.8l3 3 3-3V9h-6v47.6zM11 40c-2.2 0-4-1.8-4-4h2c0 1.1.9 2 2 2s2-.9 2-2c0-.7-1.4-1.6-2.4-2.1C10 33.6 7 32.2 7 30s1.8-4 4-4 4 1.8 4 4h-2c0-1.1-.9-2-2-2s-2 .9-2 2c0 .7 1.4 1.6 2.4 2.1.6.3 3.6 1.7 3.6 3.9s-1.8 4-4 4"/><path d="M10 24h2v3h-2zm0 15h2v3h-2zm10-18h10v2H20zm0 6h22v2H20zm0 4h22v2H20zm0 4h22v2H20zm0 8h4v2h-4zm6 0h8v2h-8zM4 21h2v2H4zm0 22h2v2H4zM0 13h38v2H0zm56 0h4v2h-4zM0 9h38v2H0zm56 0h4v2h-4zm-4-1h-2V2h-2v6h-2V0h6z"/></symbol><symbol id="stat-registers" viewBox="0 0 64 46"><path d="M8 8v38h6v-2h-4V10h52v34h-4v2h6V8z"/><path d="M29 44h14v2H29zM9 42H4V4h56v5h-2V6H6v34h3z"/><path d="M0 0v38h5v-2H2V2h52v3h2V0z"/><path d="M32 36H16V26c0-2.2 1.8-4 4-4v2c-1.1 0-2 .9-2 2v8h12v-8c0-1.1-.9-2-2-2v-2c2.2 0 4 1.8 4 4v10z"/><path d="M24 24c-2.8 0-5-2.2-5-5s2.2-5 5-5 5 2.2 5 5-2.2 5-5 5m0-8c-1.7 0-3 1.3-3 3s1.3 3 3 3 3-1.3 3-3-1.3-3-3-3m-1 10h2v2h-2zm0 4h2v2h-2zm13-4h11v2H36zm0-6h20v2H36zm13 6h7v2h-7zm-13 4h20v2H36zm0 4h8v2h-8zm9-18h2v2h-2zm4 0h2v2h-2zm-8 0h2v2h-2zM27 46h-4v-2h2v-2h-7v2h2v2h-4v-6h11zm29 0h-4v-2h2v-2h-7v2h2v2h-4v-6h11z"/></symbol><symbol id="superexpres" viewBox="0 0 21 30"><g clip-path="url(#a)"><path d="M18.604 23.738c.586.473 1.013 1.244.925 1.779l1.013.165c.16-.967-.514-2.227-1.496-2.906.082-.288.123-.591.123-.894h-.02a3.399 3.399 0 0 0-3.394-3.353h-.015c-.18 0-.355.02-.525.046-.015 0-.03.006-.04.006-.18.03-.356.077-.525.133h-.005c-.453-.848-1.363-1.532-2.304-1.722v-2.623h-1.029v3.085c0 .283.232.515.515.515.714 0 1.553.565 1.912 1.239a3.35 3.35 0 0 0-1.342 2.679h1.029c0-.93.555-1.728 1.347-2.103.036-.016.072-.036.108-.052a2.09 2.09 0 0 1 .345-.108c.04-.01.087-.015.133-.025a2.2 2.2 0 0 1 .37-.036h.036a2.366 2.366 0 0 1 2.366 2.365c0 .293-.057.576-.165.848a2.339 2.339 0 0 1-.982 1.121l.514.89a3.375 3.375 0 0 0 1.106-1.05zm-9.348 1.944c0-.55.216-1.065.601-1.455a2.029 2.029 0 0 1 1.455-.602v-1.029c-.647 0-1.26.201-1.779.566-.57-.637-1.398-1.028-2.303-1.08l-.057 1.029c.648.036 1.244.329 1.63.781a3.032 3.032 0 0 0-.576 1.79h1.029zM5.82 21.27l.87-.55a3.058 3.058 0 0 0-1.507-1.23c.283-.812 1.553-1.521 2.53-1.521a.516.516 0 0 0 .514-.515V14.37H7.2v2.612c-1.322.2-2.705 1.126-3.029 2.31h-.082v.004c-1.697.016-3.106 1.388-3.106 3.1 0 .34.057.67.17 1.003C.406 23.97 0 24.766 0 25.682h1.028c0-.7.345-1.255 1.029-1.656a.525.525 0 0 0 .19-.69 2.041 2.041 0 0 1-.231-.945c0-1.142.93-2.078 2.077-2.078a2.076 2.076 0 0 1 1.728.956z"/><path d="M5.682 14.02a.52.52 0 0 0 .72.298l1.671-.838 1.285 1.712a.514.514 0 0 0 .823 0l1.286-1.712 1.67.838a.515.515 0 0 0 .72-.298l.515-1.543a.506.506 0 0 0-.123-.524l-1.908-1.908V6.142C12.34 3.54 10.87 1 9.77 1S7.199 3.54 7.199 6.142v3.903L5.29 11.953a.509.509 0 0 0-.123.524l.514 1.543zm2.396-3.4a.531.531 0 0 0 .15-.364V6.142c0-2.216 1.125-3.882 1.542-4.103.416.216 1.543 1.887 1.543 4.103v4.114a.53.53 0 0 0 .149.365l1.83 1.83-.226.679-1.527-.761a.524.524 0 0 0-.643.15L9.77 14.024l-1.131-1.507a.507.507 0 0 0-.643-.149l-1.527.761-.227-.679 1.836-1.83z"/><path d="M10.284 6.656H9.256v1.029h1.028V6.656zM2.298 29.45l-.714-2.524H.653v3.743h.643v-2.607l.689 2.19h.627l.69-2.241v2.658h.642v-3.743h-.93l-.716 2.525zm4.474-2.39a1.475 1.475 0 0 0-.72-.17c-.272 0-.509.056-.72.17a1.202 1.202 0 0 0-.478.483 1.51 1.51 0 0 0-.17.725v1.06c0 .277.057.513.17.724.113.211.273.37.478.484.206.113.448.17.72.17.273 0 .51-.057.72-.17.206-.114.365-.278.478-.484.113-.21.17-.452.17-.725v-1.059a1.51 1.51 0 0 0-.17-.725 1.113 1.113 0 0 0-.478-.483zm-.077 2.288a.74.74 0 0 1-.077.344.598.598 0 0 1-.221.232.7.7 0 0 1-.335.082.645.645 0 0 1-.334-.082.535.535 0 0 1-.22-.232.74.74 0 0 1-.078-.344v-1.095a.74.74 0 0 1 .077-.345.598.598 0 0 1 .221-.231.7.7 0 0 1 .334-.083c.129 0 .237.026.335.083.097.056.17.128.22.231a.74.74 0 0 1 .078.345v1.095zm2.103-1.435a.528.528 0 0 1 .21-.236.69.69 0 0 1 .34-.083c.103 0 .19.02.273.067a.65.65 0 0 1 .21.2c.057.088.098.196.13.32h.73a1.88 1.88 0 0 0-.253-.7 1.254 1.254 0 0 0-.457-.442 1.28 1.28 0 0 0-.633-.154c-.283 0-.53.056-.73.164a1.1 1.1 0 0 0-.463.479 1.64 1.64 0 0 0-.16.755v1.029c0 .298.052.55.16.756.108.21.263.365.463.478.2.113.447.164.73.164.237 0 .448-.051.628-.154.185-.103.339-.247.457-.442a1.88 1.88 0 0 0 .252-.7h-.73a.938.938 0 0 1-.123.32.555.555 0 0 1-.488.267.64.64 0 0 1-.34-.082.524.524 0 0 1-.211-.237.83.83 0 0 1-.072-.375v-1.029c0-.139.026-.262.077-.365zm5.296-.987h-.812l-.874 1.548h-.422v-1.548h-.704v3.743h.704v-1.517h.416l.967 1.517h.885l-1.25-1.861 1.09-1.882zm2.988 1.974a.98.98 0 0 0-.422-.149 1.01 1.01 0 0 0 .396-.149.726.726 0 0 0 .252-.277.853.853 0 0 0 .087-.386c0-.21-.046-.396-.133-.545a.894.894 0 0 0-.391-.35 1.43 1.43 0 0 0-.622-.118h-1.527v3.743h1.568c.242 0 .447-.04.622-.118a.85.85 0 0 0 .396-.35 1.04 1.04 0 0 0 .134-.55v-.01a.993.993 0 0 0-.093-.437.835.835 0 0 0-.267-.303zm-.859-1.295c.144 0 .257.036.34.103.082.067.118.159.118.282a.423.423 0 0 1-.119.314c-.077.077-.195.113-.339.113h-.797v-.802h.797v-.01zm.504 1.938a.422.422 0 0 1-.134.33.556.556 0 0 1-.375.118h-.797v-.9h.797c.108 0 .2.015.273.051a.424.424 0 0 1 .174.155.455.455 0 0 1 .062.241v.005zm3.512 1.127H21l-1.435-3.744h-.447l-1.435 3.743h.761l.211-.601h1.373l.211.601zm-1.347-1.28l.447-1.276.448 1.275h-.895z"/></g></symbol><symbol id="transaction-history" viewBox="0 0 512 512"><path d="M388.741 341.333c-47.053 0-85.333 38.28-85.333 85.333S341.687 512 388.741 512s85.333-38.28 85.333-85.333-38.28-85.334-85.333-85.334zm0 151.704c-36.597 0-66.37-29.773-66.37-66.37 0-36.597 29.773-66.37 66.37-66.37 36.597 0 66.37 29.773 66.37 66.37 0 36.597-29.773 66.37-66.37 66.37z"/><path d="M432.736 390.938a9.484 9.484 0 0 0-13.354 1.215l-40.759 48.912-21.104-21.102c-3.699-3.704-9.708-3.704-13.407 0-3.704 3.701-3.704 9.706 0 13.407l28.444 28.444a9.48 9.48 0 0 0 13.988-.634l47.407-56.889c3.352-4.022 2.808-9.999-1.215-13.353zM388.741 0H47.407a9.482 9.482 0 0 0-9.482 9.482v474.074a9.48 9.48 0 0 0 14.359 8.13l41.942-25.164 32.824 24.62a9.477 9.477 0 0 0 10.567.544l41.942-25.164 32.824 24.62a9.477 9.477 0 0 0 10.567.544l47.407-28.444c4.491-2.694 5.947-8.519 3.252-13.007-2.694-4.488-8.521-5.947-13.007-3.252l-41.942 25.164-32.824-24.62a9.474 9.474 0 0 0-10.567-.544l-41.942 25.164-32.824-24.62a9.474 9.474 0 0 0-10.567-.544L56.889 466.81V18.963h322.37v293.926c0 5.236 4.245 9.481 9.481 9.481s9.482-4.245 9.482-9.481V9.482c0-5.237-4.245-9.482-9.481-9.482z"/><path d="M142.222 85.333H94.815a9.482 9.482 0 0 0 0 18.964h47.407c5.236 0 9.481-4.245 9.481-9.482s-4.245-9.482-9.481-9.482zm180.148 47.408h-47.407c-5.236 0-9.481 4.245-9.481 9.482s4.245 9.481 9.481 9.481h47.407a9.482 9.482 0 0 0 0-18.963zm0 47.407h-47.407c-5.236 0-9.481 4.245-9.481 9.482s4.245 9.481 9.481 9.481h47.407a9.482 9.482 0 0 0 0-18.963zm0 47.408h-47.407c-5.236 0-9.481 4.245-9.481 9.482s4.245 9.481 9.481 9.481h47.407a9.482 9.482 0 0 0 0-18.963zm0 47.407h-47.407c-5.236 0-9.481 4.245-9.481 9.482s4.245 9.481 9.481 9.481h47.407a9.482 9.482 0 0 0 0-18.963zm0 47.407h-47.407c-5.236 0-9.481 4.245-9.481 9.482s4.245 9.481 9.481 9.481h47.407a9.482 9.482 0 0 0 0-18.963zm-94.814-189.629H94.815a9.482 9.482 0 0 0 0 18.963h132.741c5.236 0 9.482-4.245 9.482-9.481s-4.246-9.482-9.482-9.482zm0 47.407H94.815a9.482 9.482 0 0 0 0 18.963h132.741c5.236 0 9.482-4.245 9.482-9.481s-4.246-9.482-9.482-9.482zm0 47.408H94.815a9.482 9.482 0 0 0 0 18.963h132.741c5.236 0 9.482-4.245 9.482-9.481s-4.246-9.482-9.482-9.482zm0 47.407H94.815a9.482 9.482 0 0 0 0 18.963h132.741c5.236 0 9.482-4.245 9.482-9.481s-4.246-9.482-9.482-9.482zm0 47.407H94.815a9.482 9.482 0 0 0 0 18.963h132.741c5.236 0 9.482-4.245 9.482-9.481s-4.246-9.482-9.482-9.482z"/></symbol><symbol id="vk" viewBox="0 0 44.7 25.7"><path d="M14.6 1.7c.2-.5.6-.9 1.1-1.1.9-.5 1.9-.6 2.9-.6 1.4 0 2.9.1 4.3.2.6 0 1.3.1 1.9.3.9.4 1.4 1.1 1.4 2 0 .8-.1 1.6-.1 2.3-.1 1.7-.1 3.3-.1 5 0 .5.2 1.1.4 1.6 0 .1.1.3.2.4.3.5.5.5 1 .2.9-.6 1.6-1.4 2.2-2.3.8-1.1 1.6-2.3 2.2-3.7l1.8-3.9c.3-.7.7-.9 1.5-.9h8.1c.9 0 1.5.7 1.3 1.6-.2.9-.6 1.7-1.1 2.5-1.3 2.2-2.8 4.2-4.5 6.1-.6.7-1.1 1.4-1.4 2.3-.3 1-.1 1.8.6 2.5 1.3 1.2 2.5 2.5 3.8 3.8.7.8 1.4 1.6 2 2.4.4.5.7 1.2.6 1.9-.1.8-.5 1.2-1.3 1.2-1.5.1-3 .1-4.6.2-.9 0-1.8.1-2.7.1-.7 0-1.3-.2-1.9-.6-1-.5-1.8-1.3-2.5-2-.8-.8-1.6-1.6-2.2-2.6-.4-.6-1.5-.9-2.1-.7-.5.2-.8.6-.8 1.1-.1.9-.1 1.7-.2 2.6-.1 1.1-.8 1.7-1.8 1.9-2.1.3-4.2.2-6.3-.2-1.5-.3-2.8-1-4.1-1.9-1.7-1.2-3.2-2.7-4.5-4.3-.7-.8-1.3-1.7-1.9-2.6-1.9-2.9-3.8-5.8-5.4-8.9C1.4 6.1.6 4.7.2 3 .1 2.7.1 2.3 0 1.9c0-.2 0-.3.2-.4.4-.1.9-.3 1.3-.4h4.3c.6 0 1.2.1 1.9 0 .8 0 1.4.3 1.7 1 .4.7.7 1.4 1 2.1 1.2 2.5 2.5 5 4.3 7.2.3.3.6.6 1 .8.4.3.8.1 1.1-.3.3-.5.5-1.1.5-1.7 0-1.7.1-3.4.1-5.1 0-1.7-.9-2.9-2.5-3.5-.2.2-.2.1-.3.1"/></symbol><symbol id="zoom" viewBox="0 0 96 96"><path d="M90.829 85.171L68.121 62.464A35.834 35.834 0 0 0 76 40C76 20.118 59.882 4 40 4S4 20.118 4 40s16.118 36 36 36c8.5 0 16.306-2.953 22.464-7.879l22.708 22.708a4 4 0 1 0 5.657-5.658zM40 68c-15.464 0-28-12.536-28-28s12.536-28 28-28 28 12.536 28 28-12.536 28-28 28z"/><path d="M52 36h-8v-8a4 4 0 0 0-8 0v8h-8a4 4 0 0 0 0 8h8v8a4 4 0 0 0 8 0v-8h8a4 4 0 0 0 0-8z"/></symbol></svg>