<svg width="50" height="50" viewBox="0 0 50 50" fill="none" xmlns="http://www.w3.org/2000/svg"><path d="M46.183 21.875h-2.432a2.396 2.396 0 0 0-2.287-1.758h-2.597v-6.35a.67.67 0 0 0-.327-.592L20.222 2.595a.677.677 0 0 0-.68 0L1.22 13.175a.682.682 0 0 0-.34.592v21.16a.683.683 0 0 0 .342.593L19.546 46.1c.104.06.222.091.342.091a.718.718 0 0 0 .352-.091l9.643-5.563v4.021a2.896 2.896 0 0 0 2.919 2.903h13.381a2.91 2.91 0 0 0 2.938-2.903V24.822a2.95 2.95 0 0 0-2.938-2.947zm-4.695-.391a.992.992 0 0 1 .992.992v.067a.992.992 0 0 1-.992.992h-3.972a.993.993 0 0 1-.993-.992v-.067a.992.992 0 0 1 .993-.992h3.972zm-21.6-17.508l7.615 4.396-16.957 9.79-7.615-4.396 16.957-9.79zm-.65 40.348L2.246 34.533V14.949l16.992 9.791v19.584zm.65-20.768l-7.975-4.604 16.957-9.79 7.976 4.604-16.958 9.79zm9.995 1.266V38.96l-9.277 5.365V24.74L37.5 14.95v5.167h.021a2.396 2.396 0 0 0-2.287 1.758h-2.432a2.934 2.934 0 0 0-2.92 2.947zm17.87 19.736a1.542 1.542 0 0 1-1.57 1.535H32.802a1.525 1.525 0 0 1-1.552-1.535V24.822a1.564 1.564 0 0 1 1.552-1.58h2.459a2.338 2.338 0 0 0 2.26 1.66h3.943a2.339 2.339 0 0 0 2.26-1.66h2.46a1.58 1.58 0 0 1 1.57 1.58v19.736z" fill="#000"/><path d="M33.589 31.738h.715a.684.684 0 1 0 0-1.367h-.027v-1.855h1.886a.657.657 0 0 0 .65.461.685.685 0 0 0 .687-.682v-.46a.692.692 0 0 0-.691-.687h-3.22a.683.683 0 0 0-.679.687v3.22a.679.679 0 0 0 .679.683zm.005 6.25h3.222a.684.684 0 0 0 .684-.683v-3.223a.683.683 0 0 0-.684-.684h-3.222a.684.684 0 0 0-.684.684v3.223a.684.684 0 0 0 .684.683zm.683-3.222h1.856v1.855h-1.856v-1.855zm.027 8.105h-.027v-1.855h1.849a.688.688 0 0 0 1.374.001v-.659a.713.713 0 0 0-.691-.71h-3.22a.702.702 0 0 0-.679.71v3.22a.658.658 0 0 0 .679.66h.715a.684.684 0 1 0 0-1.367z" fill="#000"/><path d="M38.383 27.988L36.38 29.99l-.608-.61a.684.684 0 0 0-.967.967l1.092 1.093a.684.684 0 0 0 .967 0l2.486-2.486a.683.683 0 1 0-.967-.967zm0 12.622l-2.003 2.002-.608-.61a.682.682 0 0 0-1.167.484.685.685 0 0 0 .2.483l1.092 1.093a.685.685 0 0 0 .967 0l2.486-2.486a.683.683 0 1 0-.967-.967zm7.013-11.801h-4.294a.683.683 0 1 0 0 1.367h4.294a.684.684 0 1 0 0-1.367zm0 6.25h-4.294a.683.683 0 1 0 0 1.367h4.294a.684.684 0 1 0 0-1.367zm0 6.25h-4.294a.683.683 0 1 0 0 1.367h4.294a.684.684 0 1 0 0-1.367z" fill="#000"/></svg>