<svg viewBox="0 0 21 30" fill="none" xmlns="http://www.w3.org/2000/svg"><g clip-path="url(#a)" fill="#000"><path d="M18.604 23.738c.586.473 1.013 1.244.925 1.779l1.013.165c.16-.967-.514-2.227-1.496-2.906.082-.288.123-.591.123-.894h-.02a3.399 3.399 0 0 0-3.394-3.353h-.015c-.18 0-.355.02-.525.046-.015 0-.03.006-.04.006-.18.03-.356.077-.525.133h-.005c-.453-.848-1.363-1.532-2.304-1.722v-2.623h-1.029v3.085c0 .283.232.515.515.515.714 0 1.553.565 1.912 1.239a3.35 3.35 0 0 0-1.342 2.679h1.029c0-.93.555-1.728 1.347-2.103.036-.016.072-.036.108-.052a2.09 2.09 0 0 1 .345-.108c.04-.01.087-.015.133-.025a2.2 2.2 0 0 1 .37-.036h.036a2.366 2.366 0 0 1 2.366 2.365c0 .293-.057.576-.165.848a2.339 2.339 0 0 1-.982 1.121l.514.89a3.375 3.375 0 0 0 1.106-1.05zm-9.348 1.944c0-.55.216-1.065.601-1.455a2.029 2.029 0 0 1 1.455-.602v-1.029c-.647 0-1.26.201-1.779.566-.57-.637-1.398-1.028-2.303-1.08l-.057 1.029c.648.036 1.244.329 1.63.781a3.032 3.032 0 0 0-.576 1.79h1.029zM5.82 21.27l.87-.55a3.058 3.058 0 0 0-1.507-1.23c.283-.812 1.553-1.521 2.53-1.521a.516.516 0 0 0 .514-.515V14.37H7.2v2.612c-1.322.2-2.705 1.126-3.029 2.31h-.082v.004c-1.697.016-3.106 1.388-3.106 3.1 0 .34.057.67.17 1.003C.406 23.97 0 24.766 0 25.682h1.028c0-.7.345-1.255 1.029-1.656a.525.525 0 0 0 .19-.69 2.041 2.041 0 0 1-.231-.945c0-1.142.93-2.078 2.077-2.078a2.076 2.076 0 0 1 1.728.956z"/><path d="M5.682 14.02a.52.52 0 0 0 .72.298l1.671-.838 1.285 1.712a.514.514 0 0 0 .823 0l1.286-1.712 1.67.838a.515.515 0 0 0 .72-.298l.515-1.543a.506.506 0 0 0-.123-.524l-1.908-1.908V6.142C12.34 3.54 10.87 1 9.77 1S7.199 3.54 7.199 6.142v3.903L5.29 11.953a.509.509 0 0 0-.123.524l.514 1.543zm2.396-3.4a.531.531 0 0 0 .15-.364V6.142c0-2.216 1.125-3.882 1.542-4.103.416.216 1.543 1.887 1.543 4.103v4.114a.53.53 0 0 0 .149.365l1.83 1.83-.226.679-1.527-.761a.524.524 0 0 0-.643.15L9.77 14.024l-1.131-1.507a.507.507 0 0 0-.643-.149l-1.527.761-.227-.679 1.836-1.83z"/><path d="M10.284 6.656H9.256v1.029h1.028V6.656zM2.298 29.45l-.714-2.524H.653v3.743h.643v-2.607l.689 2.19h.627l.69-2.241v2.658h.642v-3.743h-.93l-.716 2.525zm4.474-2.39a1.475 1.475 0 0 0-.72-.17c-.272 0-.509.056-.72.17a1.202 1.202 0 0 0-.478.483 1.51 1.51 0 0 0-.17.725v1.06c0 .277.057.513.17.724.113.211.273.37.478.484.206.113.448.17.72.17.273 0 .51-.057.72-.17.206-.114.365-.278.478-.484.113-.21.17-.452.17-.725v-1.059a1.51 1.51 0 0 0-.17-.725 1.113 1.113 0 0 0-.478-.483zm-.077 2.288a.74.74 0 0 1-.077.344.598.598 0 0 1-.221.232.7.7 0 0 1-.335.082.645.645 0 0 1-.334-.082.535.535 0 0 1-.22-.232.74.74 0 0 1-.078-.344v-1.095a.74.74 0 0 1 .077-.345.598.598 0 0 1 .221-.231.7.7 0 0 1 .334-.083c.129 0 .237.026.335.083.097.056.17.128.22.231a.74.74 0 0 1 .078.345v1.095zm2.103-1.435a.528.528 0 0 1 .21-.236.69.69 0 0 1 .34-.083c.103 0 .19.02.273.067a.65.65 0 0 1 .21.2c.057.088.098.196.13.32h.73a1.88 1.88 0 0 0-.253-.7 1.254 1.254 0 0 0-.457-.442 1.28 1.28 0 0 0-.633-.154c-.283 0-.53.056-.73.164a1.1 1.1 0 0 0-.463.479 1.64 1.64 0 0 0-.16.755v1.029c0 .298.052.55.16.756.108.21.263.365.463.478.2.113.447.164.73.164.237 0 .448-.051.628-.154.185-.103.339-.247.457-.442a1.88 1.88 0 0 0 .252-.7h-.73a.938.938 0 0 1-.123.32.555.555 0 0 1-.488.267.64.64 0 0 1-.34-.082.524.524 0 0 1-.211-.237.83.83 0 0 1-.072-.375v-1.029c0-.139.026-.262.077-.365zm5.296-.987h-.812l-.874 1.548h-.422v-1.548h-.704v3.743h.704v-1.517h.416l.967 1.517h.885l-1.25-1.861 1.09-1.882zm2.988 1.974a.98.98 0 0 0-.422-.149 1.01 1.01 0 0 0 .396-.149.726.726 0 0 0 .252-.277.853.853 0 0 0 .087-.386c0-.21-.046-.396-.133-.545a.894.894 0 0 0-.391-.35 1.43 1.43 0 0 0-.622-.118h-1.527v3.743h1.568c.242 0 .447-.04.622-.118a.85.85 0 0 0 .396-.35 1.04 1.04 0 0 0 .134-.55v-.01a.993.993 0 0 0-.093-.437.835.835 0 0 0-.267-.303zm-.859-1.295c.144 0 .257.036.34.103.082.067.118.159.118.282a.423.423 0 0 1-.119.314c-.077.077-.195.113-.339.113h-.797v-.802h.797v-.01zm.504 1.938a.422.422 0 0 1-.134.33.556.556 0 0 1-.375.118h-.797v-.9h.797c.108 0 .2.015.273.051a.424.424 0 0 1 .174.155.455.455 0 0 1 .062.241v.005zm3.512 1.127H21l-1.435-3.744h-.447l-1.435 3.743h.761l.211-.601h1.373l.211.601zm-1.347-1.28l.447-1.276.448 1.275h-.895z"/></g><defs><clipPath id="a"><path fill="#000" d="M0 .181h21v29.73H0z"/></clipPath></defs></svg>