<svg width="23" height="22" viewBox="0 0 23 22" fill="none" xmlns="http://www.w3.org/2000/svg"><path d="M21.832 0H1.168a.314.314 0 0 0-.314.314V20.98a.315.315 0 0 0 .314.314h20.664a.315.315 0 0 0 .314-.314V.314A.314.314 0 0 0 21.832 0zm-3.494 11.84H4.662V9.453H18.34v2.387zM4.662 8.824v-.768H18.34v.768H4.66zM18.34 7.427H4.66V5.041h13.68v2.386zM4.66 12.47h13.68v.768H4.66v-.768zm0 1.397h13.68v2.387H4.66v-2.387zm13.68-9.455H4.66v-.768h13.68v.768zM4.66 16.882h13.68v.768H4.66v-.768zM18.34 3.016H4.66V.629h13.68v2.387zM1.482.629h2.55v20.035h-2.55V.63zm3.18 17.649h13.677v2.386H4.66v-2.386zm16.856 2.386h-2.55V.63h2.55v20.035z" fill="#333"/><path d="M20.44 7.876V9.14a.314.314 0 1 0 .628 0V7.876a.315.315 0 0 0-.629 0zM2.758.969a.853.853 0 1 0 0 1.706.853.853 0 0 0 0-1.706zm0 1.078a.225.225 0 1 1 0-.45.225.225 0 0 1 0 .45zm17.484.629a.854.854 0 1 0 0-1.708.854.854 0 0 0 0 1.708zm0-1.079a.225.225 0 1 1 0 .45.225.225 0 0 1 0-.45zM2.758 18.617a.853.853 0 1 0 0 1.707.853.853 0 0 0 0-1.707zm0 1.079a.225.225 0 1 1 0-.45.225.225 0 0 1 0 .45zm17.484.629a.854.854 0 1 0 0-1.708.854.854 0 0 0 0 1.707zm0-1.079a.225.225 0 1 1 0 .45.225.225 0 0 1 0-.45z" fill="#333"/></svg>