<svg width="24" height="24" viewBox="0 0 24 24" fill="none" xmlns="http://www.w3.org/2000/svg"><g clip-path="url(#a)" fill="#333"><path d="M12.895 2.761a1.265 1.265 0 0 0-1.79 0l-8.349 8.35a1.265 1.265 0 0 0 0 1.789l8.35 8.35a1.265 1.265 0 0 0 1.789 0l8.35-8.35a1.265 1.265 0 0 0 0-1.789l-8.35-8.35zm7.753 9.54l-8.35 8.35a.422.422 0 0 1-.596 0l-8.35-8.35a.422.422 0 0 1 0-.596l8.35-8.35a.422.422 0 0 1 .596 0l8.35 8.35a.422.422 0 0 1 0 .596z"/><path d="M12.894.374a1.295 1.295 0 0 0-1.788 0L.37 11.11a1.265 1.265 0 0 0 0 1.79l10.736 10.732a1.265 1.265 0 0 0 1.788 0L23.63 12.898a1.265 1.265 0 0 0 0-1.789L12.894.374zm10.14 11.928L12.297 23.037a.422.422 0 0 1-.596 0L.967 12.302a.421.421 0 0 1 0-.597L11.702.97a.422.422 0 0 1 .596 0l10.735 10.735a.421.421 0 0 1 0 .597z"/><path d="M11.933 5.798a1.62 1.62 0 0 0-1.617 1.708l.309 5.65a1.265 1.265 0 0 0 1.265 1.197h.09a1.265 1.265 0 0 0 1.265-1.196l.31-5.651a1.62 1.62 0 0 0-1.622-1.708zm.466 7.312a.422.422 0 0 1-.422.399h-.09a.422.422 0 0 1-.421-.4l-.31-5.65a.776.776 0 1 1 1.551 0l-.308 5.65zM12 15.194a1.265 1.265 0 1 0 0 2.53 1.265 1.265 0 0 0 0-2.53zm0 1.687a.422.422 0 1 1 0-.843.422.422 0 0 1 0 .843z"/></g><defs><clipPath id="a"><path fill="#fff" d="M0 0h24v24H0z"/></clipPath></defs></svg>